Jinko.ufo
<glyph name="quotedbl" format="1">
  <advance width="944"/>
  <unicode hex="0022"/>
  <outline>
    <contour>
      <point x="186" y="1011" type="line"/>
      <point x="344" y="1011" type="line"/>
      <point x="391" y="1575" type="line"/>
      <point x="140" y="1575" type="line"/>
    </contour>
    <contour>
      <point x="600" y="1011" type="line"/>
      <point x="758" y="1011" type="line"/>
      <point x="805" y="1575" type="line"/>
      <point x="554" y="1575" type="line"/>
    </contour>
  </outline>
</glyph>
<glyph name="numbersign" format="1">
  <advance width="1504"/>
  <unicode hex="0023"/>
  <outline>
    <contour>
      <point x="225" y="-2" type="line"/>
      <point x="472" y="-2" type="line"/>
      <point x="552" y="370" type="line"/>
      <point x="794" y="370" type="line"/>
      <point x="715" y="-2" type="line"/>
      <point x="959" y="-2" type="line"/>
      <point x="1040" y="370" type="line"/>
      <point x="1335" y="370" type="line"/>
      <point x="1335" y="592" type="line"/>
      <point x="1090" y="592" type="line"/>
      <point x="1162" y="897" type="line"/>
      <point x="1436" y="897" type="line"/>
      <point x="1436" y="1119" type="line"/>
      <point x="1214" y="1119" type="line"/>
      <point x="1292" y="1479" type="line"/>
      <point x="1043" y="1479" type="line"/>
      <point x="965" y="1119" type="line"/>
      <point x="726" y="1119" type="line"/>
      <point x="803" y="1479" type="line"/>
      <point x="554" y="1479" type="line"/>
      <point x="476" y="1119" type="line"/>
      <point x="172" y="1119" type="line"/>
      <point x="172" y="897" type="line"/>
      <point x="426" y="897" type="line"/>
      <point x="355" y="592" type="line"/>
      <point x="69" y="592" type="line"/>
      <point x="69" y="370" type="line"/>
      <point x="305" y="370" type="line"/>
    </contour>
    <contour>
      <point x="602" y="590" type="line"/>
      <point x="674" y="899" type="line"/>
      <point x="918" y="899" type="line"/>
      <point x="847" y="590" type="line"/>
    </contour>
  </outline>
</glyph>
<glyph name="dollar" format="1">
  <advance width="1244"/>
  <unicode hex="0024"/>
  <outline>
    <contour>
      <point x="538" y="-318" type="line"/>
      <point x="700" y="-318" type="line"/>
      <point x="700" y="-4" type="line"/>
      <point x="998" y="15"/>
      <point x="1187" y="209"/>
      <point x="1187" y="437" type="curve" smooth="yes"/>
      <point x="1187" y="681"/>
      <point x="1034" y="791"/>
      <point x="695" y="858" type="curve"/>
      <point x="695" y="1129" type="line"/>
      <point x="810" y="1123"/>
      <point x="913" y="1100"/>
      <point x="995" y="1052" type="curve"/>
      <point x="1013" y="1047"/>
      <point x="1029" y="1042"/>
      <point x="1047" y="1035" type="curve"/>
      <point x="1090" y="1299" type="line"/>
      <point x="1004" y="1352"/>
      <point x="820" y="1395"/>
      <point x="700" y="1398" type="curve"/>
      <point x="700" y="1589" type="line"/>
      <point x="538" y="1589" type="line"/>
      <point x="538" y="1397" type="line"/>
      <point x="251" y="1366"/>
      <point x="76" y="1211"/>
      <point x="76" y="999" type="curve" smooth="yes"/>
      <point x="76" y="692"/>
      <point x="321" y="614"/>
      <point x="542" y="564" type="curve"/>
      <point x="542" y="265" type="line"/>
      <point x="413" y="271"/>
      <point x="232" y="328"/>
      <point x="177" y="368" type="curve"/>
      <point x="161" y="374"/>
      <point x="146" y="381"/>
      <point x="131" y="387" type="curve"/>
      <point x="79" y="123" type="line"/>
      <point x="179" y="52"/>
      <point x="400" y="-6"/>
      <point x="538" y="-7" type="curve"/>
    </contour>
    <contour>
      <point x="550" y="879" type="line"/>
      <point x="445" y="906"/>
      <point x="435" y="945"/>
      <point x="435" y="1001" type="curve" smooth="yes"/>
      <point x="435" y="1082"/>
      <point x="491" y="1122"/>
      <point x="550" y="1128" type="curve"/>
    </contour>
    <contour>
      <point x="689" y="266" type="curve"/>
      <point x="689" y="543" type="line"/>
      <point x="787" y="526"/>
      <point x="823" y="470"/>
      <point x="823" y="410" type="curve" smooth="yes"/>
      <point x="823" y="327"/>
      <point x="769" y="280"/>
    </contour>
  </outline>
</glyph>
<glyph name="ampersand" format="1">
  <advance width="1595"/>
  <unicode hex="0026"/>
  <outline>
    <contour>
      <point x="675" y="-24" type="curve" smooth="yes"/>
      <point x="844" y="-24"/>
      <point x="1002" y="20"/>
      <point x="1144" y="120" type="curve"/>
      <point x="1189" y="77"/>
      <point x="1269" y="0"/>
      <point x="1269" y="0" type="curve"/>
      <point x="1269" y="0"/>
      <point x="1578" y="0"/>
      <point x="1578" y="0" type="curve"/>
      <point x="1578" y="0"/>
      <point x="1316" y="250"/>
      <point x="1316" y="251" type="curve"/>
      <point x="1461" y="387"/>
      <point x="1489" y="592"/>
      <point x="1485" y="777" type="curve"/>
      <point x="1279" y="798" type="line"/>
      <point x="1286" y="706"/>
      <point x="1268" y="466"/>
      <point x="1175" y="385" type="curve"/>
      <point x="1074" y="485"/>
      <point x="848" y="708"/>
      <point x="749" y="811" type="curve"/>
      <point x="1081" y="973"/>
      <point x="1132" y="1109"/>
      <point x="1122" y="1266" type="curve" smooth="yes"/>
      <point x="1111" y="1440"/>
      <point x="975" y="1599"/>
      <point x="681" y="1599" type="curve" smooth="yes"/>
      <point x="306" y="1599"/>
      <point x="187" y="1404"/>
      <point x="187" y="1228" type="curve" smooth="yes"/>
      <point x="187" y="1078"/>
      <point x="310" y="962"/>
      <point x="404" y="874" type="curve"/>
      <point x="199" y="788"/>
      <point x="78" y="665"/>
      <point x="78" y="452" type="curve" smooth="yes"/>
      <point x="78" y="172"/>
      <point x="302" y="-24"/>
    </contour>
    <contour>
      <point x="703" y="170" type="curve" smooth="yes"/>
      <point x="425" y="170"/>
      <point x="307" y="299"/>
      <point x="307" y="460" type="curve" smooth="yes"/>
      <point x="307" y="612"/>
      <point x="428" y="683"/>
      <point x="525" y="726" type="curve"/>
      <point x="695" y="554"/>
      <point x="836" y="417"/>
      <point x="1007" y="248" type="curve"/>
      <point x="903" y="187"/>
      <point x="847" y="170"/>
    </contour>
    <contour>
      <point x="609" y="952" type="curve"/>
      <point x="479" y="1094"/>
      <point x="417" y="1147"/>
      <point x="428" y="1250" type="curve" smooth="yes"/>
      <point x="439" y="1351"/>
      <point x="521" y="1422"/>
      <point x="664" y="1422" type="curve" smooth="yes"/>
      <point x="846" y="1422"/>
      <point x="908" y="1349"/>
      <point x="908" y="1234" type="curve" smooth="yes"/>
      <point x="908" y="1132"/>
      <point x="828" y="1032"/>
    </contour>
  </outline>
</glyph>
<glyph name="quotesingle" format="1">
  <advance width="564"/>
  <unicode hex="0027"/>
  <outline>
    <contour>
      <point x="437" y="1523" type="line"/>
      <point x="388" y="881" type="line"/>
      <point x="170" y="881" type="line"/>
      <point x="127" y="1523" type="line"/>
    </contour>
  </outline>
</glyph>
<glyph name="parenleft" format="1">
  <advance width="841"/>
  <unicode hex="0028"/>
  <outline>
    <contour>
      <point x="743" y="1523" type="curve"/>
      <point x="505" y="1523" type="line"/>
      <point x="281" y="1268"/>
      <point x="133" y="970"/>
      <point x="133" y="592" type="curve" smooth="yes"/>
      <point x="133" y="188"/>
      <point x="280" y="-86"/>
      <point x="505" y="-340" type="curve"/>
      <point x="743" y="-340" type="line"/>
      <point x="737" y="-319"/>
      <point x="743" y="-300"/>
      <point x="739" y="-278" type="curve"/>
      <point x="566" y="-82"/>
      <point x="389" y="213"/>
      <point x="389" y="592" type="curve" smooth="yes"/>
      <point x="389" y="966"/>
      <point x="556" y="1257"/>
      <point x="739" y="1461" type="curve"/>
      <point x="743" y="1482"/>
      <point x="737" y="1503"/>
    </contour>
  </outline>
</glyph>
<glyph name="parenright" format="1">
  <advance width="841"/>
  <unicode hex="0029"/>
  <outline>
    <contour>
      <point x="133" y="-340" type="curve"/>
      <point x="371" y="-340" type="line"/>
      <point x="595" y="-85"/>
      <point x="743" y="213"/>
      <point x="743" y="591" type="curve" smooth="yes"/>
      <point x="743" y="995"/>
      <point x="596" y="1269"/>
      <point x="371" y="1523" type="curve"/>
      <point x="133" y="1523" type="line"/>
      <point x="139" y="1502"/>
      <point x="133" y="1483"/>
      <point x="137" y="1461" type="curve"/>
      <point x="310" y="1265"/>
      <point x="487" y="970"/>
      <point x="487" y="591" type="curve" smooth="yes"/>
      <point x="487" y="217"/>
      <point x="320" y="-74"/>
      <point x="137" y="-278" type="curve"/>
      <point x="133" y="-299"/>
      <point x="139" y="-320"/>
    </contour>
  </outline>
</glyph>
<glyph name="plus" format="1">
  <advance width="1589"/>
  <unicode hex="002B"/>
  <outline>
    <contour>
      <point x="662" y="9" type="line"/>
      <point x="928" y="9" type="line"/>
      <point x="928" y="485" type="line"/>
      <point x="1428" y="485" type="line"/>
      <point x="1428" y="735" type="line"/>
      <point x="928" y="735" type="line"/>
      <point x="928" y="1209" type="line"/>
      <point x="662" y="1209" type="line"/>
      <point x="662" y="735" type="line"/>
      <point x="161" y="735" type="line"/>
      <point x="161" y="485" type="line"/>
      <point x="662" y="485" type="line"/>
    </contour>
  </outline>
</glyph>
<glyph name="comma" format="1">
  <advance width="585"/>
  <unicode hex="002C"/>
  <outline>
    <contour>
      <point x="111" y="-250" type="line"/>
      <point x="293" y="-250" type="line"/>
      <point x="531" y="359" type="line"/>
      <point x="174" y="359" type="line"/>
    </contour>
  </outline>
</glyph>
<glyph name="hyphen" format="1">
  <advance width="891"/>
  <unicode hex="002D"/>
  <outline>
    <contour>
      <point x="101" y="489" type="line"/>
      <point x="789" y="489" type="line"/>
      <point x="789" y="768" type="line"/>
      <point x="101" y="768" type="line"/>
    </contour>
  </outline>
</glyph>
<glyph name="period" format="1">
  <advance width="723"/>
  <unicode hex="002E"/>
  <outline>
    <contour>
      <point x="353" y="-9" type="curve" smooth="yes"/>
      <point x="451" y="-9"/>
      <point x="530" y="70"/>
      <point x="530" y="168" type="curve" smooth="yes"/>
      <point x="530" y="266"/>
      <point x="451" y="345"/>
      <point x="353" y="345" type="curve" smooth="yes"/>
      <point x="255" y="345"/>
      <point x="176" y="266"/>
      <point x="176" y="168" type="curve" smooth="yes"/>
      <point x="176" y="70"/>
      <point x="255" y="-9"/>
    </contour>
  </outline>
</glyph>
<glyph name="slash" format="1">
  <advance width="1126"/>
  <unicode hex="002F"/>
  <outline>
    <contour>
      <point x="131" y="0" type="line"/>
      <point x="416" y="0" type="line"/>
      <point x="960" y="1574" type="line"/>
      <point x="673" y="1574" type="line"/>
    </contour>
  </outline>
</glyph>
<glyph name="zero" format="1">
  <advance width="1442"/>
  <unicode hex="0030"/>
  <outline>
    <contour>
      <point x="727" y="168" type="curve" smooth="yes"/>
      <point x="400" y="168"/>
      <point x="362" y="429"/>
      <point x="362" y="788" type="curve" smooth="yes"/>
      <point x="362" y="1149"/>
      <point x="409" y="1407"/>
      <point x="727" y="1407" type="curve" smooth="yes"/>
      <point x="1036" y="1407"/>
      <point x="1091" y="1144"/>
      <point x="1091" y="788" type="curve" smooth="yes"/>
      <point x="1091" y="441"/>
      <point x="1046" y="168"/>
    </contour>
    <contour>
      <point x="727" y="-24" type="curve" smooth="yes"/>
      <point x="1177" y="-24"/>
      <point x="1347" y="292"/>
      <point x="1347" y="788" type="curve" smooth="yes"/>
      <point x="1347" y="1290"/>
      <point x="1176" y="1599"/>
      <point x="727" y="1599" type="curve" smooth="yes"/>
      <point x="278" y="1599"/>
      <point x="106" y="1289"/>
      <point x="106" y="788" type="curve" smooth="yes"/>
      <point x="106" y="290"/>
      <point x="277" y="-24"/>
    </contour>
  </outline>
</glyph>
<glyph name="one" format="1">
  <advance width="1245"/>
  <unicode hex="0031"/>
  <outline>
    <contour>
      <point x="253" y="0" type="line"/>
      <point x="1050" y="0" type="line"/>
      <point x="1050" y="192" type="line"/>
      <point x="780" y="192" type="line"/>
      <point x="780" y="1575" type="line"/>
      <point x="494" y="1575" type="line"/>
      <point x="454" y="1494"/>
      <point x="382" y="1427"/>
      <point x="228" y="1389" type="curve"/>
      <point x="228" y="1230" type="line"/>
      <point x="524" y="1320" type="line"/>
      <point x="524" y="192" type="line"/>
      <point x="253" y="192" type="line"/>
    </contour>
  </outline>
</glyph>
<glyph name="two" format="1">
  <advance width="1245"/>
  <unicode hex="0032"/>
  <outline>
    <contour>
      <point x="125" y="0" type="line"/>
      <point x="1168" y="0" type="line"/>
      <point x="1168" y="192" type="line"/>
      <point x="446" y="192" type="line"/>
      <point x="865" y="563"/>
      <point x="1161" y="855"/>
      <point x="1161" y="1167" type="curve" smooth="yes"/>
      <point x="1161" y="1432"/>
      <point x="979" y="1599"/>
      <point x="637" y="1599" type="curve" smooth="yes"/>
      <point x="460" y="1599"/>
      <point x="229" y="1527"/>
      <point x="150" y="1457" type="curve"/>
      <point x="201" y="1274" type="line"/>
      <point x="268.485" y="1331.41"/>
      <point x="472" y="1406"/>
      <point x="597" y="1406" type="curve" smooth="yes"/>
      <point x="841" y="1406"/>
      <point x="909" y="1308"/>
      <point x="909" y="1156" type="curve" smooth="yes"/>
      <point x="909" y="913"/>
      <point x="480" y="497"/>
      <point x="125" y="190" type="curve"/>
    </contour>
  </outline>
</glyph>
<glyph name="three" format="1">
  <advance width="1246"/>
  <unicode hex="0033"/>
  <outline>
    <contour>
      <point x="581" y="-24" type="curve" smooth="yes"/>
      <point x="964" y="-24"/>
      <point x="1190" y="163"/>
      <point x="1190" y="439" type="curve" smooth="yes"/>
      <point x="1190" y="652"/>
      <point x="1018" y="789"/>
      <point x="874" y="834" type="curve"/>
      <point x="1003" y="893"/>
      <point x="1133" y="983"/>
      <point x="1133" y="1186" type="curve" smooth="yes"/>
      <point x="1133" y="1402"/>
      <point x="962" y="1600"/>
      <point x="573" y="1600" type="curve" smooth="yes"/>
      <point x="389" y="1600"/>
      <point x="207" y="1553"/>
      <point x="108" y="1481" type="curve"/>
      <point x="108" y="1296" type="line"/>
      <point x="168" y="1296" type="line"/>
      <point x="168" y="1296"/>
      <point x="308" y="1404"/>
      <point x="545" y="1404" type="curve" smooth="yes"/>
      <point x="769" y="1404"/>
      <point x="875" y="1315"/>
      <point x="875" y="1186" type="curve" smooth="yes"/>
      <point x="875" y="1037"/>
      <point x="796" y="920"/>
      <point x="517" y="920" type="curve" smooth="yes"/>
      <point x="390" y="920" type="line"/>
      <point x="390" y="757" type="line"/>
      <point x="517" y="757" type="line" smooth="yes"/>
      <point x="823" y="757"/>
      <point x="933" y="586"/>
      <point x="933" y="439" type="curve" smooth="yes"/>
      <point x="933" y="265"/>
      <point x="794" y="168"/>
      <point x="552" y="168" type="curve" smooth="yes"/>
      <point x="265" y="168"/>
      <point x="168" y="284"/>
      <point x="168" y="284" type="curve"/>
      <point x="108" y="284" type="line"/>
      <point x="108" y="95" type="line"/>
      <point x="173" y="49"/>
      <point x="343" y="-24"/>
    </contour>
  </outline>
</glyph>
<glyph name="four" format="1">
  <advance width="1246"/>
  <unicode hex="0034"/>
  <outline>
    <contour>
      <point x="634" y="0" type="line"/>
      <point x="843" y="0" type="line"/>
      <point x="843" y="217" type="line"/>
      <point x="959" y="217" type="line"/>
      <point x="959" y="414" type="line"/>
      <point x="843" y="414" type="line"/>
      <point x="843" y="834" type="line"/>
      <point x="634" y="834" type="line"/>
      <point x="634" y="414" type="line"/>
      <point x="252" y="414" type="line"/>
      <point x="746" y="1458" type="line"/>
      <point x="513" y="1458" type="line"/>
      <point x="25" y="414" type="line"/>
      <point x="25" y="217" type="line"/>
      <point x="634" y="217" type="line"/>
    </contour>
  </outline>
</glyph>
<glyph name="five" format="1">
  <advance width="1244"/>
  <unicode hex="0035"/>
  <outline>
    <contour>
      <point x="980" y="-24"/>
      <point x="1184" y="117"/>
      <point x="1184" y="454" type="curve" smooth="yes"/>
      <point x="1184" y="813"/>
      <point x="870" y="923"/>
      <point x="550" y="947" type="curve" smooth="yes"/>
      <point x="524" y="949"/>
      <point x="380" y="964"/>
      <point x="380" y="965" type="curve" smooth="yes"/>
      <point x="399" y="1383" type="line"/>
      <point x="1078" y="1383" type="line"/>
      <point x="1078" y="1575" type="line"/>
      <point x="164" y="1575" type="line"/>
      <point x="164" y="781" type="line"/>
      <point x="164" y="781"/>
      <point x="335" y="767"/>
      <point x="477" y="753" type="curve" smooth="yes"/>
      <point x="789" y="723"/>
      <point x="929" y="621"/>
      <point x="929" y="446" type="curve" smooth="yes"/>
      <point x="929.0" y="288.949052852"/>
      <point x="857.413793394" y="168.0"/>
      <point x="574" y="168" type="curve" smooth="yes"/>
      <point x="312" y="168"/>
      <point x="178" y="284"/>
      <point x="178" y="284" type="curve"/>
      <point x="118" y="284" type="line"/>
      <point x="118" y="96" type="line"/>
      <point x="222" y="26"/>
      <point x="382" y="-24"/>
      <point x="604" y="-24" type="curve" smooth="yes"/>
    </contour>
  </outline>
</glyph>
<glyph name="six" format="1">
  <advance width="1244"/>
  <unicode hex="0036"/>
  <outline>
    <contour>
      <point x="637" y="-24" type="curve" smooth="yes"/>
      <point x="967" y="-24"/>
      <point x="1184" y="171"/>
      <point x="1184" y="495" type="curve" smooth="yes"/>
      <point x="1184" y="801"/>
      <point x="1026" y="958"/>
      <point x="772" y="958" type="curve" smooth="yes"/>
      <point x="677" y="958"/>
      <point x="590" y="927"/>
      <point x="520" y="886" type="curve"/>
      <point x="587" y="1124"/>
      <point x="770" y="1194"/>
      <point x="1048" y="1220" type="curve"/>
      <point x="988" y="1478" type="line"/>
      <point x="395" y="1444"/>
      <point x="88" y="1139"/>
      <point x="88" y="557" type="curve" smooth="yes"/>
      <point x="88" y="186"/>
      <point x="302" y="-24"/>
    </contour>
    <contour>
      <point x="626" y="233" type="curve" smooth="yes"/>
      <point x="502" y="233"/>
      <point x="446" y="341"/>
      <point x="446" y="477" type="curve" smooth="yes"/>
      <point x="446" y="603"/>
      <point x="452" y="696"/>
      <point x="634" y="696" type="curve" smooth="yes"/>
      <point x="737" y="696"/>
      <point x="813" y="642"/>
      <point x="813" y="482" type="curve" smooth="yes"/>
      <point x="813" y="329"/>
      <point x="785" y="233"/>
    </contour>
  </outline>
</glyph>
<glyph name="seven" format="1">
  <advance width="1245"/>
  <unicode hex="0037"/>
  <outline>
    <contour>
      <point x="278" y="0" type="line"/>
      <point x="544" y="0" type="line"/>
      <point x="1136" y="1388" type="line"/>
      <point x="1136" y="1575" type="line"/>
      <point x="138" y="1575" type="line"/>
      <point x="138" y="1215" type="line"/>
      <point x="362" y="1215" type="line"/>
      <point x="362" y="1383" type="line"/>
      <point x="873" y="1383" type="line"/>
    </contour>
  </outline>
</glyph>
<glyph name="eight" format="1">
  <advance width="1432"/>
  <unicode hex="0038"/>
  <outline>
    <contour>
      <point x="1296" y="420" type="curve" smooth="yes"/>
      <point x="1296" y="162"/>
      <point x="1078" y="-26"/>
      <point x="715" y="-26" type="curve" smooth="yes"/>
      <point x="328" y="-26"/>
      <point x="136" y="163"/>
      <point x="136" y="410" type="curve" smooth="yes"/>
      <point x="136" y="569"/>
      <point x="223" y="672"/>
      <point x="385" y="746" type="curve"/>
      <point x="226" y="829"/>
      <point x="173" y="986"/>
      <point x="173" y="1094" type="curve" smooth="yes"/>
      <point x="173" y="1310"/>
      <point x="366" y="1505"/>
      <point x="718" y="1505" type="curve" smooth="yes"/>
      <point x="1065" y="1505"/>
      <point x="1237" y="1351"/>
      <point x="1254" y="1154" type="curve"/>
      <point x="1258" y="1045"/>
      <point x="1197" y="867"/>
      <point x="1038" y="794" type="curve"/>
      <point x="1216" y="715"/>
      <point x="1296" y="585"/>
    </contour>
    <contour>
      <point x="922" y="409" type="curve" smooth="yes"/>
      <point x="922" y="466"/>
      <point x="918" y="618"/>
      <point x="630" y="649" type="curve"/>
      <point x="570" y="619"/>
      <point x="506" y="543"/>
      <point x="506" y="450" type="curve" smooth="yes"/>
      <point x="506" y="323"/>
      <point x="601" y="241"/>
      <point x="730" y="241" type="curve" smooth="yes"/>
      <point x="804" y="241"/>
      <point x="922" y="292"/>
    </contour>
    <contour>
      <point x="892" y="1077" type="curve" smooth="yes"/>
      <point x="892" y="1177"/>
      <point x="822" y="1240"/>
      <point x="719" y="1240" type="curve" smooth="yes"/>
      <point x="623" y="1240"/>
      <point x="547" y="1181"/>
      <point x="547" y="1096" type="curve" smooth="yes"/>
      <point x="547" y="972"/>
      <point x="620" y="950"/>
      <point x="796" y="892" type="curve"/>
      <point x="847" y="932"/>
      <point x="892" y="986"/>
    </contour>
  </outline>
</glyph>
<glyph name="nine" format="1">
  <advance width="1245"/>
  <unicode hex="0039"/>
  <outline>
    <contour>
      <point x="253" y="0" type="curve"/>
      <point x="260" y="8"/>
      <point x="383" y="-2"/>
      <point x="441" y="5" type="curve"/>
      <point x="837" y="75"/>
      <point x="1050" y="327"/>
      <point x="1133" y="673" type="curve"/>
      <point x="1153" y="735"/>
      <point x="1162" y="805"/>
      <point x="1163" y="877" type="curve" smooth="yes"/>
      <point x="1170" y="1291"/>
      <point x="953" y="1502"/>
      <point x="611" y="1502" type="curve" smooth="yes"/>
      <point x="281" y="1502"/>
      <point x="60" y="1300"/>
      <point x="60" y="982" type="curve" smooth="yes"/>
      <point x="60" y="755"/>
      <point x="150" y="623"/>
      <point x="275" y="562" type="curve"/>
      <point x="305" y="549"/>
      <point x="336" y="540"/>
      <point x="369" y="534" type="curve"/>
      <point x="400" y="526"/>
      <point x="435" y="520"/>
      <point x="475" y="520" type="curve" smooth="yes"/>
      <point x="588" y="520"/>
      <point x="644" y="549"/>
      <point x="724" y="593" type="curve"/>
      <point x="674" y="390"/>
      <point x="544" y="299"/>
      <point x="407" y="246" type="curve"/>
      <point x="311" y="235"/>
      <point x="265" y="241"/>
      <point x="235" y="244" type="curve"/>
      <point x="194" y="238" type="line"/>
      <point x="216" y="160"/>
      <point x="235" y="81"/>
    </contour>
    <contour>
      <point x="646" y="780" type="curve" smooth="yes"/>
      <point x="540" y="780"/>
      <point x="439" y="826"/>
      <point x="439" y="1003" type="curve" smooth="yes"/>
      <point x="439" y="1185"/>
      <point x="546" y="1242"/>
      <point x="607" y="1242" type="curve" smooth="yes"/>
      <point x="721" y="1242"/>
      <point x="787" y="1144"/>
      <point x="787" y="933" type="curve" smooth="yes"/>
      <point x="787" y="878"/>
      <point x="780" y="835"/>
      <point x="772" y="824" type="curve"/>
      <point x="768" y="809"/>
      <point x="723" y="780"/>
    </contour>
  </outline>
</glyph>
<glyph name="colon" format="1">
  <advance width="635"/>
  <unicode hex="003A"/>
  <outline>
    <contour>
      <point x="317" y="744" type="curve" smooth="yes"/>
      <point x="415" y="744"/>
      <point x="494" y="823"/>
      <point x="494" y="921" type="curve" smooth="yes"/>
      <point x="494" y="1019"/>
      <point x="415" y="1098"/>
      <point x="317" y="1098" type="curve" smooth="yes"/>
      <point x="219" y="1098"/>
      <point x="140" y="1019"/>
      <point x="140" y="921" type="curve" smooth="yes"/>
      <point x="140" y="823"/>
      <point x="219" y="744"/>
    </contour>
    <contour>
      <point x="317" y="0" type="curve" smooth="yes"/>
      <point x="415" y="0"/>
      <point x="494" y="79"/>
      <point x="494" y="177" type="curve" smooth="yes"/>
      <point x="494" y="275"/>
      <point x="415" y="354"/>
      <point x="317" y="354" type="curve" smooth="yes"/>
      <point x="219" y="354"/>
      <point x="140" y="275"/>
      <point x="140" y="177" type="curve" smooth="yes"/>
      <point x="140" y="79"/>
      <point x="219" y="0"/>
    </contour>
  </outline>
</glyph>
<glyph name="semicolon" format="1">
  <advance width="635"/>
  <unicode hex="003B"/>
  <outline>
    <contour>
      <point x="111" y="-250" type="line"/>
      <point x="293" y="-250" type="line"/>
      <point x="531" y="359" type="line"/>
      <point x="174" y="359" type="line"/>
    </contour>
    <contour>
      <point x="315.5" y="667.72" type="curve" smooth="yes"/>
      <point x="433.628" y="667.72"/>
      <point x="529.5" y="763.592"/>
      <point x="529.5" y="881.72" type="curve" smooth="yes"/>
      <point x="529.5" y="999.848"/>
      <point x="433.628" y="1095.72"/>
      <point x="315.5" y="1095.72" type="curve" smooth="yes"/>
      <point x="197.372" y="1095.72"/>
      <point x="101.5" y="999.848"/>
      <point x="101.5" y="881.72" type="curve" smooth="yes"/>
      <point x="101.5" y="763.592"/>
      <point x="197.372" y="667.72"/>
    </contour>
  </outline>
</glyph>
<glyph name="less" format="1">
  <advance width="1590"/>
  <unicode hex="003C"/>
  <outline>
    <contour>
      <point x="1430" y="-15" type="line"/>
      <point x="1430" y="249" type="line"/>
      <point x="741" y="517" type="line"/>
      <point x="652" y="550"/>
      <point x="562" y="584"/>
      <point x="473" y="618" type="curve"/>
      <point x="570" y="650"/>
      <point x="666" y="681"/>
      <point x="763" y="712" type="curve"/>
      <point x="1430" y="970" type="line"/>
      <point x="1430" y="1234" type="line"/>
      <point x="135" y="720" type="line"/>
      <point x="135" y="500" type="line"/>
    </contour>
  </outline>
</glyph>
<glyph name="equal" format="1">
  <advance width="1590"/>
  <unicode hex="003D"/>
  <outline>
    <contour>
      <point x="181" y="242" type="line"/>
      <point x="1411" y="242" type="line"/>
      <point x="1411" y="491" type="line"/>
      <point x="181" y="491" type="line"/>
    </contour>
    <contour>
      <point x="181" y="730" type="line"/>
      <point x="1411" y="730" type="line"/>
      <point x="1411" y="979" type="line"/>
      <point x="181" y="979" type="line"/>
    </contour>
  </outline>
</glyph>
<glyph name="greater" format="1">
  <advance width="1590"/>
  <unicode hex="003E"/>
  <outline>
    <contour>
      <point x="161" y="-15" type="line"/>
      <point x="1455" y="499" type="line"/>
      <point x="1455" y="719" type="line"/>
      <point x="161" y="1234" type="line"/>
      <point x="161" y="970" type="line"/>
      <point x="1084" y="610" type="line"/>
      <point x="161" y="249" type="line"/>
    </contour>
  </outline>
</glyph>
<glyph name="question" format="1">
  <advance width="1149"/>
  <unicode hex="003F"/>
  <outline>
    <contour>
      <point x="463" y="-9" type="curve" smooth="yes"/>
      <point x="561" y="-9"/>
      <point x="640" y="70"/>
      <point x="640" y="168" type="curve" smooth="yes"/>
      <point x="640" y="266"/>
      <point x="561" y="345"/>
      <point x="463" y="345" type="curve" smooth="yes"/>
      <point x="365" y="345"/>
      <point x="286" y="266"/>
      <point x="286" y="168" type="curve" smooth="yes"/>
      <point x="286" y="70"/>
      <point x="365" y="-9"/>
    </contour>
    <contour>
      <point x="528" y="539" type="line"/>
      <point x="731" y="723"/>
      <point x="1010" y="931"/>
      <point x="1010" y="1210" type="curve" smooth="yes"/>
      <point x="1010" y="1423"/>
      <point x="880" y="1599"/>
      <point x="576" y="1599" type="curve" smooth="yes"/>
      <point x="383" y="1599"/>
      <point x="219" y="1507"/>
      <point x="154" y="1469" type="curve"/>
      <point x="154" y="1267" type="line"/>
      <point x="248" y="1340"/>
      <point x="377" y="1406"/>
      <point x="516" y="1406" type="curve" smooth="yes"/>
      <point x="693" y="1406"/>
      <point x="776" y="1298"/>
      <point x="776" y="1158" type="curve" smooth="yes"/>
      <point x="776" y="1010"/>
      <point x="554" y="739"/>
      <point x="403" y="539" type="curve"/>
    </contour>
  </outline>
</glyph>
<glyph name="at" format="1">
  <advance width="1825"/>
  <unicode hex="0040"/>
  <outline>
    <contour>
      <point x="975" y="-129" type="curve" smooth="yes"/>
      <point x="1136" y="-129"/>
      <point x="1303" y="-98"/>
      <point x="1440" y="1" type="curve"/>
      <point x="1392" y="111" type="line"/>
      <point x="1266" y="42"/>
      <point x="1135" y="-3"/>
      <point x="983" y="-3" type="curve" smooth="yes"/>
      <point x="504" y="-3"/>
      <point x="290" y="287"/>
      <point x="290" y="665" type="curve" smooth="yes"/>
      <point x="290" y="1033"/>
      <point x="532" y="1360"/>
      <point x="987" y="1360" type="curve" smooth="yes"/>
      <point x="1411" y="1360"/>
      <point x="1641" y="1074"/>
      <point x="1641" y="726" type="curve" smooth="yes"/>
      <point x="1641" y="486"/>
      <point x="1550" y="296"/>
      <point x="1409" y="296" type="curve" smooth="yes"/>
      <point x="1341" y="296"/>
      <point x="1284" y="321"/>
      <point x="1284" y="446" type="curve" smooth="yes"/>
      <point x="1284" y="466"/>
      <point x="1285" y="488"/>
      <point x="1288" y="512" type="curve" smooth="yes"/>
      <point x="1356" y="1109" type="line"/>
      <point x="1221" y="1109" type="line"/>
      <point x="1202" y="1017" type="line"/>
      <point x="1160" y="1065"/>
      <point x="1074" y="1144"/>
      <point x="924" y="1144" type="curve" smooth="yes"/>
      <point x="656" y="1144"/>
      <point x="492" y="916"/>
      <point x="492" y="631" type="curve" smooth="yes"/>
      <point x="492" y="401"/>
      <point x="626" y="214"/>
      <point x="901" y="214" type="curve" smooth="yes"/>
      <point x="999" y="214"/>
      <point x="1106" y="278"/>
      <point x="1162" y="346" type="curve"/>
      <point x="1187" y="255"/>
      <point x="1276" y="187"/>
      <point x="1402" y="187" type="curve" smooth="yes"/>
      <point x="1611" y="187"/>
      <point x="1784" y="421"/>
      <point x="1784" y="744" type="curve" smooth="yes"/>
      <point x="1784" y="1177"/>
      <point x="1453" y="1491"/>
      <point x="982" y="1491" type="curve" smooth="yes"/>
      <point x="486" y="1491"/>
      <point x="122" y="1147"/>
      <point x="122" y="667" type="curve" smooth="yes"/>
      <point x="122" y="192"/>
      <point x="467" y="-129"/>
    </contour>
    <contour>
      <point x="896" y="324" type="curve" smooth="yes"/>
      <point x="723" y="324"/>
      <point x="655" y="465"/>
      <point x="655" y="635" type="curve" smooth="yes"/>
      <point x="655" y="894"/>
      <point x="781" y="1031"/>
      <point x="952" y="1031" type="curve" smooth="yes"/>
      <point x="1062" y="1031"/>
      <point x="1140" y="973"/>
      <point x="1184" y="913" type="curve"/>
      <point x="1130" y="420" type="line"/>
      <point x="1110" y="396"/>
      <point x="1022" y="324"/>
    </contour>
  </outline>
</glyph>
<glyph name="A" format="1">
  <advance width="1406"/>
  <unicode hex="0041"/>
  <outline>
    <contour>
      <point x="20" y="0" type="line"/>
      <point x="269" y="0" type="line"/>
      <point x="398" y="388" type="line"/>
      <point x="1014" y="388" type="line"/>
      <point x="1142" y="0" type="line"/>
      <point x="1391" y="0" type="line"/>
      <point x="845" y="1575" type="line"/>
      <point x="551" y="1575" type="line"/>
    </contour>
    <contour>
      <point x="459" y="577" type="line"/>
      <point x="699" y="1344" type="line"/>
      <point x="700" y="1344" type="line"/>
      <point x="953" y="577" type="line"/>
    </contour>
    <contour>
      <point x="703" y="1575" type="move" name="top"/>
    </contour>
    <contour>
      <point x="1265" y="10" type="move" name="ogonek"/>
    </contour>
  </outline>
</glyph>
<glyph name="B" format="1">
  <advance width="1408"/>
  <unicode hex="0042"/>
  <outline>
    <contour>
      <point x="249" y="0" type="line"/>
      <point x="802" y="0" type="line" smooth="yes"/>
      <point x="1161" y="0"/>
      <point x="1425" y="134"/>
      <point x="1425" y="477" type="curve" smooth="yes"/>
      <point x="1425" y="671"/>
      <point x="1306" y="822"/>
      <point x="1121" y="862" type="curve"/>
      <point x="1121" y="869" type="line"/>
      <point x="1257" y="925"/>
      <point x="1318" y="1029"/>
      <point x="1318" y="1158" type="curve" smooth="yes"/>
      <point x="1318" y="1520"/>
      <point x="1043" y="1575"/>
      <point x="582" y="1575" type="curve" smooth="yes"/>
      <point x="249" y="1575" type="line"/>
    </contour>
    <contour>
      <point x="505" y="192" type="line"/>
      <point x="505" y="725" type="line"/>
      <point x="789" y="725" type="line" smooth="yes"/>
      <point x="986" y="725"/>
      <point x="1169" y="657"/>
      <point x="1169" y="481" type="curve" smooth="yes"/>
      <point x="1169" y="348"/>
      <point x="1111" y="192"/>
      <point x="827" y="192" type="curve" smooth="yes"/>
    </contour>
    <contour>
      <point x="505" y="917" type="line"/>
      <point x="505" y="1383" type="line"/>
      <point x="734" y="1383" type="line" smooth="yes"/>
      <point x="955" y="1383"/>
      <point x="1062" y="1304"/>
      <point x="1062" y="1160" type="curve" smooth="yes"/>
      <point x="1062" y="1008"/>
      <point x="974" y="917"/>
      <point x="739" y="917" type="curve" smooth="yes"/>
    </contour>
  </outline>
</glyph>
<glyph name="C" format="1">
  <advance width="1326"/>
  <unicode hex="0043"/>
  <outline>
    <contour>
      <point x="864" y="260" type="curve" smooth="yes"/>
      <point x="1054" y="260"/>
      <point x="1226" y="377"/>
      <point x="1226" y="377" type="curve"/>
      <point x="1292" y="103" type="line"/>
      <point x="1143" y="18"/>
      <point x="1010" y="-26"/>
      <point x="817" y="-26" type="curve" smooth="yes"/>
      <point x="317" y="-26"/>
      <point x="70" y="253"/>
      <point x="70" y="740" type="curve" smooth="yes"/>
      <point x="70" y="1231"/>
      <point x="313" y="1499"/>
      <point x="824" y="1499" type="curve" smooth="yes"/>
      <point x="1013" y="1499"/>
      <point x="1154" y="1458"/>
      <point x="1291" y="1388" type="curve"/>
      <point x="1215" y="1096" type="line"/>
      <point x="1215" y="1096"/>
      <point x="1067" y="1213"/>
      <point x="859" y="1213" type="curve" smooth="yes"/>
      <point x="591" y="1213"/>
      <point x="464" y="1041"/>
      <point x="464" y="737" type="curve" smooth="yes"/>
      <point x="464" y="426"/>
      <point x="582" y="260"/>
    </contour>
  </outline>
</glyph>
<glyph name="D" format="1">
  <advance width="1600"/>
  <unicode hex="0044"/>
  <outline>
    <contour>
      <point x="481" y="192" type="line"/>
      <point x="481" y="1383" type="line"/>
      <point x="721" y="1383" type="line" smooth="yes"/>
      <point x="1045" y="1383"/>
      <point x="1243" y="1182"/>
      <point x="1243" y="787" type="curve" smooth="yes"/>
      <point x="1243" y="368"/>
      <point x="1095" y="192"/>
      <point x="707" y="192" type="curve" smooth="yes"/>
    </contour>
    <contour>
      <point x="225" y="0" type="line"/>
      <point x="670" y="0" type="line" smooth="yes"/>
      <point x="1186" y="0"/>
      <point x="1495" y="231"/>
      <point x="1495" y="787" type="curve" smooth="yes"/>
      <point x="1495" y="1339"/>
      <point x="1189" y="1575"/>
      <point x="664" y="1575" type="curve" smooth="yes"/>
      <point x="225" y="1575" type="line"/>
    </contour>
    <contour>
      <point x="800" y="1575" type="move" name="top"/>
    </contour>
    <contour>
      <point x="800" y="788" type="move" name="center"/>
    </contour>
  </outline>
</glyph>
<glyph name="E" format="1">
  <advance width="1263"/>
  <unicode hex="0045"/>
  <outline>
    <contour>
      <point x="214" y="0" type="line"/>
      <point x="1120" y="0" type="line"/>
      <point x="1120" y="192" type="line"/>
      <point x="470" y="192" type="line"/>
      <point x="470" y="740" type="line"/>
      <point x="1035" y="740" type="line"/>
      <point x="1035" y="932" type="line"/>
      <point x="470" y="932" type="line"/>
      <point x="470" y="1384" type="line"/>
      <point x="1121" y="1384" type="line"/>
      <point x="1121" y="1575" type="line"/>
      <point x="214" y="1575" type="line"/>
    </contour>
    <contour>
      <point x="632" y="1575" type="move" name="top"/>
    </contour>
    <contour>
      <point x="632" y="0" type="move" name="bottom"/>
    </contour>
    <contour>
      <point x="1137" y="10" type="move" name="ogonek"/>
    </contour>
  </outline>
</glyph>
<glyph name="F" format="1">
  <advance width="1137"/>
  <unicode hex="0046"/>
  <outline>
    <contour>
      <point x="155" y="0" type="line"/>
      <point x="411" y="0" type="line"/>
      <point x="411" y="731" type="line"/>
      <point x="1043" y="731" type="line"/>
      <point x="1043" y="923" type="line"/>
      <point x="411" y="923" type="line"/>
      <point x="411" y="1383" type="line"/>
      <point x="1100" y="1383" type="line"/>
      <point x="1100" y="1575" type="line"/>
      <point x="155" y="1575" type="line"/>
    </contour>
  </outline>
</glyph>
<glyph name="G" format="1">
  <advance width="1472"/>
  <unicode hex="0047"/>
  <outline>
    <contour>
      <point x="847" y="-24" type="curve" smooth="yes"/>
      <point x="1089" y="-24"/>
      <point x="1272" y="46"/>
      <point x="1413" y="150" type="curve"/>
      <point x="1413" y="884" type="line"/>
      <point x="793" y="884" type="line"/>
      <point x="793" y="674" type="line"/>
      <point x="1182" y="674" type="line"/>
      <point x="1182" y="258" type="line"/>
      <point x="1159" y="242"/>
      <point x="1037" y="169"/>
      <point x="879" y="169" type="curve" smooth="yes"/>
      <point x="527" y="169"/>
      <point x="371" y="358"/>
      <point x="371" y="793" type="curve" smooth="yes"/>
      <point x="371" y="1218"/>
      <point x="529" y="1405"/>
      <point x="862" y="1405" type="curve" smooth="yes"/>
      <point x="1102" y="1405"/>
      <point x="1276" y="1281"/>
      <point x="1275" y="1279" type="curve" smooth="yes"/>
      <point x="1328" y="1464" type="line"/>
      <point x="1269" y="1504"/>
      <point x="1099" y="1599"/>
      <point x="866" y="1599" type="curve" smooth="yes"/>
      <point x="373" y="1599"/>
      <point x="115" y="1313"/>
      <point x="115" y="789" type="curve" smooth="yes"/>
      <point x="115" y="287"/>
      <point x="328" y="-24"/>
    </contour>
    <contour>
      <point x="736" y="1575" type="move" name="top"/>
    </contour>
    <contour>
      <point x="736" y="0" type="move" name="bottom"/>
    </contour>
  </outline>
</glyph>
<glyph name="H" format="1">
  <advance width="1514"/>
  <unicode hex="0048"/>
  <outline>
    <contour>
      <point x="155" y="0" type="line"/>
      <point x="411" y="0" type="line"/>
      <point x="411" y="715" type="line"/>
      <point x="1103" y="715" type="line"/>
      <point x="1103" y="0" type="line"/>
      <point x="1359" y="0" type="line"/>
      <point x="1359" y="1575" type="line"/>
      <point x="1103" y="1575" type="line"/>
      <point x="1103" y="907" type="line"/>
      <point x="411" y="907" type="line"/>
      <point x="411" y="1575" type="line"/>
      <point x="155" y="1575" type="line"/>
    </contour>
  </outline>
</glyph>
<glyph name="I" format="1">
  <advance width="908"/>
  <unicode hex="0049"/>
  <outline>
    <contour>
      <point x="109" y="0" type="line"/>
      <point x="799" y="0" type="line"/>
      <point x="799" y="128" type="line"/>
      <point x="582" y="128" type="line"/>
      <point x="582" y="1447" type="line"/>
      <point x="799" y="1447" type="line"/>
      <point x="799" y="1575" type="line"/>
      <point x="109" y="1575" type="line"/>
      <point x="109" y="1447" type="line"/>
      <point x="326" y="1447" type="line"/>
      <point x="326" y="128" type="line"/>
      <point x="109" y="128" type="line"/>
    </contour>
    <contour>
      <point x="454" y="1575" type="move" name="top"/>
    </contour>
    <contour>
      <point x="817" y="10" type="move" name="ogonek"/>
    </contour>
  </outline>
</glyph>
<glyph name="J" format="1">
  <advance width="980"/>
  <unicode hex="004A"/>
  <outline>
    <contour>
      <point x="372" y="-20" type="curve" smooth="yes"/>
      <point x="705" y="-20"/>
      <point x="825" y="147"/>
      <point x="825" y="443" type="curve" smooth="yes"/>
      <point x="825" y="1575" type="line"/>
      <point x="274" y="1575" type="line"/>
      <point x="274" y="1383" type="line"/>
      <point x="569" y="1383" type="line"/>
      <point x="569" y="493" type="line" smooth="yes"/>
      <point x="569" y="257"/>
      <point x="523" y="175"/>
      <point x="370" y="175" type="curve" smooth="yes"/>
      <point x="295" y="175"/>
      <point x="204" y="202"/>
      <point x="114" y="241" type="curve"/>
      <point x="62" y="64" type="line"/>
      <point x="88" y="50"/>
      <point x="192" y="-20"/>
    </contour>
    <contour>
      <point x="491" y="1575" type="move" name="top"/>
    </contour>
  </outline>
</glyph>
<glyph name="K" format="1">
  <advance width="1440"/>
  <unicode hex="004b"/>
  <outline>
    <contour>
      <point x="1477" y="0" type="line" smooth="no"/>
      <point x="1020" y="0" type="line" smooth="no"/>
      <point x="922" y="169"/>
      <point x="823" y="337"/>
      <point x="724" y="505" type="curve" smooth="no"/>
      <point x="653" y="627" type="line" smooth="no"/>
      <point x="531" y="477" type="line" smooth="no"/>
      <point x="531" y="0" type="line" smooth="no"/>
      <point x="146" y="0" type="line" smooth="no"/>
      <point x="146" y="1479" type="line" smooth="no"/>
      <point x="531" y="1479" type="line" smooth="no"/>
      <point x="531" y="816" type="line" smooth="no"/>
      <point x="532" y="816" type="line" smooth="no"/>
      <point x="669" y="1005" type="line" smooth="no"/>
      <point x="780" y="1163"/>
      <point x="893" y="1321"/>
      <point x="1005" y="1479" type="curve" smooth="no"/>
      <point x="1448" y="1479" type="line" smooth="no"/>
      <point x="956" y="832" type="line" smooth="no"/>
    </contour>
  </outline>
</glyph>
<glyph name="L" format="1">
  <advance width="1121"/>
  <unicode hex="004C"/>
  <outline>
    <contour>
      <point x="155" y="0" type="line"/>
      <point x="1116" y="0" type="line"/>
      <point x="1116" y="192" type="line"/>
      <point x="411" y="192" type="line"/>
      <point x="411" y="1575" type="line"/>
      <point x="155" y="1575" type="line"/>
    </contour>
    <contour>
      <point x="549" y="1575" type="move" name="top"/>
    </contour>
    <contour>
      <point x="549" y="0" type="move" name="bottom"/>
    </contour>
  </outline>
</glyph>
<glyph name="M" format="1">
  <advance width="1770"/>
  <unicode hex="004D"/>
  <outline>
    <contour>
      <point x="155" y="0" type="line"/>
      <point x="412" y="0" type="line"/>
      <point x="412" y="917" type="line"/>
      <point x="407" y="1124" type="line"/>
      <point x="786" y="430" type="line"/>
      <point x="984" y="430" type="line"/>
      <point x="1365" y="1124" type="line"/>
      <point x="1359" y="917" type="line"/>
      <point x="1359" y="0" type="line"/>
      <point x="1615" y="0" type="line"/>
      <point x="1615" y="1575" type="line"/>
      <point x="1361" y="1575" type="line"/>
      <point x="893" y="712" type="line"/>
      <point x="426" y="1575" type="line"/>
      <point x="155" y="1575" type="line"/>
    </contour>
  </outline>
</glyph>
<glyph name="N" format="1">
  <advance width="1658"/>
  <unicode hex="004E"/>
  <outline>
    <contour>
      <point x="155" y="0" type="line"/>
      <point x="411" y="0" type="line"/>
      <point x="411" y="975" type="line"/>
      <point x="403" y="1191" type="line"/>
      <point x="1264" y="0" type="line"/>
      <point x="1503" y="0" type="line"/>
      <point x="1503" y="1575" type="line"/>
      <point x="1247" y="1575" type="line"/>
      <point x="1247" y="609" type="line"/>
      <point x="1251" y="399" type="line"/>
      <point x="1220" y="441"/>
      <point x="407" y="1575"/>
      <point x="407" y="1575" type="curve"/>
      <point x="155" y="1575" type="line"/>
    </contour>
    <contour>
      <point x="829" y="1575" type="move" name="top"/>
    </contour>
    <contour>
      <point x="829" y="0" type="move" name="bottom"/>
    </contour>
  </outline>
</glyph>
<glyph name="O" format="1">
  <advance width="1514"/>
  <unicode hex="004f"/>
  <outline>
    <contour>
      <point x="757.5" y="-24" type="curve" smooth="yes"/>
      <point x="299.5" y="-24"/>
      <point x="70.5" y="253"/>
      <point x="70.5" y="740" type="curve" smooth="yes"/>
      <point x="70.5" y="1230"/>
      <point x="300.5" y="1503"/>
      <point x="757.5" y="1503" type="curve" smooth="yes"/>
      <point x="1214.5" y="1503"/>
      <point x="1443.5" y="1231"/>
      <point x="1443.5" y="740" type="curve" smooth="yes"/>
      <point x="1443.5" y="254"/>
      <point x="1215.5" y="-24"/>
    </contour>
    <contour>
      <point x="1050.5" y="740" type="curve" smooth="yes"/>
      <point x="1050.5" y="1037"/>
      <point x="982.5" y="1215"/>
      <point x="758.5" y="1215" type="curve" smooth="yes"/>
      <point x="533.5" y="1215"/>
      <point x="464.5" y="1041"/>
      <point x="464.5" y="739" type="curve" smooth="yes"/>
      <point x="464.5" y="439"/>
      <point x="532.5" y="264"/>
      <point x="758.5" y="264" type="curve" smooth="yes"/>
      <point x="985.5" y="264"/>
      <point x="1050.5" y="451"/>
    </contour>
  </outline>
</glyph>
<glyph name="P" format="1">
  <advance width="1386"/>
  <unicode hex="0050"/>
  <outline>
    <contour>
      <point x="207" y="0" type="line"/>
      <point x="463" y="0" type="line"/>
      <point x="463" y="624" type="line"/>
      <point x="649" y="624" type="line" smooth="yes"/>
      <point x="1024" y="624"/>
      <point x="1260" y="763"/>
      <point x="1260" y="1081" type="curve" smooth="yes"/>
      <point x="1260" y="1444"/>
      <point x="1029" y="1575"/>
      <point x="666" y="1575" type="curve" smooth="yes"/>
      <point x="207" y="1575" type="line"/>
    </contour>
    <contour>
      <point x="463" y="816" type="line"/>
      <point x="463" y="1383" type="line"/>
      <point x="657" y="1383" type="line" smooth="yes"/>
      <point x="933" y="1383"/>
      <point x="1004" y="1282"/>
      <point x="1004" y="1082" type="curve" smooth="yes"/>
      <point x="1004" y="857"/>
      <point x="864" y="816"/>
      <point x="650" y="816" type="curve" smooth="yes"/>
    </contour>
  </outline>
</glyph>
<glyph name="Q" format="1">
  <advance width="1514"/>
  <unicode hex="0051"/>
  <outline>
    <contour>
      <point x="1075" y="-446" type="line"/>
      <point x="1260" y="-346" type="line"/>
      <point x="1049" y="7" type="line"/>
      <point x="1369" y="98"/>
      <point x="1516" y="383"/>
      <point x="1516" y="788" type="curve" smooth="yes"/>
      <point x="1516" y="1290"/>
      <point x="1295" y="1599"/>
      <point x="806" y="1599" type="curve" smooth="yes"/>
      <point x="317" y="1599"/>
      <point x="95" y="1289"/>
      <point x="95" y="788" type="curve" smooth="yes"/>
      <point x="95" y="290"/>
      <point x="316" y="-24"/>
      <point x="806" y="-24" type="curve" smooth="yes"/>
      <point x="833" y="-24" type="line"/>
    </contour>
    <contour>
      <point x="806" y="168" type="curve" smooth="yes"/>
      <point x="429" y="168"/>
      <point x="351" y="469"/>
      <point x="351" y="788" type="curve" smooth="yes"/>
      <point x="351" y="1109"/>
      <point x="428" y="1407"/>
      <point x="806" y="1407" type="curve" smooth="yes"/>
      <point x="1175" y="1407"/>
      <point x="1260" y="1104"/>
      <point x="1260" y="788" type="curve" smooth="yes"/>
      <point x="1260" y="481"/>
      <point x="1175" y="168"/>
    </contour>
  </outline>
</glyph>
<glyph name="R" format="1">
  <advance width="1414"/>
  <unicode hex="0052"/>
  <outline>
    <contour>
      <point x="155" y="0" type="line"/>
      <point x="411" y="0" type="line"/>
      <point x="411" y="688" type="line"/>
      <point x="736" y="688" type="line"/>
      <point x="1102" y="0" type="line"/>
      <point x="1360" y="0" type="line"/>
      <point x="1360" y="57" type="line"/>
      <point x="986" y="720" type="line"/>
      <point x="1215" y="799"/>
      <point x="1285" y="932"/>
      <point x="1285" y="1151" type="curve" smooth="yes"/>
      <point x="1285" y="1527"/>
      <point x="933" y="1575"/>
      <point x="710" y="1575" type="curve" smooth="yes"/>
      <point x="155" y="1575" type="line"/>
    </contour>
    <contour>
      <point x="411" y="880" type="line"/>
      <point x="411" y="1383" type="line"/>
      <point x="715" y="1383" type="line" smooth="yes"/>
      <point x="952" y="1383"/>
      <point x="1029" y="1283"/>
      <point x="1029" y="1128" type="curve" smooth="yes"/>
      <point x="1029" y="957"/>
      <point x="920" y="880"/>
      <point x="711" y="880" type="curve" smooth="yes"/>
    </contour>
  </outline>
</glyph>
<glyph name="S" format="1">
  <advance width="1341"/>
  <unicode hex="0053"/>
  <outline>
    <contour>
      <point x="592" y="-21" type="curve" smooth="yes"/>
      <point x="940" y="-21"/>
      <point x="1209" y="144"/>
      <point x="1209" y="433" type="curve" smooth="yes"/>
      <point x="1209" y="712"/>
      <point x="1071" y="808"/>
      <point x="625" y="914" type="curve"/>
      <point x="391.811739407" y="963.14730156"/>
      <point x="308.0" y="1034.56031795"/>
      <point x="308" y="1149" type="curve" smooth="yes"/>
      <point x="308" y="1289"/>
      <point x="440" y="1407"/>
      <point x="676" y="1407" type="curve" smooth="yes"/>
      <point x="819" y="1407"/>
      <point x="969" y="1370"/>
      <point x="1096" y="1288" type="curve"/>
      <point x="1096" y="1288"/>
      <point x="1127" y="1288"/>
      <point x="1127" y="1288" type="curve"/>
      <point x="1153" y="1472" type="line"/>
      <point x="1017" y="1548"/>
      <point x="836" y="1599"/>
      <point x="654" y="1599" type="curve" smooth="yes"/>
      <point x="318" y="1599"/>
      <point x="75" y="1418"/>
      <point x="75" y="1132" type="curve" smooth="yes"/>
      <point x="75" y="865"/>
      <point x="235" y="771"/>
      <point x="605" y="689" type="curve" smooth="yes"/>
      <point x="904" y="623"/>
      <point x="955" y="536"/>
      <point x="955" y="404" type="curve" smooth="yes"/>
      <point x="955" y="288"/>
      <point x="860" y="169"/>
      <point x="592" y="169" type="curve" smooth="yes"/>
      <point x="441" y="169"/>
      <point x="231" y="215"/>
      <point x="108" y="341" type="curve"/>
      <point x="108" y="341"/>
      <point x="76" y="341"/>
      <point x="76" y="341" type="curve"/>
      <point x="42" y="134" type="line"/>
      <point x="186" y="39"/>
      <point x="363" y="-21"/>
    </contour>
  </outline>
</glyph>
<glyph name="T" format="1">
  <advance width="1222"/>
  <unicode hex="0054"/>
  <outline>
    <contour>
      <point x="484" y="0" type="line"/>
      <point x="740" y="0" type="line"/>
      <point x="740" y="1383" type="line"/>
      <point x="1203" y="1383" type="line"/>
      <point x="1203" y="1575" type="line"/>
      <point x="19" y="1575" type="line"/>
      <point x="19" y="1383" type="line"/>
      <point x="484" y="1383" type="line"/>
    </contour>
    <contour>
      <point x="611" y="1575" type="move" name="top"/>
    </contour>
    <contour>
      <point x="611" y="0" type="move" name="bottom"/>
    </contour>
    <contour>
      <point x="611" y="788" type="move" name="center"/>
    </contour>
  </outline>
</glyph>
<glyph name="U" format="1">
  <advance width="1498"/>
  <unicode hex="0055"/>
  <outline>
    <contour>
      <point x="1336" y="1575" type="line"/>
      <point x="1336" y="506" type="line" smooth="yes"/>
      <point x="1336" y="177"/>
      <point x="1144.5" y="-24"/>
      <point x="749.5" y="-24" type="curve" smooth="yes"/>
      <point x="370.5" y="-24"/>
      <point x="163" y="170"/>
      <point x="163" y="505" type="curve" smooth="yes"/>
      <point x="163" y="1575" type="line"/>
      <point x="419" y="1575" type="line"/>
      <point x="419" y="497" type="line" smooth="yes"/>
      <point x="419" y="249"/>
      <point x="536" y="168"/>
      <point x="750" y="168" type="curve" smooth="yes"/>
      <point x="961" y="168"/>
      <point x="1080" y="249"/>
      <point x="1080" y="498" type="curve" smooth="yes"/>
      <point x="1080" y="1575" type="line"/>
    </contour>
  </outline>
</glyph>
<glyph name="V" format="1">
  <advance width="1346"/>
  <unicode hex="0056"/>
  <outline>
    <contour>
      <point x="521" y="0" type="line"/>
      <point x="835" y="0" type="line"/>
      <point x="1409" y="1575" type="line"/>
      <point x="1130" y="1575" type="line"/>
      <point x="736" y="436" type="line"/>
      <point x="678" y="254" type="line"/>
      <point x="676" y="254" type="line"/>
      <point x="616" y="436" type="line"/>
      <point x="216" y="1575" type="line"/>
      <point x="-63" y="1575" type="line"/>
    </contour>
  </outline>
</glyph>
<glyph name="W" format="1">
  <advance width="2073"/>
  <unicode hex="0057"/>
  <outline>
    <contour>
      <point x="406" y="0" type="line"/>
      <point x="662" y="0" type="line"/>
      <point x="1044" y="1295" type="line"/>
      <point x="1402" y="0" type="line"/>
      <point x="1659" y="0" type="line"/>
      <point x="2088" y="1575" type="line"/>
      <point x="1836" y="1575" type="line"/>
      <point x="1614.72" y="705.366" type="line"/>
      <point x="1536" y="396" type="line"/>
      <point x="1443.67" y="719.981" type="line"/>
      <point x="1200" y="1575" type="line"/>
      <point x="888" y="1575" type="line"/>
      <point x="636.419" y="708.037" type="line"/>
      <point x="545" y="393" type="line"/>
      <point x="542" y="393" type="line"/>
      <point x="461.884" y="712.921" type="line"/>
      <point x="246" y="1575" type="line"/>
      <point x="-15" y="1575" type="line"/>
    </contour>
    <contour>
      <point x="1037" y="1575" type="move" name="top"/>
    </contour>
  </outline>
</glyph>
<glyph name="X" format="1">
  <advance width="1459"/>
  <unicode hex="0058"/>
  <outline>
    <contour>
      <point x="-10" y="0" type="line"/>
      <point x="284" y="0" type="line"/>
      <point x="628.783" y="473.399" type="line"/>
      <point x="729" y="611" type="line"/>
      <point x="828.692" y="468.349" type="line"/>
      <point x="1156" y="0" type="line"/>
      <point x="1440" y="0" type="line"/>
      <point x="871" y="781" type="line"/>
      <point x="1469" y="1575" type="line"/>
      <point x="1167" y="1575" type="line"/>
      <point x="803.63" y="1075.47" type="line"/>
      <point x="724" y="966" type="line"/>
      <point x="646.527" y="1075.47" type="line"/>
      <point x="293" y="1575" type="line"/>
      <point x="21" y="1575" type="line"/>
      <point x="584" y="794" type="line"/>
    </contour>
  </outline>
</glyph>
<glyph name="Y" format="1">
  <advance width="1338"/>
  <unicode hex="0059"/>
  <outline>
    <contour>
      <point x="567" y="0" type="line"/>
      <point x="823" y="0" type="line"/>
      <point x="823" y="713" type="line"/>
      <point x="1448" y="1575" type="line"/>
      <point x="1158" y="1575" type="line"/>
      <point x="703" y="907" type="line"/>
      <point x="244" y="1575" type="line"/>
      <point x="-49" y="1575" type="line"/>
      <point x="567" y="700" type="line"/>
    </contour>
  </outline>
</glyph>
<glyph name="Z" format="1">
  <advance width="1217"/>
  <unicode hex="005A"/>
  <outline>
    <contour>
      <point x="1187" y="0" type="line"/>
      <point x="41" y="0" type="line"/>
      <point x="41" y="272" type="line"/>
      <point x="680" y="1198" type="line"/>
      <point x="75" y="1198" type="line"/>
      <point x="75" y="1479" type="line"/>
      <point x="1154" y="1479" type="line"/>
      <point x="1154" y="1208" type="line"/>
      <point x="517" y="286" type="line"/>
      <point x="1187" y="286" type="line"/>
    </contour>
  </outline>
</glyph>
<glyph name="bracketleft" format="1">
  <advance width="841"/>
  <unicode hex="005B"/>
  <outline>
    <contour>
      <point x="198" y="-273" type="line"/>
      <point x="741" y="-273" type="line"/>
      <point x="741" y="-81" type="line"/>
      <point x="454" y="-81" type="line"/>
      <point x="454" y="1383" type="line"/>
      <point x="741" y="1383" type="line"/>
      <point x="741" y="1575" type="line"/>
      <point x="198" y="1575" type="line"/>
    </contour>
  </outline>
</glyph>
<glyph name="bracketright" format="1">
  <advance width="841"/>
  <unicode hex="005D"/>
  <outline>
    <contour>
      <point x="741" y="1575" type="line"/>
      <point x="198" y="1575" type="line"/>
      <point x="198" y="1383" type="line"/>
      <point x="485" y="1383" type="line"/>
      <point x="485" y="-81" type="line"/>
      <point x="198" y="-81" type="line"/>
      <point x="198" y="-273" type="line"/>
      <point x="741" y="-273" type="line"/>
    </contour>
  </outline>
</glyph>
<glyph name="underscore" format="1">
  <advance width="1269"/>
  <unicode hex="005F"/>
  <outline>
    <contour>
      <point x="1283" y="-325" type="line"/>
      <point x="-14" y="-325" type="line"/>
      <point x="-14" y="-137" type="line"/>
      <point x="1283" y="-137" type="line"/>
    </contour>
  </outline>
</glyph>
<glyph name="grave" format="1">
  <advance width="896"/>
  <unicode hex="0060"/>
  <outline>
    <contour>
      <point x="713" y="1239" type="line"/>
      <point x="463" y="1239" type="line"/>
      <point x="147" y="1605" type="line"/>
      <point x="497" y="1605" type="line"/>
    </contour>
  </outline>
</glyph>
<glyph name="a" format="1">
  <advance width="1204"/>
  <unicode hex="0061"/>
  <outline>
    <contour>
      <point x="66" y="640"/>
      <point x="373" y="686"/>
      <point x="751" y="686" type="curve" smooth="yes"/>
      <point x="751" y="686"/>
      <point x="751" y="686"/>
      <point x="751" y="686" type="curve"/>
      <point x="751" y="856"/>
      <point x="716" y="933"/>
      <point x="537" y="933" type="curve" smooth="yes"/>
      <point x="430" y="933"/>
      <point x="303" y="902"/>
      <point x="196" y="860" type="curve"/>
      <point x="137" y="1032" type="line"/>
      <point x="208" y="1083"/>
      <point x="387" y="1126"/>
      <point x="553" y="1126" type="curve" smooth="yes"/>
      <point x="934" y="1126"/>
      <point x="1007" y="956"/>
      <point x="1007" y="699" type="curve" smooth="yes"/>
      <point x="1007" y="0" type="line"/>
      <point x="751" y="0" type="line"/>
      <point x="751" y="172" type="line"/>
      <point x="749" y="172" type="line"/>
      <point x="717" y="88"/>
      <point x="609" y="-22"/>
      <point x="420" y="-24" type="curve" smooth="yes"/>
      <point x="419" y="-24"/>
      <point x="417" y="-24"/>
      <point x="416" y="-24" type="curve" smooth="yes"/>
      <point x="210" y="-24"/>
      <point x="66" y="118"/>
      <point x="66" y="307" type="curve" smooth="yes"/>
    </contour>
    <contour>
      <point x="436" y="521"/>
      <point x="308" y="472"/>
      <point x="308" y="332" type="curve" smooth="yes"/>
      <point x="308.0" y="207.928803844"/>
      <point x="391.495433678" y="163.0"/>
      <point x="484" y="163" type="curve" smooth="yes"/>
      <point x="673" y="163"/>
      <point x="751" y="291"/>
      <point x="751" y="534" type="curve"/>
    </contour>
  </outline>
</glyph>
<glyph name="b" format="1">
  <advance width="1269"/>
  <unicode hex="0062"/>
  <outline>
    <contour>
      <point x="809" y="1122" type="curve" smooth="yes"/>
      <point x="1109" y="1122"/>
      <point x="1208" y="902"/>
      <point x="1208" y="558" type="curve" smooth="yes"/>
      <point x="1208" y="227"/>
      <point x="1065" y="-22"/>
      <point x="768" y="-22" type="curve" smooth="yes"/>
      <point x="641" y="-22"/>
      <point x="568" y="16"/>
      <point x="485" y="88" type="curve"/>
      <point x="486" y="0" type="line"/>
      <point x="126" y="0" type="line"/>
      <point x="126" y="1521" type="line"/>
      <point x="485" y="1521" type="line"/>
      <point x="485" y="989" type="line"/>
      <point x="585" y="1069"/>
      <point x="675" y="1122"/>
    </contour>
    <contour>
      <point x="842" y="555" type="curve" smooth="yes"/>
      <point x="842" y="748"/>
      <point x="798" y="848"/>
      <point x="646" y="848" type="curve" smooth="yes"/>
      <point x="573" y="848"/>
      <point x="527" y="824"/>
      <point x="485" y="782" type="curve"/>
      <point x="485" y="277" type="line"/>
      <point x="512" y="261"/>
      <point x="567" y="254"/>
      <point x="614" y="254" type="curve" smooth="yes"/>
      <point x="793" y="254"/>
      <point x="842" y="376"/>
    </contour>
  </outline>
</glyph>
<glyph name="c" format="1">
  <advance width="1078"/>
  <unicode hex="0063"/>
  <outline>
    <contour>
      <point x="652" y="-25" type="curve" smooth="yes"/>
      <point x="804" y="-25"/>
      <point x="908" y="13"/>
      <point x="1022" y="75" type="curve"/>
      <point x="980" y="272" type="line"/>
      <point x="910" y="224"/>
      <point x="820" y="169"/>
      <point x="663" y="169" type="curve" smooth="yes"/>
      <point x="441" y="169"/>
      <point x="330" y="295"/>
      <point x="330" y="545" type="curve" smooth="yes"/>
      <point x="330.0" y="811.933745613"/>
      <point x="477.689990016" y="934.0"/>
      <point x="673" y="934" type="curve" smooth="yes"/>
      <point x="784" y="934"/>
      <point x="900" y="890"/>
      <point x="985" y="824" type="curve"/>
      <point x="1026" y="1021" type="line"/>
      <point x="885" y="1100"/>
      <point x="773" y="1122"/>
      <point x="642" y="1122" type="curve" smooth="yes"/>
      <point x="349" y="1122"/>
      <point x="81" y="963"/>
      <point x="81" y="546" type="curve" smooth="yes"/>
      <point x="81" y="151"/>
      <point x="327" y="-25"/>
    </contour>
  </outline>
</glyph>
<glyph name="d" format="1">
  <advance width="1190"/>
  <unicode hex="0064"/>
  <outline>
    <contour>
      <point x="518" y="-24" type="curve" smooth="yes"/>
      <point x="645" y="-24"/>
      <point x="786" y="44"/>
      <point x="830" y="112" type="curve"/>
      <point x="830" y="0" type="line"/>
      <point x="1086" y="0" type="line"/>
      <point x="1086" y="1521" type="line"/>
      <point x="830" y="1521" type="line"/>
      <point x="830" y="1022" type="line"/>
      <point x="783" y="1071"/>
      <point x="659" y="1126"/>
      <point x="542" y="1126" type="curve" smooth="yes"/>
      <point x="257" y="1126"/>
      <point x="74" y="927"/>
      <point x="74" y="550" type="curve" smooth="yes"/>
      <point x="74" y="213"/>
      <point x="224" y="-24"/>
    </contour>
    <contour>
      <point x="606" y="168" type="curve" smooth="yes"/>
      <point x="423" y="168"/>
      <point x="330" y="326"/>
      <point x="330" y="551" type="curve" smooth="yes"/>
      <point x="330" y="747"/>
      <point x="393" y="933"/>
      <point x="583" y="933" type="curve" smooth="yes"/>
      <point x="642" y="933"/>
      <point x="745" y="920"/>
      <point x="830" y="868" type="curve"/>
      <point x="830" y="229" type="line"/>
      <point x="771" y="178"/>
      <point x="652" y="168"/>
    </contour>
  </outline>
</glyph>
<glyph name="e" format="1">
  <advance width="1150"/>
  <unicode hex="0065"/>
  <outline>
    <contour>
      <point x="1064" y="489" type="line"/>
      <point x="325" y="489" type="line"/>
      <point x="330" y="298"/>
      <point x="435" y="169"/>
      <point x="648" y="169" type="curve" smooth="yes"/>
      <point x="789" y="169"/>
      <point x="911" y="213"/>
      <point x="992" y="266" type="curve"/>
      <point x="1046" y="86" type="line"/>
      <point x="966" y="36"/>
      <point x="867" y="-27"/>
      <point x="624" y="-27" type="curve" smooth="yes"/>
      <point x="304" y="-27"/>
      <point x="74" y="167"/>
      <point x="74" y="544" type="curve" smooth="yes"/>
      <point x="74" y="917"/>
      <point x="304" y="1122"/>
      <point x="612" y="1122" type="curve" smooth="yes"/>
      <point x="927" y="1122"/>
      <point x="1064" y="876"/>
      <point x="1064" y="545" type="curve" smooth="yes"/>
    </contour>
    <contour>
      <point x="847" y="651" type="line"/>
      <point x="841" y="786"/>
      <point x="797" y="941"/>
      <point x="610" y="941" type="curve" smooth="yes"/>
      <point x="439" y="941"/>
      <point x="336" y="795"/>
      <point x="332" y="651" type="curve"/>
    </contour>
  </outline>
</glyph>
<glyph name="f" format="1">
  <advance width="769"/>
  <unicode hex="0066"/>
  <outline>
    <contour>
      <point x="206" y="0" type="line"/>
      <point x="462" y="0" type="line"/>
      <point x="462" y="927" type="line"/>
      <point x="738" y="927" type="line"/>
      <point x="738" y="1103" type="line"/>
      <point x="453" y="1103" type="line"/>
      <point x="453" y="1314"/>
      <point x="494" y="1349"/>
      <point x="630" y="1349" type="curve" smooth="yes"/>
      <point x="689" y="1349"/>
      <point x="769" y="1336"/>
      <point x="769" y="1336" type="curve"/>
      <point x="769" y="1520" type="line"/>
      <point x="711" y="1527"/>
      <point x="658" y="1533"/>
      <point x="580" y="1533" type="curve" smooth="yes"/>
      <point x="296" y="1533"/>
      <point x="206" y="1411"/>
      <point x="206" y="1144" type="curve" smooth="yes"/>
      <point x="206" y="1103" type="line"/>
      <point x="30" y="1103" type="line"/>
      <point x="30" y="927" type="line"/>
      <point x="206" y="927" type="line"/>
    </contour>
  </outline>
</glyph>
<glyph name="g" format="1">
  <advance width="1213"/>
  <unicode hex="0067"/>
  <outline>
    <contour>
      <point x="601" y="-411" type="curve" smooth="yes"/>
      <point x="914" y="-411"/>
      <point x="1095" y="-271"/>
      <point x="1095" y="123" type="curve" smooth="yes"/>
      <point x="1095" y="1103" type="line"/>
      <point x="839" y="1103" type="line"/>
      <point x="839" y="1002" type="line"/>
      <point x="792" y="1081"/>
      <point x="664" y="1125"/>
      <point x="549" y="1125" type="curve" smooth="yes"/>
      <point x="261" y="1125"/>
      <point x="85" y="922"/>
      <point x="85" y="572" type="curve" smooth="yes"/>
      <point x="85" y="178"/>
      <point x="307" y="0"/>
      <point x="574" y="0" type="curve" smooth="yes"/>
      <point x="689" y="0"/>
      <point x="770" y="40"/>
      <point x="847" y="111" type="curve"/>
      <point x="847.0" y="103.305784762"/>
      <point x="846.912160193" y="95.7071145775"/>
      <point x="846.730007534" y="88.20834514" type="curve" smooth="yes"/>
      <point x="842.2720611" y="-95.3141610521"/>
      <point x="781.324379757" y="-219.0"/>
      <point x="569" y="-219" type="curve" smooth="yes"/>
      <point x="468" y="-219"/>
      <point x="296" y="-175"/>
      <point x="225" y="-127" type="curve"/>
      <point x="181" y="-316" type="line"/>
      <point x="283" y="-369"/>
      <point x="441" y="-411"/>
    </contour>
    <contour>
      <point x="622" y="189" type="curve" smooth="yes"/>
      <point x="476" y="189"/>
      <point x="341" y="272"/>
      <point x="341" y="571" type="curve" smooth="yes"/>
      <point x="341" y="854"/>
      <point x="471" y="947"/>
      <point x="606" y="947" type="curve" smooth="yes"/>
      <point x="716" y="947"/>
      <point x="793" y="909"/>
      <point x="839" y="890" type="curve"/>
      <point x="839" y="274" type="line"/>
      <point x="783" y="215"/>
      <point x="689" y="189"/>
    </contour>
    <contour>
      <point x="602" y="1098" type="move" name="top"/>
    </contour>
  </outline>
</glyph>
<glyph name="h" format="1">
  <advance width="1202.0"/>
  <unicode hex="0068"/>
  <outline>
    <contour>
      <point x="122.0" y="0.0" type="line"/>
      <point x="378.0" y="0.0" type="line"/>
      <point x="378.0" y="789.0" type="line" smooth="yes"/>
      <point x="378.0" y="837.0"/>
      <point x="508.0" y="925.0"/>
      <point x="635.0" y="925.0" type="curve" smooth="yes"/>
      <point x="758.0" y="925.0"/>
      <point x="841.0" y="873.0"/>
      <point x="841.0" y="692.0" type="curve" smooth="yes"/>
      <point x="841.0" y="0.0" type="line"/>
      <point x="1097.0" y="0.0" type="line"/>
      <point x="1097.0" y="736.0" type="line" smooth="yes"/>
      <point x="1097.0" y="997.0"/>
      <point x="933.0" y="1126.0"/>
      <point x="756.0" y="1126.0" type="curve" smooth="yes"/>
      <point x="624.103195131" y="1126.0"/>
      <point x="487.004229984" y="1080.66688901"/>
      <point x="410.050563517" y="980.390746588" type="curve" smooth="yes"/>
      <point x="397.738148208" y="964.346787051"/>
      <point x="386.965409696" y="946.896325052"/>
      <point x="378.0" y="928.0" type="curve"/>
      <point x="378.0" y="1575.0" type="line"/>
      <point x="122.0" y="1575.0" type="line"/>
    </contour>
  </outline>
</glyph>
<glyph name="i" format="1">
  <advance width="531"/>
  <unicode hex="0069"/>
  <outline>
    <contour>
      <point x="266" y="1521" type="curve" smooth="yes"/>
      <point x="369" y="1521"/>
      <point x="422" y="1446"/>
      <point x="422" y="1371" type="curve" smooth="yes"/>
      <point x="422" y="1297"/>
      <point x="370" y="1222"/>
      <point x="266" y="1222" type="curve" smooth="yes"/>
      <point x="162" y="1222"/>
      <point x="109" y="1297"/>
      <point x="109" y="1371" type="curve" smooth="yes"/>
      <point x="109" y="1447"/>
      <point x="161" y="1521"/>
    </contour>
    <contour>
      <point x="138" y="0" type="line"/>
      <point x="138" y="1103" type="line"/>
      <point x="394" y="1103" type="line"/>
      <point x="394" y="0" type="line"/>
    </contour>
  </outline>
</glyph>
<glyph name="j" format="1">
  <advance width="603"/>
  <unicode hex="006A"/>
  <outline>
    <contour>
      <point x="125" y="-404" type="curve" smooth="yes"/>
      <point x="370" y="-404"/>
      <point x="463" y="-242"/>
      <point x="463" y="-9" type="curve" smooth="yes"/>
      <point x="463" y="1103" type="line"/>
      <point x="207" y="1103" type="line"/>
      <point x="207" y="19" type="line" smooth="yes"/>
      <point x="207" y="-197"/>
      <point x="139" y="-217"/>
      <point x="31" y="-217" type="curve" smooth="yes"/>
      <point x="-2" y="-217"/>
      <point x="-21" y="-216"/>
      <point x="-60" y="-212" type="curve"/>
      <point x="-60" y="-394" type="line"/>
      <point x="-26" y="-398"/>
      <point x="15" y="-404"/>
    </contour>
    <contour>
      <point x="325" y="1222" type="curve" smooth="yes"/>
      <point x="429" y="1222"/>
      <point x="481" y="1297"/>
      <point x="481" y="1371" type="curve" smooth="yes"/>
      <point x="481" y="1446"/>
      <point x="428" y="1521"/>
      <point x="325" y="1521" type="curve" smooth="yes"/>
      <point x="220" y="1521"/>
      <point x="168" y="1447"/>
      <point x="168" y="1371" type="curve" smooth="yes"/>
      <point x="168" y="1297"/>
      <point x="221" y="1222"/>
    </contour>
  </outline>
</glyph>
<glyph name="k" format="1">
  <advance width="1176"/>
  <unicode hex="006B"/>
  <outline>
    <contour>
      <point x="122" y="0" type="line"/>
      <point x="378" y="0" type="line"/>
      <point x="378" y="399" type="line"/>
      <point x="514" y="516" type="line"/>
      <point x="914" y="0" type="line"/>
      <point x="1138" y="0" type="line"/>
      <point x="1138" y="63" type="line"/>
      <point x="700" y="639" type="line"/>
      <point x="1128" y="1051" type="line"/>
      <point x="1128" y="1098" type="line"/>
      <point x="868" y="1098" type="line"/>
      <point x="379" y="635" type="line"/>
      <point x="378" y="635" type="line"/>
      <point x="378" y="1521" type="line"/>
      <point x="122" y="1521" type="line"/>
    </contour>
    <contour>
      <point x="588" y="0" type="move" name="bottom"/>
    </contour>
  </outline>
</glyph>
<glyph name="l" format="1">
  <advance width="624.036399483"/>
  <unicode hex="006C"/>
  <outline>
    <contour>
      <point x="500" y="-7" type="curve" smooth="yes"/>
      <point x="587" y="-7" type="line"/>
      <point x="587" y="185" type="line"/>
      <point x="443" y="185"/>
      <point x="379" y="183"/>
      <point x="379" y="320" type="curve" smooth="yes"/>
      <point x="379.036399483" y="1520.0" type="line"/>
      <point x="123.036399483" y="1520.0" type="line"/>
      <point x="123" y="370" type="line" smooth="yes"/>
      <point x="123" y="209"/>
      <point x="83" y="-7"/>
    </contour>
  </outline>
</glyph>
<glyph name="m" format="1">
  <advance width="1861.00517648"/>
  <unicode hex="006D"/>
  <outline>
    <contour>
      <point x="1518" y="0" type="line"/>
      <point x="1518" y="662" type="line" smooth="yes"/>
      <point x="1518" y="859"/>
      <point x="1441" y="925"/>
      <point x="1310" y="925" type="curve" smooth="yes"/>
      <point x="1188" y="925"/>
      <point x="1106" y="828"/>
      <point x="1106" y="787" type="curve" smooth="yes"/>
      <point x="1106" y="0" type="line"/>
      <point x="850" y="0" type="line"/>
      <point x="850" y="689" type="line" smooth="yes"/>
      <point x="850" y="865"/>
      <point x="764" y="925"/>
      <point x="643" y="925" type="curve" smooth="yes"/>
      <point x="548" y="925"/>
      <point x="438" y="859"/>
      <point x="438" y="787" type="curve" smooth="yes"/>
      <point x="438" y="0" type="line"/>
      <point x="182" y="0" type="line"/>
      <point x="182" y="1103" type="line"/>
      <point x="438" y="1103" type="line"/>
      <point x="438" y="927" type="line"/>
      <point x="439" y="927"/>
      <point x="454" y="953"/>
      <point x="454" y="954" type="curve" smooth="yes"/>
      <point x="523" y="1078"/>
      <point x="662" y="1126"/>
      <point x="796" y="1126" type="curve" smooth="yes"/>
      <point x="918" y="1126"/>
      <point x="1025" y="1062"/>
      <point x="1083" y="931" type="curve"/>
      <point x="1178" y="1059"/>
      <point x="1312" y="1126"/>
      <point x="1441" y="1126" type="curve" smooth="yes"/>
      <point x="1631" y="1126"/>
      <point x="1775" y="1003"/>
      <point x="1774" y="722" type="curve"/>
      <point x="1774" y="0" type="line"/>
    </contour>
  </outline>
</glyph>
<glyph name="n" format="1">
  <advance width="1202"/>
  <unicode hex="006E"/>
  <outline>
    <contour>
      <point x="122" y="0" type="line"/>
      <point x="378" y="0" type="line"/>
      <point x="378" y="789" type="line" smooth="yes"/>
      <point x="378" y="837"/>
      <point x="508" y="925"/>
      <point x="635" y="925" type="curve" smooth="yes"/>
      <point x="758" y="925"/>
      <point x="841" y="873"/>
      <point x="841" y="692" type="curve" smooth="yes"/>
      <point x="841" y="0" type="line"/>
      <point x="1097" y="0" type="line"/>
      <point x="1097" y="736" type="line" smooth="yes"/>
      <point x="1097" y="997"/>
      <point x="933" y="1126"/>
      <point x="756" y="1126" type="curve" smooth="yes"/>
      <point x="603" y="1126"/>
      <point x="443" y="1065"/>
      <point x="378" y="928" type="curve"/>
      <point x="378" y="1103" type="line"/>
      <point x="122" y="1103" type="line"/>
    </contour>
  </outline>
</glyph>
<glyph name="o" format="1">
  <advance width="1257"/>
  <unicode hex="006F"/>
  <outline>
    <contour>
      <point x="626" y="169" type="curve" smooth="yes"/>
      <point x="447" y="169"/>
      <point x="330" y="284"/>
      <point x="330" y="551" type="curve" smooth="yes"/>
      <point x="330" y="821"/>
      <point x="454" y="933"/>
      <point x="623" y="933" type="curve" smooth="yes"/>
      <point x="807" y="933"/>
      <point x="920" y="823"/>
      <point x="920" y="550" type="curve" smooth="yes"/>
      <point x="920" y="303"/>
      <point x="825" y="169"/>
    </contour>
    <contour>
      <point x="623" y="-24" type="curve" smooth="yes"/>
      <point x="927" y="-24"/>
      <point x="1169" y="152"/>
      <point x="1169" y="552" type="curve" smooth="yes"/>
      <point x="1169" y="954"/>
      <point x="926" y="1126"/>
      <point x="623" y="1126" type="curve" smooth="yes"/>
      <point x="331" y="1126"/>
      <point x="81" y="956"/>
      <point x="81" y="553" type="curve" smooth="yes"/>
      <point x="81" y="151"/>
      <point x="323" y="-24"/>
    </contour>
  </outline>
</glyph>
<glyph name="p" format="1">
  <advance width="1215"/>
  <unicode hex="0070"/>
  <outline>
    <contour>
      <point x="690" y="1122" type="curve" smooth="yes"/>
      <point x="984" y="1122"/>
      <point x="1134" y="885"/>
      <point x="1134" y="548" type="curve" smooth="yes"/>
      <point x="1134" y="171"/>
      <point x="951" y="-28"/>
      <point x="666" y="-28" type="curve" smooth="yes"/>
      <point x="549" y="-28"/>
      <point x="425" y="27"/>
      <point x="378" y="76" type="curve"/>
      <point x="378" y="-414" type="line"/>
      <point x="122" y="-414" type="line"/>
      <point x="122" y="1098" type="line"/>
      <point x="378" y="1098" type="line"/>
      <point x="378" y="986" type="line"/>
      <point x="422" y="1054"/>
      <point x="563" y="1122"/>
    </contour>
    <contour>
      <point x="602" y="930" type="curve" smooth="yes"/>
      <point x="556" y="930"/>
      <point x="437" y="920"/>
      <point x="378" y="869" type="curve"/>
      <point x="378" y="230" type="line"/>
      <point x="463" y="178"/>
      <point x="566" y="165"/>
      <point x="625" y="165" type="curve" smooth="yes"/>
      <point x="815" y="165"/>
      <point x="878" y="351"/>
      <point x="878" y="547" type="curve" smooth="yes"/>
      <point x="878" y="772"/>
      <point x="785" y="930"/>
    </contour>
  </outline>
</glyph>
<glyph name="q" format="1">
  <advance width="1223.0004"/>
  <unicode hex="0071"/>
  <outline>
    <contour>
      <point x="555.0004" y="1122" type="curve" smooth="yes"/>
      <point x="682.0004" y="1122"/>
      <point x="793.0004" y="1074.14"/>
      <point x="845.0004" y="1010" type="curve"/>
      <point x="845.0004" y="1098" type="line"/>
      <point x="1101.0004" y="1098" type="line"/>
      <point x="1101.0004" y="-414" type="line"/>
      <point x="845.0004" y="-414" type="line"/>
      <point x="845.0004" y="109" type="line"/>
      <point x="773.0004" y="14"/>
      <point x="641.0004" y="-24"/>
      <point x="521.0004" y="-24" type="curve" smooth="yes"/>
      <point x="256.0004" y="-24"/>
      <point x="81.0" y="184"/>
      <point x="81.0" y="528" type="curve" smooth="yes"/>
      <point x="81.0" y="895.903"/>
      <point x="258.0004" y="1122"/>
    </contour>
    <contour>
      <point x="602.0004" y="928" type="curve" smooth="yes"/>
      <point x="423.0004" y="928"/>
      <point x="337.0004" y="761.102"/>
      <point x="337.0004" y="531" type="curve" smooth="yes"/>
      <point x="337.0004" y="277"/>
      <point x="471.0004" y="168"/>
      <point x="623.0004" y="168" type="curve" smooth="yes"/>
      <point x="696.0004" y="168"/>
      <point x="805.0004" y="193"/>
      <point x="845.0004" y="228" type="curve"/>
      <point x="845.0004" y="868" type="line"/>
      <point x="779.0004" y="905.846"/>
      <point x="673.0004" y="928"/>
    </contour>
  </outline>
</glyph>
<glyph name="r" format="1">
  <advance width="897"/>
  <unicode hex="0072"/>
  <outline>
    <contour>
      <point x="869" y="850" type="line"/>
      <point x="835" y="865"/>
      <point x="773" y="883"/>
      <point x="710" y="883" type="curve" smooth="yes"/>
      <point x="645" y="883"/>
      <point x="534" y="868"/>
      <point x="485" y="801" type="curve"/>
      <point x="485" y="0" type="line"/>
      <point x="229" y="0" type="line"/>
      <point x="229" y="1103" type="line"/>
      <point x="485" y="1103" type="line"/>
      <point x="485" y="962" type="line"/>
      <point x="486" y="962" type="line"/>
      <point x="548" y="1031"/>
      <point x="666" y="1103"/>
      <point x="801" y="1103" type="curve" smooth="yes"/>
      <point x="839" y="1103"/>
      <point x="883" y="1096"/>
      <point x="910" y="1082" type="curve"/>
    </contour>
  </outline>
</glyph>
<glyph name="s" format="1">
  <advance width="1041"/>
  <unicode hex="0073"/>
  <outline>
    <contour>
      <point x="511" y="-25" type="curve" smooth="yes"/>
      <point x="815" y="-25"/>
      <point x="988" y="107"/>
      <point x="988" y="317" type="curve" smooth="yes"/>
      <point x="988" y="525"/>
      <point x="875" y="609"/>
      <point x="619" y="659" type="curve"/>
      <point x="402" y="706"/>
      <point x="328" y="721"/>
      <point x="328" y="807" type="curve" smooth="yes"/>
      <point x="328" y="889"/>
      <point x="408" y="931"/>
      <point x="516" y="931" type="curve" smooth="yes"/>
      <point x="667" y="931"/>
      <point x="844" y="878"/>
      <point x="891" y="852" type="curve"/>
      <point x="912" y="1039" type="line"/>
      <point x="808" y="1093"/>
      <point x="688" y="1125"/>
      <point x="512" y="1125" type="curve" smooth="yes"/>
      <point x="228" y="1125"/>
      <point x="85" y="994"/>
      <point x="85" y="795" type="curve" smooth="yes"/>
      <point x="85" y="583"/>
      <point x="283" y="513"/>
      <point x="501" y="471" type="curve" smooth="yes"/>
      <point x="733" y="426"/>
      <point x="757" y="392"/>
      <point x="757" y="317" type="curve" smooth="yes"/>
      <point x="757" y="230"/>
      <point x="651" y="178"/>
      <point x="506" y="178" type="curve" smooth="yes"/>
      <point x="318" y="178"/>
      <point x="191" y="243"/>
      <point x="122" y="283" type="curve"/>
      <point x="88" y="75" type="line"/>
      <point x="197" y="11"/>
      <point x="363" y="-25"/>
    </contour>
  </outline>
</glyph>
<glyph name="t" format="1">
  <advance width="856"/>
  <unicode hex="0074"/>
  <outline>
    <contour>
      <point x="520" y="-14" type="curve" smooth="yes"/>
      <point x="637" y="-14"/>
      <point x="681" y="-8"/>
      <point x="752" y="6" type="curve"/>
      <point x="752" y="191" type="line" smooth="yes"/>
      <point x="752" y="190"/>
      <point x="676" y="176"/>
      <point x="583" y="176" type="curve" smooth="yes"/>
      <point x="475" y="176"/>
      <point x="398" y="211"/>
      <point x="398" y="352" type="curve" smooth="yes"/>
      <point x="398" y="927" type="line"/>
      <point x="752" y="927" type="line"/>
      <point x="752" y="1103" type="line"/>
      <point x="398" y="1103" type="line"/>
      <point x="398" y="1442" type="line"/>
      <point x="142" y="1369" type="line"/>
      <point x="142" y="1103" type="line"/>
      <point x="12" y="1103" type="line"/>
      <point x="12" y="927" type="line"/>
      <point x="142" y="927" type="line"/>
      <point x="142" y="349" type="line" smooth="yes"/>
      <point x="142" y="97"/>
      <point x="255" y="-14"/>
    </contour>
    <contour>
      <point x="435" y="549" type="move" name="center"/>
    </contour>
    <contour>
      <point x="435" y="0" type="move" name="bottom"/>
    </contour>
  </outline>
</glyph>
<glyph name="u" format="1">
  <advance width="1196"/>
  <unicode hex="0075"/>
  <outline>
    <contour>
      <point x="463" y="-24" type="curve" smooth="yes"/>
      <point x="616" y="-24"/>
      <point x="746" y="45"/>
      <point x="818" y="154" type="curve"/>
      <point x="818" y="0" type="line"/>
      <point x="1074" y="0" type="line"/>
      <point x="1074" y="1103" type="line"/>
      <point x="818" y="1103" type="line"/>
      <point x="818" y="293" type="line" smooth="yes"/>
      <point x="818" y="245"/>
      <point x="704" y="178"/>
      <point x="577" y="178" type="curve" smooth="yes"/>
      <point x="454" y="178"/>
      <point x="361" y="230"/>
      <point x="361" y="411" type="curve" smooth="yes"/>
      <point x="361" y="1103" type="line"/>
      <point x="105" y="1103" type="line"/>
      <point x="105" y="367" type="line" smooth="yes"/>
      <point x="105" y="106"/>
      <point x="286" y="-24"/>
    </contour>
  </outline>
</glyph>
<glyph name="v" format="1">
  <advance width="1129"/>
  <unicode hex="0076"/>
  <outline>
    <contour>
      <point x="1150.5" y="1098" type="line" smooth="no"/>
      <point x="751.5" y="0" type="line" smooth="no"/>
      <point x="375.5" y="0" type="line" smooth="no"/>
      <point x="-21.5" y="1098" type="line" smooth="no"/>
      <point x="355.5" y="1098" type="line" smooth="no"/>
      <point x="413.5" y="911"/>
      <point x="467.5" y="728"/>
      <point x="524.5" y="542" type="curve" smooth="yes"/>
      <point x="567.5" y="400" type="line" smooth="no"/>
      <point x="569.5" y="400" type="line" smooth="no"/>
      <point x="641.5" y="630"/>
      <point x="709.5" y="865"/>
      <point x="779.5" y="1098" type="curve" smooth="no"/>
    </contour>
  </outline>
</glyph>
<glyph name="w" format="1">
  <advance width="1821"/>
  <unicode hex="0077"/>
  <outline>
    <contour>
      <point x="384" y="0" type="line"/>
      <point x="680" y="0" type="line"/>
      <point x="910" y="809" type="line"/>
      <point x="912" y="809" type="line"/>
      <point x="1139" y="0" type="line"/>
      <point x="1436" y="0" type="line"/>
      <point x="1774" y="1098" type="line"/>
      <point x="1500" y="1098" type="line"/>
      <point x="1319" y="402" type="line"/>
      <point x="1282" y="260" type="line"/>
      <point x="1243" y="404" type="line"/>
      <point x="1055" y="1098" type="line"/>
      <point x="776" y="1098" type="line"/>
      <point x="589" y="400" type="line"/>
      <point x="549" y="252" type="line"/>
      <point x="548" y="252" type="line"/>
      <point x="508" y="404" type="line"/>
      <point x="328" y="1098" type="line"/>
      <point x="48" y="1098" type="line"/>
    </contour>
    <contour>
      <point x="911" y="1098" type="move" name="top"/>
    </contour>
  </outline>
</glyph>
<glyph name="x" format="1">
  <advance width="1208"/>
  <unicode hex="0078"/>
  <outline>
    <contour>
      <point x="906" y="0" type="line"/>
      <point x="1191" y="0" type="line"/>
      <point x="753" y="549" type="line"/>
      <point x="1191" y="1098" type="line"/>
      <point x="905" y="1098" type="line"/>
      <point x="670" y="796" type="line"/>
      <point x="610" y="719" type="line"/>
      <point x="544" y="805" type="line"/>
      <point x="316" y="1098" type="line"/>
      <point x="27" y="1098" type="line"/>
      <point x="466" y="549" type="line"/>
      <point x="27" y="0" type="line"/>
      <point x="315" y="0" type="line"/>
      <point x="555" y="310" type="line"/>
      <point x="610" y="382" type="line"/>
      <point x="667" y="309" type="line"/>
    </contour>
  </outline>
</glyph>
<glyph name="y" format="1">
  <advance width="1123"/>
  <unicode hex="0079"/>
  <outline>
    <contour>
      <point x="191" y="-416" type="line"/>
      <point x="257" y="-288"/>
      <point x="319" y="-146"/>
      <point x="379" y="26" type="curve"/>
      <point x="-25" y="1098" type="line"/>
      <point x="352" y="1098" type="line"/>
      <point x="571" y="421" type="line"/>
      <point x="777" y="1098" type="line"/>
      <point x="1148" y="1098" type="line"/>
      <point x="707" y="-109" type="line" smooth="yes"/>
      <point x="656" y="-248"/>
      <point x="569" y="-417"/>
      <point x="568" y="-416" type="curve"/>
    </contour>
  </outline>
</glyph>
<glyph name="z" format="1">
  <advance width="1063"/>
  <unicode hex="007A"/>
  <outline>
    <contour>
      <point x="85" y="0" type="line"/>
      <point x="978" y="0" type="line"/>
      <point x="978" y="172" type="line"/>
      <point x="338" y="172" type="line"/>
      <point x="971" y="917" type="line"/>
      <point x="971" y="1098" type="line"/>
      <point x="113" y="1098" type="line"/>
      <point x="113" y="927" type="line"/>
      <point x="708" y="927" type="line"/>
      <point x="85" y="194" type="line"/>
    </contour>
    <contour>
      <point x="532" y="1098" type="move" name="top"/>
    </contour>
  </outline>
</glyph>
<glyph name="braceleft" format="1">
  <advance width="1079"/>
  <unicode hex="007B"/>
  <outline>
    <contour>
      <point x="950" y="-275" type="curve" smooth="yes"/>
      <point x="996" y="-275" type="line"/>
      <point x="996" y="-84" type="line"/>
      <point x="850" y="-84" type="line" smooth="yes"/>
      <point x="669" y="-84"/>
      <point x="675" y="-39"/>
      <point x="675" y="200" type="curve" smooth="yes"/>
      <point x="675" y="281" type="line" smooth="yes"/>
      <point x="675" y="491"/>
      <point x="548" y="600"/>
      <point x="405" y="645" type="curve"/>
      <point x="405" y="655" type="line"/>
      <point x="579" y="710"/>
      <point x="675" y="827"/>
      <point x="675" y="1072" type="curve" smooth="yes"/>
      <point x="675" y="1131" type="line" smooth="yes"/>
      <point x="675" y="1334"/>
      <point x="684" y="1383"/>
      <point x="858" y="1383" type="curve" smooth="yes"/>
      <point x="996" y="1383" type="line"/>
      <point x="996" y="1575" type="line"/>
      <point x="882" y="1575" type="line" smooth="yes"/>
      <point x="602" y="1575"/>
      <point x="433" y="1535"/>
      <point x="433" y="1246" type="curve" smooth="yes"/>
      <point x="433" y="1065" type="line" smooth="yes"/>
      <point x="433" y="836"/>
      <point x="341" y="763"/>
      <point x="95" y="763" type="curve"/>
      <point x="95" y="537" type="line"/>
      <point x="340" y="537"/>
      <point x="433" y="455"/>
      <point x="433" y="234" type="curve" smooth="yes"/>
      <point x="433" y="96" type="line" smooth="yes"/>
      <point x="433" y="-244"/>
      <point x="605" y="-275"/>
    </contour>
  </outline>
</glyph>
<glyph name="bar" format="1">
  <advance width="1169"/>
  <unicode hex="007c"/>
  <outline>
    <contour>
      <point x="724" y="-433" type="line" smooth="no"/>
      <point x="444" y="-433" type="line" smooth="no"/>
      <point x="444" y="1549" type="line" smooth="no"/>
      <point x="724" y="1549" type="line" smooth="no"/>
    </contour>
  </outline>
</glyph>
<glyph name="braceright" format="1">
  <advance width="1079"/>
  <unicode hex="007D"/>
  <outline>
    <contour>
      <point x="726" y="1045" type="line" smooth="yes"/>
      <point x="726" y="810.865"/>
      <point x="809.285" y="711"/>
      <point x="1064" y="711" type="curve"/>
      <point x="1064" y="485" type="line"/>
      <point x="735.896" y="485"/>
      <point x="721.496" y="360.784"/>
      <point x="726" y="16" type="curve" smooth="yes"/>
      <point x="729.93" y="-284.812"/>
      <point x="530.268" y="-329.603"/>
      <point x="253" y="-327" type="curve"/>
      <point x="82" y="-327" type="line"/>
      <point x="82" y="-115" type="line"/>
      <point x="328" y="-115"/>
      <point x="405" y="-110"/>
      <point x="405" y="148" type="curve" smooth="yes"/>
      <point x="405" y="225" type="line" smooth="yes"/>
      <point x="405" y="436"/>
      <point x="530" y="543"/>
      <point x="673" y="589" type="curve"/>
      <point x="673" y="607" type="line"/>
      <point x="529" y="653"/>
      <point x="405" y="755"/>
      <point x="405" y="972" type="curve" smooth="yes"/>
      <point x="405" y="1040" type="line" smooth="yes"/>
      <point x="405" y="1327.41"/>
      <point x="309.583" y="1312"/>
      <point x="82" y="1312" type="curve"/>
      <point x="82" y="1523" type="line"/>
      <point x="172" y="1523"/>
      <point x="261" y="1524"/>
      <point x="353" y="1525" type="curve" smooth="yes"/>
      <point x="608" y="1528"/>
      <point x="726" y="1395"/>
      <point x="726" y="1138" type="curve" smooth="yes"/>
    </contour>
  </outline>
</glyph>
<glyph name="asciitilde" format="1">
  <advance width="1589"/>
  <unicode hex="007E"/>
  <outline>
    <contour>
      <point x="356" y="326" type="line"/>
      <point x="379.221" y="520.326"/>
      <point x="425.022" y="632.644"/>
      <point x="516.826" y="632.644" type="curve" smooth="yes"/>
      <point x="632.231" y="632.644"/>
      <point x="801.787" y="329"/>
      <point x="1073" y="329" type="curve" smooth="yes"/>
      <point x="1315" y="329"/>
      <point x="1451" y="506"/>
      <point x="1467" y="851" type="curve"/>
      <point x="1236" y="898" type="line"/>
      <point x="1214" y="740"/>
      <point x="1211" y="584"/>
      <point x="1070" y="584" type="curve" smooth="yes"/>
      <point x="867.172" y="584"/>
      <point x="726.999" y="896"/>
      <point x="511" y="896" type="curve" smooth="yes"/>
      <point x="283" y="896"/>
      <point x="143" y="725"/>
      <point x="127" y="372" type="curve"/>
    </contour>
  </outline>
</glyph>
<glyph name="exclamdown" format="1">
  <advance width="639"/>
  <unicode hex="00A1"/>
  <outline>
    <contour>
      <point x="496" y="-143" type="line"/>
      <point x="112" y="-143" type="line"/>
      <point x="141" y="929" type="line"/>
      <point x="468" y="929" type="line"/>
    </contour>
    <contour>
      <point x="519" y="1077" type="curve"/>
      <point x="444" y="1079"/>
      <point x="370" y="1080"/>
      <point x="296" y="1080" type="curve" smooth="yes"/>
      <point x="238" y="1080"/>
      <point x="182" y="1080"/>
      <point x="122" y="1077" type="curve"/>
      <point x="122" y="1339" type="line"/>
      <point x="197" y="1337"/>
      <point x="270" y="1337"/>
      <point x="343" y="1337" type="curve" smooth="yes"/>
      <point x="398" y="1337" type="line" smooth="yes"/>
      <point x="439" y="1337"/>
      <point x="478" y="1338"/>
      <point x="520" y="1338" type="curve"/>
      <point x="519" y="1250"/>
      <point x="519" y="1164"/>
    </contour>
  </outline>
</glyph>
<glyph name="cent" format="1">
  <advance width="1245"/>
  <unicode hex="00A2"/>
  <outline>
    <contour>
      <point x="604" y="-309" type="line"/>
      <point x="758" y="-309" type="line"/>
      <point x="758" y="1390" type="line"/>
      <point x="604" y="1390" type="line"/>
    </contour>
    <component base="c"/>
  </outline>
</glyph>
<glyph name="sterling" format="1">
  <advance width="1245"/>
  <unicode hex="00A3"/>
  <outline>
    <contour>
      <point x="892" y="-28" type="curve" smooth="yes"/>
      <point x="1004" y="-28"/>
      <point x="1139" y="5"/>
      <point x="1254" y="35" type="curve"/>
      <point x="1203" y="215" type="line"/>
      <point x="1104" y="196"/>
      <point x="947" y="174"/>
      <point x="849" y="174" type="curve" smooth="yes"/>
      <point x="754" y="174"/>
      <point x="625" y="198"/>
      <point x="532" y="200" type="curve"/>
      <point x="591" y="304"/>
      <point x="636" y="501"/>
      <point x="636" y="607" type="curve" smooth="yes"/>
      <point x="636" y="619"/>
      <point x="632" y="659"/>
      <point x="631" y="670" type="curve"/>
      <point x="1049" y="670" type="line"/>
      <point x="1049" y="862" type="line"/>
      <point x="610" y="862" type="line"/>
      <point x="595" y="931"/>
      <point x="542" y="1067"/>
      <point x="542" y="1146" type="curve" smooth="yes"/>
      <point x="542" y="1290"/>
      <point x="614.454438411" y="1407.0"/>
      <point x="805" y="1407" type="curve" smooth="yes"/>
      <point x="904" y="1407"/>
      <point x="1024" y="1379"/>
      <point x="1096" y="1278" type="curve"/>
      <point x="1169" y="1278" type="line"/>
      <point x="1157" y="1490" type="line"/>
      <point x="1096" y="1550"/>
      <point x="934" y="1599"/>
      <point x="775" y="1599" type="curve" smooth="yes"/>
      <point x="462" y="1599"/>
      <point x="261" y="1445"/>
      <point x="261" y="1203" type="curve" smooth="yes"/>
      <point x="261.0" y="1104.35713353"/>
      <point x="301" y="988"/>
      <point x="327" y="862" type="curve"/>
      <point x="118" y="862" type="line"/>
      <point x="118" y="670" type="line"/>
      <point x="367" y="670" type="line"/>
      <point x="369" y="656"/>
      <point x="376" y="589"/>
      <point x="376" y="573" type="curve" smooth="yes"/>
      <point x="376" y="432"/>
      <point x="326" y="289"/>
      <point x="289" y="195" type="curve"/>
      <point x="248" y="187"/>
      <point x="177" y="181"/>
      <point x="108" y="175" type="curve"/>
      <point x="108" y="-13" type="line"/>
      <point x="186" y="-2"/>
      <point x="262" y="12"/>
      <point x="335" y="12" type="curve" smooth="yes"/>
      <point x="507" y="12"/>
      <point x="724" y="-28"/>
    </contour>
  </outline>
</glyph>
<glyph name="currency" format="1">
  <advance width="984"/>
  <unicode hex="00A4"/>
  <outline>
    <contour>
      <point x="139" y="268" type="line"/>
      <point x="240" y="369" type="line"/>
      <point x="297" y="326"/>
      <point x="394" y="289"/>
      <point x="495" y="289" type="curve" smooth="yes"/>
      <point x="595" y="289"/>
      <point x="685" y="322"/>
      <point x="746" y="369" type="curve"/>
      <point x="847" y="268" type="line"/>
      <point x="953" y="375" type="line"/>
      <point x="855" y="475" type="line"/>
      <point x="900" y="532"/>
      <point x="935" y="628"/>
      <point x="935" y="730" type="curve" smooth="yes"/>
      <point x="935" y="830"/>
      <point x="900" y="926"/>
      <point x="855" y="985" type="curve"/>
      <point x="953" y="1085" type="line"/>
      <point x="847" y="1190" type="line"/>
      <point x="746" y="1094" type="line"/>
      <point x="685" y="1139"/>
      <point x="595" y="1171"/>
      <point x="495" y="1171" type="curve" smooth="yes"/>
      <point x="394" y="1171"/>
      <point x="297" y="1137"/>
      <point x="240" y="1092" type="curve"/>
      <point x="139" y="1190" type="line"/>
      <point x="31" y="1085" type="line"/>
      <point x="131" y="985" type="line"/>
      <point x="84" y="926"/>
      <point x="53" y="830"/>
      <point x="53" y="730" type="curve" smooth="yes"/>
      <point x="53" y="630"/>
      <point x="86" y="532"/>
      <point x="131" y="477" type="curve"/>
      <point x="31" y="375" type="line"/>
    </contour>
    <contour>
      <point x="495" y="436" type="curve" smooth="yes"/>
      <point x="327" y="436"/>
      <point x="213" y="549"/>
      <point x="213" y="730" type="curve" smooth="yes"/>
      <point x="213" y="911"/>
      <point x="327" y="1024"/>
      <point x="495" y="1024" type="curve" smooth="yes"/>
      <point x="663" y="1024"/>
      <point x="775" y="911"/>
      <point x="775" y="730" type="curve" smooth="yes"/>
      <point x="775" y="549"/>
      <point x="663" y="436"/>
    </contour>
  </outline>
</glyph>
<glyph name="yen" format="1">
  <advance width="1245"/>
  <unicode hex="00a5"/>
  <outline>
    <contour>
      <point x="490" y="0" type="line" smooth="no"/>
      <point x="746" y="0" type="line" smooth="no"/>
      <point x="746" y="395" type="line" smooth="no"/>
      <point x="1154" y="395" type="line" smooth="no"/>
      <point x="1154" y="544" type="line" smooth="no"/>
      <point x="746" y="544" type="line" smooth="no"/>
      <point x="746" y="695" type="line" smooth="no"/>
      <point x="1154" y="695" type="line" smooth="no"/>
      <point x="1154" y="830" type="line" smooth="no"/>
      <point x="830.832" y="830" type="line" smooth="no"/>
      <point x="1371" y="1575" type="line" smooth="no"/>
      <point x="1081" y="1575" type="line" smooth="no"/>
      <point x="626" y="907" type="line" smooth="no"/>
      <point x="167" y="1575" type="line" smooth="no"/>
      <point x="-126" y="1575" type="line" smooth="no"/>
      <point x="398.48" y="830" type="line" smooth="no"/>
      <point x="35" y="830" type="line" smooth="no"/>
      <point x="35" y="695" type="line" smooth="no"/>
      <point x="490" y="695" type="line" smooth="no"/>
      <point x="490" y="544" type="line" smooth="no"/>
      <point x="35" y="544" type="line" smooth="no"/>
      <point x="35" y="395" type="line" smooth="no"/>
      <point x="490" y="395" type="line" smooth="no"/>
    </contour>
  </outline>
</glyph>
<glyph name="brokenbar" format="1">
  <advance width="455"/>
  <unicode hex="00A6"/>
  <outline>
    <contour>
      <point x="147" y="-358" type="line"/>
      <point x="307" y="-358" type="line"/>
      <point x="307" y="358" type="line"/>
      <point x="147" y="358" type="line"/>
    </contour>
    <contour>
      <point x="147" y="666" type="line"/>
      <point x="307" y="666" type="line"/>
      <point x="307" y="1382" type="line"/>
      <point x="147" y="1382" type="line"/>
    </contour>
  </outline>
</glyph>
<glyph name="section" format="1">
  <advance width="1249"/>
  <unicode hex="00a7"/>
  <outline>
    <contour>
      <point x="568" y="748" type="curve" smooth="no"/>
      <point x="494" y="724"/>
      <point x="449" y="660"/>
      <point x="449" y="568" type="curve" smooth="yes"/>
      <point x="449" y="483"/>
      <point x="524" y="402"/>
      <point x="689" y="372" type="curve" smooth="no"/>
      <point x="771.39" y="393.324"/>
      <point x="817.138" y="475.718"/>
      <point x="817.138" y="580.022" type="curve" smooth="yes"/>
      <point x="817.138" y="652.336"/>
      <point x="706.797" y="718.911"/>
    </contour>
    <contour>
      <point x="667.439" y="1221.07" type="curve" smooth="yes"/>
      <point x="596.511" y="1221.07"/>
      <point x="535" y="1193.82"/>
      <point x="535" y="1138" type="curve" smooth="yes"/>
      <point x="535" y="1041"/>
      <point x="634" y="1041"/>
      <point x="865" y="953" type="curve" smooth="no"/>
      <point x="1060" y="880"/>
      <point x="1169" y="777"/>
      <point x="1169" y="589" type="curve" smooth="yes"/>
      <point x="1169" y="447"/>
      <point x="1110" y="345"/>
      <point x="963" y="260" type="curve" smooth="no"/>
      <point x="1034.67" y="228.33"/>
      <point x="1136.06" y="132.483"/>
      <point x="1136.06" y="-14.5928" type="curve" smooth="yes"/>
      <point x="1136.06" y="-249.208"/>
      <point x="909.095" y="-401"/>
      <point x="584" y="-401" type="curve" smooth="yes"/>
      <point x="457" y="-401"/>
      <point x="230" y="-358"/>
      <point x="162" y="-302" type="curve" smooth="no"/>
      <point x="162" y="-23" type="line" smooth="no"/>
      <point x="189" y="-23"/>
      <point x="209" y="-23"/>
      <point x="237" y="-22" type="curve" smooth="no"/>
      <point x="276.515" y="-70.6338"/>
      <point x="467.993" y="-136.614"/>
      <point x="584.062" y="-136.614" type="curve" smooth="yes"/>
      <point x="674.128" y="-136.614"/>
      <point x="725" y="-92.8239"/>
      <point x="725" y="-24" type="curve" smooth="yes"/>
      <point x="725" y="69"/>
      <point x="630" y="90"/>
      <point x="491" y="142" type="curve" smooth="yes"/>
      <point x="262" y="228"/>
      <point x="87" y="295"/>
      <point x="87" y="529" type="curve" smooth="yes"/>
      <point x="87" y="681"/>
      <point x="147" y="780"/>
      <point x="299" y="864" type="curve" smooth="no"/>
      <point x="174.156" y="934.923"/>
      <point x="129" y="1022.9"/>
      <point x="129" y="1145" type="curve" smooth="yes"/>
      <point x="129" y="1337"/>
      <point x="341" y="1502"/>
      <point x="665" y="1502" type="curve" smooth="yes"/>
      <point x="804" y="1502"/>
      <point x="990" y="1467"/>
      <point x="1076" y="1410" type="curve" smooth="no"/>
      <point x="1076" y="1131" type="line" smooth="no"/>
      <point x="1059" y="1130"/>
      <point x="1051" y="1130"/>
      <point x="1034" y="1130" type="curve" smooth="no"/>
      <point x="966.242" y="1163.13"/>
      <point x="784.602" y="1221.07"/>
    </contour>
  </outline>
</glyph>
<glyph name="dieresis" format="1">
  <advance width="888"/>
  <unicode hex="00A8"/>
  <outline>
    <contour>
      <point x="699" y="1246" type="line"/>
      <point x="647" y="1248"/>
      <point x="597" y="1250"/>
      <point x="547" y="1250" type="curve" smooth="yes"/>
      <point x="526" y="1250"/>
      <point x="505" y="1250"/>
      <point x="483" y="1249" type="curve"/>
      <point x="483" y="1246" type="line"/>
      <point x="468" y="1247"/>
      <point x="454" y="1248"/>
      <point x="440" y="1248" type="curve" smooth="yes"/>
      <point x="427" y="1248"/>
      <point x="413" y="1247"/>
      <point x="399" y="1246" type="curve"/>
      <point x="399" y="1249" type="line"/>
      <point x="374" y="1250"/>
      <point x="349" y="1250"/>
      <point x="324" y="1250" type="curve" smooth="yes"/>
      <point x="277" y="1250"/>
      <point x="232" y="1249"/>
      <point x="184" y="1246" type="curve"/>
      <point x="184" y="1527" type="line"/>
      <point x="238" y="1525"/>
      <point x="291" y="1524"/>
      <point x="343" y="1524" type="curve" smooth="yes"/>
      <point x="394" y="1524" type="line"/>
      <point x="399" y="1524" type="line"/>
      <point x="399" y="1527" type="line"/>
      <point x="425" y="1526"/>
      <point x="450" y="1525"/>
      <point x="475" y="1525" type="curve" smooth="yes"/>
      <point x="485" y="1525" type="line"/>
      <point x="485" y="1525" type="line" smooth="yes"/>
      <point x="506" y="1525"/>
      <point x="526" y="1524"/>
      <point x="546" y="1524" type="curve" smooth="yes"/>
      <point x="599" y="1524"/>
      <point x="648" y="1524"/>
      <point x="699" y="1525" type="curve"/>
    </contour>
  </outline>
</glyph>
<glyph name="copyright" format="1">
  <advance width="1847"/>
  <unicode hex="00A9"/>
  <outline>
    <contour>
      <point x="953" y="237" type="curve" smooth="yes"/>
      <point x="1063" y="237"/>
      <point x="1171" y="270"/>
      <point x="1250" y="327" type="curve"/>
      <point x="1201" y="426" type="line"/>
      <point x="1201" y="426"/>
      <point x="1096" y="350"/>
      <point x="966" y="350" type="curve" smooth="yes"/>
      <point x="787" y="350"/>
      <point x="652" y="468"/>
      <point x="652" y="685" type="curve" smooth="yes"/>
      <point x="652" y="904"/>
      <point x="797" y="1018"/>
      <point x="949" y="1018" type="curve" smooth="yes"/>
      <point x="1063" y="1018"/>
      <point x="1120" y="982"/>
      <point x="1199" y="935" type="curve"/>
      <point x="1243" y="1030" type="line"/>
      <point x="1155" y="1094"/>
      <point x="1052" y="1131"/>
      <point x="937" y="1131" type="curve" smooth="yes"/>
      <point x="681" y="1131"/>
      <point x="500" y="958"/>
      <point x="500" y="686" type="curve" smooth="yes"/>
      <point x="500" y="371"/>
      <point x="728" y="237"/>
    </contour>
    <contour>
      <point x="924" y="-1" type="curve" smooth="yes"/>
      <point x="557" y="-1"/>
      <point x="224" y="280"/>
      <point x="224" y="681" type="curve" smooth="yes"/>
      <point x="224" y="1066"/>
      <point x="541" y="1362"/>
      <point x="924" y="1362" type="curve" smooth="yes"/>
      <point x="1293" y="1362"/>
      <point x="1625" y="1080"/>
      <point x="1625" y="681" type="curve" smooth="yes"/>
      <point x="1625" y="287"/>
      <point x="1299" y="-1"/>
    </contour>
    <contour>
      <point x="924" y="-130" type="curve" smooth="yes"/>
      <point x="1391" y="-130"/>
      <point x="1771" y="236"/>
      <point x="1771" y="681" type="curve" smooth="yes"/>
      <point x="1771" y="1131"/>
      <point x="1379" y="1491"/>
      <point x="924" y="1491" type="curve" smooth="yes"/>
      <point x="457" y="1491"/>
      <point x="77" y="1125"/>
      <point x="77" y="681" type="curve" smooth="yes"/>
      <point x="77" y="211"/>
      <point x="475" y="-130"/>
    </contour>
  </outline>
</glyph>
<glyph name="ordfeminine" format="1">
  <advance width="930"/>
  <unicode hex="00AA"/>
  <outline>
    <contour>
      <point x="298.686" y="677.702" type="curve" smooth="yes"/>
      <point x="395.86" y="677.702"/>
      <point x="496.727" y="713.992"/>
      <point x="558" y="775" type="curve"/>
      <point x="560" y="775" type="line"/>
      <point x="560" y="693" type="line"/>
      <point x="838" y="693" type="line"/>
      <point x="838" y="1234" type="line" smooth="yes"/>
      <point x="838" y="1434"/>
      <point x="687" y="1503"/>
      <point x="409" y="1503" type="curve" smooth="yes"/>
      <point x="280" y="1503"/>
      <point x="149" y="1477"/>
      <point x="97" y="1442" type="curve"/>
      <point x="135" y="1258" type="line"/>
      <point x="140" y="1269"/>
      <point x="252" y="1317"/>
      <point x="361" y="1317" type="curve" smooth="yes"/>
      <point x="495" y="1317"/>
      <point x="560" y="1292"/>
      <point x="560" y="1208" type="curve"/>
      <point x="284.866" y="1178.73"/>
      <point x="31" y="1169.18"/>
      <point x="31" y="916" type="curve" smooth="yes"/>
      <point x="31" y="746.746"/>
      <point x="161.144" y="677.702"/>
    </contour>
    <contour>
      <point x="419.016" y="855.963" type="curve" smooth="yes"/>
      <point x="363.21" y="855.963"/>
      <point x="313" y="880.081"/>
      <point x="313" y="940" type="curve" smooth="yes"/>
      <point x="313" y="1030"/>
      <point x="431" y="1031"/>
      <point x="560" y="1039" type="curve"/>
      <point x="560" y="919" type="line"/>
      <point x="538.861" y="881.126"/>
      <point x="476.019" y="855.963"/>
    </contour>
  </outline>
</glyph>
<glyph name="guillemotleft" format="1">
  <advance width="1373"/>
  <unicode hex="00AB"/>
  <outline>
    <contour>
      <point x="664" y="158" type="line"/>
      <point x="435" y="340" type="line"/>
      <point x="337" y="422"/>
      <point x="237" y="505"/>
      <point x="139" y="587" type="curve"/>
      <point x="156" y="665" type="line"/>
      <point x="654" y="1079" type="line"/>
      <point x="664" y="871" type="line"/>
      <point x="353" y="618" type="line"/>
      <point x="659" y="371" type="line"/>
    </contour>
    <contour>
      <point x="1114" y="172" type="line"/>
      <point x="937" y="304"/>
      <point x="770" y="448"/>
      <point x="600" y="588" type="curve"/>
      <point x="617" y="664" type="line"/>
      <point x="613" y="662"/>
      <point x="610" y="659"/>
      <point x="607" y="657" type="curve" smooth="yes"/>
      <point x="1103" y="1066" type="line"/>
      <point x="1114" y="862" type="line"/>
      <point x="809" y="618" type="line"/>
      <point x="1108" y="380" type="line"/>
    </contour>
  </outline>
</glyph>
<glyph name="logicalnot" format="1">
  <advance width="1589"/>
  <unicode hex="00ac"/>
  <outline>
    <contour>
      <point x="1422" y="105" type="line" smooth="no"/>
      <point x="1147" y="105" type="line" smooth="no"/>
      <point x="1147" y="577" type="line" smooth="no"/>
      <point x="161" y="577" type="line" smooth="no"/>
      <point x="161" y="827" type="line" smooth="no"/>
      <point x="1422" y="827" type="line" smooth="no"/>
    </contour>
  </outline>
</glyph>
<glyph name="uni00AD" format="1">
  <advance width="834"/>
  <unicode hex="00AD"/>
  <outline>
    <contour>
      <point x="109" y="463" type="line"/>
      <point x="725" y="463" type="line"/>
      <point x="725" y="672" type="line"/>
      <point x="109" y="672" type="line"/>
    </contour>
  </outline>
</glyph>
<glyph name="uni00AD" format="1">
  <advance width="834"/>
  <unicode hex="00AD"/>
  <outline>
    <contour>
      <point x="109" y="463" type="line"/>
      <point x="725" y="463" type="line"/>
      <point x="725" y="672" type="line"/>
      <point x="109" y="672" type="line"/>
    </contour>
  </outline>
</glyph>
<glyph name="registered" format="1">
  <advance width="1847"/>
  <unicode hex="00AE"/>
  <outline>
    <contour>
      <point x="924" y="-142" type="curve" smooth="yes"/>
      <point x="469" y="-142"/>
      <point x="65" y="204"/>
      <point x="65" y="681" type="curve" smooth="yes"/>
      <point x="65" y="1132"/>
      <point x="451" y="1503"/>
      <point x="924" y="1503" type="curve" smooth="yes"/>
      <point x="1385" y="1503"/>
      <point x="1783" y="1138"/>
      <point x="1783" y="681" type="curve" smooth="yes"/>
      <point x="1783" y="229"/>
      <point x="1397" y="-142"/>
    </contour>
    <contour>
      <point x="1573" y="681" type="curve" smooth="yes"/>
      <point x="1573" y="1049"/>
      <point x="1266" y="1310"/>
      <point x="924" y="1310" type="curve" smooth="yes"/>
      <point x="569" y="1310"/>
      <point x="276" y="1036"/>
      <point x="276" y="681" type="curve" smooth="yes"/>
      <point x="276" y="311"/>
      <point x="584" y="51"/>
      <point x="924" y="51" type="curve" smooth="yes"/>
      <point x="1272" y="51"/>
      <point x="1573" y="317"/>
    </contour>
    <contour>
      <point x="1141" y="274" type="curve"/>
      <point x="1095" y="262"/>
      <point x="1017" y="231"/>
      <point x="925" y="234" type="curve"/>
      <point x="691" y="251"/>
      <point x="501" y="407"/>
      <point x="501" y="686" type="curve" smooth="yes"/>
      <point x="501" y="964"/>
      <point x="695" y="1143"/>
      <point x="957" y="1143" type="curve" smooth="yes"/>
      <point x="1065" y="1143"/>
      <point x="1164" y="1109"/>
      <point x="1244" y="1054" type="curve"/>
      <point x="1262" y="990"/>
      <point x="1273" y="919"/>
      <point x="1277" y="842" type="curve"/>
      <point x="1256" y="841"/>
      <point x="1234" y="841"/>
      <point x="1213" y="841" type="curve"/>
      <point x="1182" y="896"/>
      <point x="1095" y="972"/>
      <point x="970" y="972" type="curve" smooth="yes"/>
      <point x="820" y="972"/>
      <point x="738" y="859"/>
      <point x="738" y="686" type="curve" smooth="yes"/>
      <point x="738" y="517"/>
      <point x="829" y="400"/>
      <point x="971" y="400" type="curve" smooth="yes"/>
      <point x="1107" y="400"/>
      <point x="1198" y="485"/>
      <point x="1213" y="535" type="curve"/>
      <point x="1277" y="535" type="line"/>
      <point x="1263" y="411"/>
      <point x="1210" y="319"/>
    </contour>
  </outline>
</glyph>
<glyph name="macron" format="1">
  <advance width="492"/>
  <unicode hex="00AF"/>
  <outline>
    <contour>
      <point x="-49" y="1243" type="line"/>
      <point x="541" y="1243" type="line"/>
      <point x="541" y="1378" type="line"/>
      <point x="-49" y="1378" type="line"/>
    </contour>
    <contour>
      <point x="246" y="1098" type="move" name="_top"/>
    </contour>
  </outline>
</glyph>
<glyph name="degree" format="1">
  <advance width="1012"/>
  <unicode hex="00B0"/>
  <outline>
    <contour>
      <point x="507" y="922" type="curve" smooth="yes"/>
      <point x="385" y="922"/>
      <point x="285" y="1016"/>
      <point x="285" y="1138" type="curve" smooth="yes"/>
      <point x="285" y="1255"/>
      <point x="384" y="1354"/>
      <point x="507" y="1354" type="curve" smooth="yes"/>
      <point x="630" y="1354"/>
      <point x="728" y="1255"/>
      <point x="728" y="1138" type="curve" smooth="yes"/>
      <point x="728" y="1019"/>
      <point x="631" y="922"/>
    </contour>
    <contour>
      <point x="507" y="809" type="curve" smooth="yes"/>
      <point x="699" y="809"/>
      <point x="855" y="954"/>
      <point x="855" y="1138" type="curve" smooth="yes"/>
      <point x="855" y="1321"/>
      <point x="699" y="1466"/>
      <point x="507" y="1466" type="curve" smooth="yes"/>
      <point x="317" y="1466"/>
      <point x="159" y="1322"/>
      <point x="159" y="1138" type="curve" smooth="yes"/>
      <point x="159" y="955"/>
      <point x="315" y="809"/>
    </contour>
  </outline>
</glyph>
<glyph name="plusminus" format="1">
  <advance width="1589"/>
  <unicode hex="00B1"/>
  <outline>
    <contour>
      <point x="619" y="298" type="line"/>
      <point x="814" y="298" type="line"/>
      <point x="814" y="653" type="line"/>
      <point x="1235" y="653" type="line"/>
      <point x="1235" y="840" type="line"/>
      <point x="814" y="840" type="line"/>
      <point x="814" y="1197" type="line"/>
      <point x="619" y="1197" type="line"/>
      <point x="619" y="840" type="line"/>
      <point x="199" y="840" type="line"/>
      <point x="199" y="653" type="line"/>
      <point x="619" y="653" type="line"/>
    </contour>
    <contour>
      <point x="196" y="0" type="line"/>
      <point x="1234" y="0" type="line"/>
      <point x="1234" y="187" type="line"/>
      <point x="196" y="187" type="line"/>
    </contour>
  </outline>
</glyph>
<glyph name="two.superior" format="1">
  <advance width="639"/>
  <unicode hex="00B2"/>
  <outline>
    <contour>
      <point x="31" y="588" type="line"/>
      <point x="31" y="735" type="line"/>
      <point x="391" y="1120" type="line" smooth="yes"/>
      <point x="420" y="1151"/>
      <point x="436" y="1180"/>
      <point x="436" y="1219" type="curve" smooth="yes"/>
      <point x="436" y="1280"/>
      <point x="393" y="1323"/>
      <point x="324" y="1323" type="curve" smooth="yes"/>
      <point x="254" y="1323"/>
      <point x="215" y="1274"/>
      <point x="209" y="1196" type="curve"/>
      <point x="37" y="1196" type="line"/>
      <point x="37" y="1360"/>
      <point x="158" y="1470"/>
      <point x="317" y="1470" type="curve" smooth="yes"/>
      <point x="489" y="1470"/>
      <point x="608" y="1358"/>
      <point x="608" y="1219" type="curve" smooth="yes"/>
      <point x="608" y="1161"/>
      <point x="594" y="1110"/>
      <point x="543" y="1055" type="curve" smooth="yes"/>
      <point x="240" y="735" type="line"/>
      <point x="608" y="735" type="line"/>
      <point x="608" y="588" type="line"/>
    </contour>
  </outline>
</glyph>
<glyph name="acute" format="1">
  <advance width="897"/>
  <unicode hex="00b4"/>
  <outline>
    <contour>
      <point x="779" y="1605" type="line" smooth="no"/>
      <point x="463" y="1239" type="line" smooth="no"/>
      <point x="214" y="1239" type="line" smooth="no"/>
      <point x="428" y="1605" type="line" smooth="no"/>
    </contour>
  </outline>
</glyph>
<glyph name="paragraph" format="1">
  <advance width="1338"/>
  <unicode hex="00B6"/>
  <outline>
    <contour>
      <point x="666" y="-281" type="line"/>
      <point x="841" y="-281" type="line"/>
      <point x="841" y="1442" type="line"/>
      <point x="1005" y="1442" type="line"/>
      <point x="1005" y="-281" type="line"/>
      <point x="1180" y="-281" type="line"/>
      <point x="1180" y="1575" type="line"/>
      <point x="698" y="1575" type="line" smooth="yes"/>
      <point x="306" y="1575"/>
      <point x="120" y="1442"/>
      <point x="120" y="1188" type="curve" smooth="yes"/>
      <point x="120" y="927"/>
      <point x="352" y="796"/>
      <point x="666" y="796" type="curve"/>
    </contour>
  </outline>
</glyph>
<glyph name="periodcentered" format="1">
  <advance width="492"/>
  <unicode hex="00B7"/>
  <outline>
    <contour>
      <point x="109" y="598" type="curve" smooth="yes"/>
      <point x="109" y="674"/>
      <point x="170" y="735"/>
      <point x="246" y="735" type="curve" smooth="yes"/>
      <point x="322" y="735"/>
      <point x="383" y="674"/>
      <point x="383" y="598" type="curve" smooth="yes"/>
      <point x="383" y="522"/>
      <point x="322" y="461"/>
      <point x="246" y="461" type="curve" smooth="yes"/>
      <point x="170" y="461"/>
      <point x="109" y="522"/>
    </contour>
  </outline>
</glyph>
<glyph name="cedilla" format="1">
  <advance width="995"/>
  <unicode hex="00B8"/>
  <outline>
    <contour>
      <point x="429" y="-535" type="curve" smooth="yes"/>
      <point x="637" y="-535"/>
      <point x="738" y="-424"/>
      <point x="738" y="-296" type="curve" smooth="yes"/>
      <point x="738" y="-197"/>
      <point x="671" y="-120"/>
      <point x="500" y="-116" type="curve"/>
      <point x="543" y="2" type="line"/>
      <point x="432" y="2" type="line"/>
      <point x="363" y="-195" type="line"/>
      <point x="381" y="-198"/>
      <point x="398" y="-202"/>
      <point x="414" y="-207" type="curve"/>
      <point x="503" y="-187"/>
      <point x="577" y="-232"/>
      <point x="577" y="-298" type="curve" smooth="yes"/>
      <point x="577" y="-358"/>
      <point x="523" y="-408"/>
      <point x="431" y="-408" type="curve" smooth="yes"/>
      <point x="388" y="-408"/>
      <point x="345" y="-385"/>
      <point x="327" y="-362" type="curve"/>
      <point x="258" y="-362" type="line"/>
      <point x="225" y="-489" type="line"/>
      <point x="279" y="-515"/>
      <point x="375" y="-535"/>
    </contour>
    <contour>
      <point x="481.5" y="0" type="move" name="_bottom"/>
    </contour>
  </outline>
</glyph>
<glyph name="one.superior" format="1">
  <advance width="639"/>
  <unicode hex="00B9"/>
  <outline>
    <contour>
      <point x="240" y="588" type="line"/>
      <point x="240" y="1290" type="line"/>
      <point x="104" y="1200" type="line"/>
      <point x="104" y="1372" type="line"/>
      <point x="240" y="1462" type="line"/>
      <point x="412" y="1462" type="line"/>
      <point x="412" y="588" type="line"/>
    </contour>
  </outline>
</glyph>
<glyph name="guillemotright" format="1">
  <advance width="1374"/>
  <unicode hex="00BB"/>
  <outline>
    <contour>
      <point x="87" y="174" type="line"/>
      <point x="280" y="321" type="line"/>
      <point x="388" y="411"/>
      <point x="496" y="501"/>
      <point x="604" y="590" type="curve"/>
      <point x="587" y="664" type="line"/>
      <point x="567.651547586" y="683.348452414"/>
      <point x="280.873726908" y="916.768939076"/>
      <point x="88" y="1063" type="curve"/>
      <point x="95" y="855" type="line"/>
      <point x="195" y="777"/>
      <point x="294" y="697"/>
      <point x="393" y="618" type="curve"/>
      <point x="89" y="381" type="line"/>
    </contour>
    <contour>
      <point x="671" y="156" type="line"/>
      <point x="841" y="303"/>
      <point x="1015" y="446"/>
      <point x="1188" y="590" type="curve"/>
      <point x="1168" y="668" type="line"/>
      <point x="1141" y="689"/>
      <point x="716" y="1038"/>
      <point x="664" y="1082" type="curve"/>
      <point x="663" y="868" type="line"/>
      <point x="765" y="786"/>
      <point x="869" y="701"/>
      <point x="971" y="618" type="curve"/>
      <point x="657" y="365" type="line"/>
    </contour>
  </outline>
</glyph>
<glyph name="onequarter" format="1">
  <advance width="1478"/>
  <unicode hex="00BC"/>
  <outline>
    <contour>
      <point x="1173" y="0" type="line"/>
      <point x="1345" y="0" type="line"/>
      <point x="1345" y="127" type="line"/>
      <point x="1413" y="127" type="line"/>
      <point x="1413" y="274" type="line"/>
      <point x="1345" y="274" type="line"/>
      <point x="1345" y="500" type="line"/>
      <point x="1173" y="500" type="line"/>
      <point x="1173" y="274" type="line"/>
      <point x="949" y="274" type="line"/>
      <point x="1262" y="870" type="line"/>
      <point x="1089" y="870" type="line"/>
      <point x="771" y="274" type="line"/>
      <point x="771" y="127" type="line"/>
      <point x="1173" y="127" type="line"/>
    </contour>
    <contour>
      <point x="240" y="588" type="line"/>
      <point x="412" y="588" type="line"/>
      <point x="412" y="1462" type="line"/>
      <point x="240" y="1462" type="line"/>
      <point x="104" y="1372" type="line"/>
      <point x="104" y="1200" type="line"/>
      <point x="240" y="1290" type="line"/>
    </contour>
    <contour>
      <point x="199" y="-35" type="line"/>
      <point x="334" y="-35" type="line"/>
      <point x="1219" y="1493" type="line"/>
      <point x="1083" y="1493" type="line"/>
    </contour>
  </outline>
</glyph>
<glyph name="onehalf" format="1">
  <advance width="1478"/>
  <unicode hex="00BD"/>
  <outline>
    <contour>
      <point x="835" y="0" type="line"/>
      <point x="1412" y="0" type="line"/>
      <point x="1412" y="147" type="line"/>
      <point x="1043" y="147" type="line"/>
      <point x="1347" y="467" type="line" smooth="yes"/>
      <point x="1398" y="522"/>
      <point x="1412" y="573"/>
      <point x="1412" y="631" type="curve" smooth="yes"/>
      <point x="1412" y="770"/>
      <point x="1293" y="883"/>
      <point x="1121" y="883" type="curve" smooth="yes"/>
      <point x="962" y="883"/>
      <point x="841" y="772"/>
      <point x="841" y="608" type="curve"/>
      <point x="1013" y="608" type="line"/>
      <point x="1019" y="686"/>
      <point x="1058" y="735"/>
      <point x="1127" y="735" type="curve" smooth="yes"/>
      <point x="1197" y="735"/>
      <point x="1240" y="692"/>
      <point x="1240" y="631" type="curve" smooth="yes"/>
      <point x="1240" y="592"/>
      <point x="1224" y="563"/>
      <point x="1195" y="532" type="curve" smooth="yes"/>
      <point x="835" y="147" type="line"/>
    </contour>
    <contour>
      <point x="240" y="588" type="line"/>
      <point x="412" y="588" type="line"/>
      <point x="412" y="1462" type="line"/>
      <point x="240" y="1462" type="line"/>
      <point x="104" y="1372" type="line"/>
      <point x="104" y="1200" type="line"/>
      <point x="240" y="1290" type="line"/>
    </contour>
    <contour>
      <point x="147" y="-35" type="line"/>
      <point x="283" y="-35" type="line"/>
      <point x="1166" y="1493" type="line"/>
      <point x="1031" y="1493" type="line"/>
    </contour>
  </outline>
</glyph>
<glyph name="threequarters" format="1">
  <advance width="1632"/>
  <unicode hex="00BE"/>
  <outline>
    <contour>
      <point x="1376" y="0" type="line"/>
      <point x="1491" y="0" type="line"/>
      <point x="1491" y="128" type="line"/>
      <point x="1583" y="128" type="line"/>
      <point x="1583" y="237" type="line"/>
      <point x="1491" y="237" type="line"/>
      <point x="1491" y="870" type="line"/>
      <point x="1309" y="870" type="line"/>
      <point x="940" y="237" type="line"/>
      <point x="940" y="128" type="line"/>
      <point x="1376" y="128" type="line"/>
    </contour>
    <contour>
      <point x="399" y="0" type="line"/>
      <point x="534" y="0" type="line"/>
      <point x="1419" y="1521" type="line"/>
      <point x="1283" y="1521" type="line"/>
    </contour>
    <contour>
      <point x="1066" y="237" type="line"/>
      <point x="1376" y="775" type="line"/>
      <point x="1376" y="237" type="line"/>
    </contour>
    <component base="three.superior" xOffset="40"/>
  </outline>
</glyph>
<glyph name="AE" format="1">
  <advance width="2054"/>
  <unicode hex="00C6"/>
  <outline>
    <contour>
      <point x="1971" y="0" type="line"/>
      <point x="928" y="0" type="line"/>
      <point x="928" y="337" type="line"/>
      <point x="505" y="337" type="line"/>
      <point x="367" y="0" type="line"/>
      <point x="-30" y="0" type="line"/>
      <point x="615" y="1479" type="line"/>
      <point x="1972" y="1479" type="line"/>
      <point x="1972" y="1193" type="line"/>
      <point x="1312" y="1193" type="line"/>
      <point x="1312" y="917" type="line"/>
      <point x="1887" y="917" type="line"/>
      <point x="1887" y="635" type="line"/>
      <point x="1312" y="635" type="line"/>
      <point x="1312" y="286" type="line"/>
      <point x="1971" y="286" type="line"/>
    </contour>
    <contour>
      <point x="928" y="617" type="line"/>
      <point x="928" y="1208" type="line"/>
      <point x="870" y="1208" type="line"/>
      <point x="619" y="617" type="line"/>
    </contour>
  </outline>
</glyph>
<glyph name="Eth" format="1">
  <advance width="1291"/>
  <unicode hex="00D0"/>
  <outline>
    <contour>
      <point x="0" y="637" type="line"/>
      <point x="704" y="637" type="line"/>
      <point x="704" y="834" type="line"/>
      <point x="0" y="834" type="line"/>
    </contour>
    <component base="D"/>
  </outline>
</glyph>
<glyph name="Eth" format="1">
  <advance width="1291"/>
  <unicode hex="00D0"/>
  <outline>
    <contour>
      <point x="704" y="637" type="line"/>
      <point x="0" y="637" type="line"/>
      <point x="0" y="834" type="line"/>
      <point x="704" y="834" type="line"/>
    </contour>
    <component base="D"/>
  </outline>
</glyph>
<glyph name="multiply" format="1">
  <advance width="1230"/>
  <unicode hex="00d7"/>
  <outline>
    <contour>
      <point x="137" y="156" type="line" smooth="no"/>
      <point x="505" y="519" type="line" smooth="no"/>
      <point x="137" y="885" type="line" smooth="no"/>
      <point x="250" y="999" type="line" smooth="no"/>
      <point x="615" y="632" type="line" smooth="no"/>
      <point x="979" y="999" type="line" smooth="no"/>
      <point x="1094" y="885" type="line" smooth="no"/>
      <point x="726" y="519" type="line" smooth="no"/>
      <point x="1094" y="156" type="line" smooth="no"/>
      <point x="979" y="43" type="line" smooth="no"/>
      <point x="615" y="411" type="line" smooth="no"/>
      <point x="250" y="43" type="line" smooth="no"/>
    </contour>
  </outline>
</glyph>
<glyph name="Oslash" format="1">
  <advance width="1651"/>
  <unicode hex="00D8"/>
  <outline>
    <contour>
      <point x="826" y="-24" type="curve" smooth="yes"/>
      <point x="1316" y="-24"/>
      <point x="1546" y="292"/>
      <point x="1546" y="788" type="curve" smooth="yes"/>
      <point x="1546" y="1036"/>
      <point x="1490" y="1237"/>
      <point x="1373" y="1377" type="curve"/>
      <point x="1526" y="1575" type="line"/>
      <point x="1318" y="1575" type="line"/>
      <point x="1250" y="1487" type="line"/>
      <point x="1141" y="1560"/>
      <point x="1000" y="1599"/>
      <point x="826" y="1599" type="curve" smooth="yes"/>
      <point x="337" y="1599"/>
      <point x="105" y="1289"/>
      <point x="105" y="788" type="curve" smooth="yes"/>
      <point x="105" y="549"/>
      <point x="158" y="352"/>
      <point x="268" y="212" type="curve"/>
      <point x="105" y="1" type="line"/>
      <point x="311" y="1" type="line"/>
      <point x="386" y="99" type="line"/>
      <point x="498" y="19"/>
      <point x="644" y="-24"/>
    </contour>
    <contour>
      <point x="423" y="414" type="line"/>
      <point x="377" y="521"/>
      <point x="361" y="653"/>
      <point x="361" y="788" type="curve" smooth="yes"/>
      <point x="361" y="1109"/>
      <point x="448" y="1407"/>
      <point x="826" y="1407" type="curve" smooth="yes"/>
      <point x="952" y="1407"/>
      <point x="1046" y="1372"/>
      <point x="1116" y="1312" type="curve"/>
    </contour>
    <contour>
      <point x="826" y="168" type="curve" smooth="yes"/>
      <point x="690" y="168"/>
      <point x="591" y="207"/>
      <point x="521" y="273" type="curve"/>
      <point x="1218" y="1176" type="line"/>
      <point x="1271" y="1066"/>
      <point x="1290" y="928"/>
      <point x="1290" y="788" type="curve" smooth="yes"/>
      <point x="1290" y="481"/>
      <point x="1195" y="168"/>
    </contour>
    <contour>
      <point x="826" y="1575" type="move" name="top"/>
    </contour>
  </outline>
</glyph>
<glyph name="Oslash" format="1">
  <advance width="1651"/>
  <unicode hex="00D8"/>
  <outline>
    <contour>
      <point x="1316" y="-24"/>
      <point x="1546" y="292"/>
      <point x="1546" y="788" type="curve" smooth="yes"/>
      <point x="1546" y="1036"/>
      <point x="1490" y="1237"/>
      <point x="1373" y="1377" type="curve"/>
      <point x="1526" y="1575" type="line"/>
      <point x="1318" y="1575" type="line"/>
      <point x="1250" y="1487" type="line"/>
      <point x="1141" y="1560"/>
      <point x="1000" y="1599"/>
      <point x="826" y="1599" type="curve" smooth="yes"/>
      <point x="337" y="1599"/>
      <point x="105" y="1289"/>
      <point x="105" y="788" type="curve" smooth="yes"/>
      <point x="105" y="549"/>
      <point x="158" y="352"/>
      <point x="268" y="212" type="curve"/>
      <point x="105" y="1" type="line"/>
      <point x="311" y="1" type="line"/>
      <point x="386" y="99" type="line"/>
      <point x="498" y="19"/>
      <point x="644" y="-24"/>
      <point x="826" y="-24" type="curve" smooth="yes"/>
    </contour>
    <contour>
      <point x="361" y="1109"/>
      <point x="448" y="1407"/>
      <point x="826" y="1407" type="curve" smooth="yes"/>
      <point x="952" y="1407"/>
      <point x="1046" y="1372"/>
      <point x="1116" y="1312" type="curve"/>
      <point x="423" y="414" type="line"/>
      <point x="377" y="521"/>
      <point x="361" y="653"/>
      <point x="361" y="788" type="curve" smooth="yes"/>
    </contour>
    <contour>
      <point x="1290" y="481"/>
      <point x="1195" y="168"/>
      <point x="826" y="168" type="curve" smooth="yes"/>
      <point x="690" y="168"/>
      <point x="591" y="207"/>
      <point x="521" y="273" type="curve"/>
      <point x="1218" y="1176" type="line"/>
      <point x="1271" y="1066"/>
      <point x="1290" y="928"/>
      <point x="1290" y="788" type="curve" smooth="yes"/>
    </contour>
  </outline>
</glyph>
<glyph name="Thorn" format="1">
  <advance width="1386"/>
  <unicode hex="00DE"/>
  <outline>
    <contour>
      <point x="207.0" y="0.0" type="line"/>
      <point x="463.0" y="0.0" type="line"/>
      <point x="463" y="339" type="line"/>
      <point x="649" y="339" type="line" smooth="yes"/>
      <point x="1024" y="339"/>
      <point x="1260" y="478"/>
      <point x="1260" y="796" type="curve" smooth="yes"/>
      <point x="1260" y="1159"/>
      <point x="1029" y="1290"/>
      <point x="666" y="1290" type="curve" smooth="yes"/>
      <point x="463" y="1290" type="line"/>
      <point x="463" y="1575" type="line"/>
      <point x="207" y="1575" type="line"/>
    </contour>
    <contour>
      <point x="463" y="531" type="line"/>
      <point x="463" y="1098" type="line"/>
      <point x="657" y="1098" type="line" smooth="yes"/>
      <point x="933" y="1098"/>
      <point x="1004" y="997"/>
      <point x="1004" y="797" type="curve" smooth="yes"/>
      <point x="1004" y="572"/>
      <point x="864" y="531"/>
      <point x="650" y="531" type="curve" smooth="yes"/>
    </contour>
  </outline>
</glyph>
<glyph name="Thorn" format="1">
  <advance width="1215"/>
  <unicode hex="00DE"/>
  <outline>
    <contour>
      <point x="154" y="0" type="line"/>
      <point x="375" y="0" type="line"/>
      <point x="375" y="316" type="line"/>
      <point x="712" y="316" type="line" smooth="yes"/>
      <point x="1011" y="316"/>
      <point x="1168" y="548"/>
      <point x="1168" y="761" type="curve" smooth="yes"/>
      <point x="1168" y="974"/>
      <point x="1011" y="1206"/>
      <point x="712" y="1206" type="curve" smooth="yes"/>
      <point x="375" y="1206" type="line"/>
      <point x="375" y="1458" type="line"/>
      <point x="154" y="1458" type="line"/>
    </contour>
    <contour>
      <point x="375" y="525" type="line"/>
      <point x="375" y="997" type="line"/>
      <point x="706" y="997" type="line" smooth="yes"/>
      <point x="857" y="997"/>
      <point x="947" y="871"/>
      <point x="947" y="761" type="curve" smooth="yes"/>
      <point x="947" y="650"/>
      <point x="857" y="525"/>
      <point x="708" y="525" type="curve" smooth="yes"/>
    </contour>
  </outline>
</glyph>
<glyph name="germandbls" format="1">
  <advance width="1310"/>
  <unicode hex="00DF"/>
  <outline>
    <contour>
      <point x="744" y="-6" type="curve" smooth="yes"/>
      <point x="1105" y="-6"/>
      <point x="1284" y="185"/>
      <point x="1284" y="471" type="curve" smooth="yes"/>
      <point x="1284" y="643"/>
      <point x="1177" y="846"/>
      <point x="917" y="923" type="curve"/>
      <point x="917" y="928" type="line"/>
      <point x="1058" y="951"/>
      <point x="1170" y="1076"/>
      <point x="1170" y="1239" type="curve" smooth="yes"/>
      <point x="1170" y="1448"/>
      <point x="990" y="1599"/>
      <point x="661" y="1599" type="curve" smooth="yes"/>
      <point x="302" y="1599"/>
      <point x="124" y="1420"/>
      <point x="124" y="1098" type="curve" smooth="yes"/>
      <point x="124" y="0" type="line"/>
      <point x="380" y="0" type="line"/>
      <point x="380" y="1123" type="line" smooth="yes"/>
      <point x="380" y="1343"/>
      <point x="491" y="1407"/>
      <point x="655" y="1407" type="curve" smooth="yes"/>
      <point x="824.386" y="1407"/>
      <point x="901" y="1326.28"/>
      <point x="901" y="1218" type="curve" smooth="yes"/>
      <point x="901" y="1093"/>
      <point x="789" y="1008"/>
      <point x="635" y="1008" type="curve"/>
      <point x="635" y="845" type="line"/>
      <point x="886" y="845"/>
      <point x="1022" y="624"/>
      <point x="1022" y="471" type="curve" smooth="yes"/>
      <point x="1022" y="319"/>
      <point x="934" y="189"/>
      <point x="697" y="189" type="curve" smooth="yes"/>
      <point x="679" y="189"/>
      <point x="660" y="190"/>
      <point x="639" y="192" type="curve"/>
      <point x="639" y="-1" type="line"/>
      <point x="684" y="-2"/>
      <point x="724" y="-6"/>
    </contour>
  </outline>
</glyph>
<glyph name="ae" format="1">
  <advance width="1877"/>
  <unicode hex="00E6"/>
  <outline>
    <contour>
      <point x="1832" y="460" type="line"/>
      <point x="1088" y="460" type="line"/>
      <point x="1101" y="288"/>
      <point x="1231" y="232"/>
      <point x="1399" y="232" type="curve" smooth="yes"/>
      <point x="1510" y="232"/>
      <point x="1604" y="284"/>
      <point x="1649" y="315" type="curve"/>
      <point x="1686" y="315"/>
      <point x="1727" y="329"/>
      <point x="1759" y="351" type="curve"/>
      <point x="1814" y="96" type="line"/>
      <point x="1722" y="35"/>
      <point x="1605" y="-27"/>
      <point x="1349" y="-27" type="curve" smooth="yes"/>
      <point x="1100" y="-27"/>
      <point x="1001" y="9"/>
      <point x="869" y="135" type="curve"/>
      <point x="780" y="31"/>
      <point x="646" y="-24"/>
      <point x="485" y="-24" type="curve" smooth="yes"/>
      <point x="190" y="-24"/>
      <point x="33" y="100"/>
      <point x="33" y="318" type="curve" smooth="yes"/>
      <point x="33" y="516"/>
      <point x="154" y="637"/>
      <point x="370" y="668" type="curve"/>
      <point x="437" y="675"/>
      <point x="506" y="680"/>
      <point x="576" y="685" type="curve"/>
      <point x="625" y="696"/>
      <point x="674" y="708"/>
      <point x="726" y="718" type="curve"/>
      <point x="726" y="818"/>
      <point x="682" y="875"/>
      <point x="479" y="875" type="curve" smooth="yes"/>
      <point x="401" y="875"/>
      <point x="296" y="848"/>
      <point x="214" y="809" type="curve"/>
      <point x="200" y="805"/>
      <point x="186" y="800"/>
      <point x="174" y="793" type="curve"/>
      <point x="114" y="1033" type="line"/>
      <point x="185" y="1083"/>
      <point x="364" y="1124"/>
      <point x="526" y="1124" type="curve" smooth="yes"/>
      <point x="713" y="1124"/>
      <point x="853" y="1079"/>
      <point x="945" y="1009" type="curve"/>
      <point x="1023" y="1070"/>
      <point x="1176" y="1126"/>
      <point x="1308" y="1126" type="curve" smooth="yes"/>
      <point x="1644" y="1126"/>
      <point x="1832" y="936"/>
      <point x="1832" y="615" type="curve" smooth="yes"/>
    </contour>
    <contour>
      <point x="764" y="332" type="curve"/>
      <point x="744" y="388"/>
      <point x="739" y="436"/>
      <point x="736" y="479" type="curve"/>
      <point x="545" y="467"/>
      <point x="390" y="470"/>
      <point x="390" y="345" type="curve" smooth="yes"/>
      <point x="390" y="266"/>
      <point x="435" y="221"/>
      <point x="559" y="221" type="curve" smooth="yes"/>
      <point x="671" y="221"/>
      <point x="742" y="252"/>
    </contour>
    <contour>
      <point x="1474" y="675" type="line"/>
      <point x="1472" y="821"/>
      <point x="1402" y="893"/>
      <point x="1285" y="893" type="curve" smooth="yes"/>
      <point x="1159" y="893"/>
      <point x="1085" y="809"/>
      <point x="1086" y="675" type="curve"/>
    </contour>
  </outline>
</glyph>
<glyph name="eth" format="1">
  <advance width="1024"/>
  <unicode hex="00F0"/>
  <outline>
    <contour>
      <point x="513" y="-12" type="curve" smooth="yes"/>
      <point x="675" y="-12"/>
      <point x="771" y="57"/>
      <point x="828" y="121" type="curve"/>
      <point x="927" y="229"/>
      <point x="941" y="297"/>
      <point x="941" y="553" type="curve" smooth="yes"/>
      <point x="941" y="975"/>
      <point x="927" y="1108"/>
      <point x="767" y="1303" type="curve"/>
      <point x="951" y="1399" type="line"/>
      <point x="873" y="1511" type="line"/>
      <point x="660" y="1401" type="line"/>
      <point x="583" y="1458"/>
      <point x="483" y="1507"/>
      <point x="360" y="1544" type="curve"/>
      <point x="295" y="1391" type="line"/>
      <point x="367" y="1366"/>
      <point x="426" y="1339"/>
      <point x="477" y="1307" type="curve"/>
      <point x="307" y="1219" type="line"/>
      <point x="385" y="1106" type="line"/>
      <point x="593" y="1212" type="line"/>
      <point x="654" y="1151"/>
      <point x="701" y="1065"/>
      <point x="722" y="963" type="curve"/>
      <point x="718" y="958" type="line"/>
      <point x="656" y="1028"/>
      <point x="576" y="1051"/>
      <point x="495" y="1051" type="curve" smooth="yes"/>
      <point x="351" y="1051"/>
      <point x="254" y="981"/>
      <point x="197" y="918" type="curve" smooth="yes"/>
      <point x="117" y="829"/>
      <point x="84" y="743"/>
      <point x="84" y="520" type="curve" smooth="yes"/>
      <point x="84" y="295"/>
      <point x="117" y="209"/>
      <point x="197" y="121" type="curve" smooth="yes"/>
      <point x="254" y="57"/>
      <point x="351" y="-12"/>
    </contour>
    <contour>
      <point x="513" y="197" type="curve" smooth="yes"/>
      <point x="441" y="197"/>
      <point x="375" y="229"/>
      <point x="344" y="272" type="curve" smooth="yes"/>
      <point x="305" y="328"/>
      <point x="293" y="369"/>
      <point x="293" y="520" type="curve" smooth="yes"/>
      <point x="293" y="670"/>
      <point x="305" y="711"/>
      <point x="344" y="766" type="curve" smooth="yes"/>
      <point x="375" y="809"/>
      <point x="441" y="842"/>
      <point x="513" y="842" type="curve" smooth="yes"/>
      <point x="585" y="842"/>
      <point x="650" y="809"/>
      <point x="681" y="766" type="curve" smooth="yes"/>
      <point x="720" y="711"/>
      <point x="732" y="670"/>
      <point x="732" y="518" type="curve" smooth="yes"/>
      <point x="732" y="369"/>
      <point x="720" y="328"/>
      <point x="681" y="272" type="curve" smooth="yes"/>
      <point x="650" y="229"/>
      <point x="585" y="197"/>
    </contour>
  </outline>
</glyph>
<glyph name="divide" format="1">
  <advance width="1589"/>
  <unicode hex="00F7"/>
  <outline>
    <contour>
      <point x="579.5" y="214" type="curve" smooth="yes"/>
      <point x="579.5" y="332.128"/>
      <point x="675.372" y="428"/>
      <point x="793.5" y="428" type="curve" smooth="yes"/>
      <point x="911.628" y="428"/>
      <point x="1007.5" y="332.128"/>
      <point x="1007.5" y="214" type="curve" smooth="yes"/>
      <point x="1007.5" y="95.872"/>
      <point x="911.628" y="0"/>
      <point x="793.5" y="0" type="curve" smooth="yes"/>
      <point x="675.372" y="0"/>
      <point x="579.5" y="95.872"/>
    </contour>
    <contour>
      <point x="579.5" y="1091.5" type="curve" smooth="yes"/>
      <point x="579.5" y="1209.63"/>
      <point x="675.372" y="1305.5"/>
      <point x="793.5" y="1305.5" type="curve" smooth="yes"/>
      <point x="911.628" y="1305.5"/>
      <point x="1007.5" y="1209.63"/>
      <point x="1007.5" y="1091.5" type="curve" smooth="yes"/>
      <point x="1007.5" y="973.372"/>
      <point x="911.628" y="877.5"/>
      <point x="793.5" y="877.5" type="curve" smooth="yes"/>
      <point x="675.372" y="877.5"/>
      <point x="579.5" y="973.372"/>
    </contour>
    <contour>
      <point x="1428" y="526" type="line"/>
      <point x="161" y="526" type="line"/>
      <point x="161" y="776" type="line"/>
      <point x="1428" y="776" type="line"/>
    </contour>
  </outline>
</glyph>
<glyph name="oslash" format="1">
  <advance width="1235"/>
  <unicode hex="00F8"/>
  <outline>
    <contour>
      <point x="79" y="-52" type="line"/>
      <point x="229" y="-52" type="line"/>
      <point x="312.613" y="52.6054" type="line"/>
      <point x="399.109" y="0.620457"/>
      <point x="503.475" y="-24"/>
      <point x="616" y="-24" type="curve" smooth="yes"/>
      <point x="920" y="-24"/>
      <point x="1162" y="152"/>
      <point x="1162" y="552" type="curve" smooth="yes"/>
      <point x="1162" y="730.169"/>
      <point x="1114.27" y="863.159"/>
      <point x="1034.73" y="956.019" type="curve"/>
      <point x="1173" y="1129" type="line"/>
      <point x="1023" y="1129" type="line"/>
      <point x="947.281" y="1034.27" type="line"/>
      <point x="855.591" y="1096.78"/>
      <point x="740.893" y="1126"/>
      <point x="616" y="1126" type="curve" smooth="yes"/>
      <point x="324" y="1126"/>
      <point x="74" y="956"/>
      <point x="74" y="553" type="curve" smooth="yes"/>
      <point x="74" y="360.127"/>
      <point x="129.707" y="219.507"/>
      <point x="220.799" y="125.398" type="curve"/>
    </contour>
    <contour>
      <point x="369.899" y="311.932" type="line"/>
      <point x="339.614" y="371.357"/>
      <point x="323" y="450.387"/>
      <point x="323" y="551" type="curve" smooth="yes"/>
      <point x="323" y="821"/>
      <point x="447" y="933"/>
      <point x="616" y="933" type="curve" smooth="yes"/>
      <point x="696.217" y="933"/>
      <point x="762.94" y="912.093"/>
      <point x="812.688" y="865.887" type="curve"/>
    </contour>
    <contour>
      <point x="619" y="169" type="curve" smooth="yes"/>
      <point x="551.666" y="169"/>
      <point x="493.106" y="185.273"/>
      <point x="446.246" y="219.787" type="curve"/>
      <point x="880.114" y="762.582" type="line"/>
      <point x="901.589" y="707.048"/>
      <point x="913" y="636.754"/>
      <point x="913" y="550" type="curve" smooth="yes"/>
      <point x="913" y="303"/>
      <point x="818" y="169"/>
    </contour>
  </outline>
</glyph>
<glyph name="dotlessi" format="1">
  <advance width="526"/>
  <unicode hex="0131"/>
  <outline>
    <contour>
      <point x="128" y="0" type="line"/>
      <point x="384" y="0" type="line"/>
      <point x="384" y="1098" type="line"/>
      <point x="128" y="1098" type="line"/>
    </contour>
  </outline>
</glyph>
<glyph name="Lslash" format="1">
  <advance width="1140"/>
  <unicode hex="0141"/>
  <outline>
    <contour>
      <point x="154" y="0" type="line"/>
      <point x="1087" y="0" type="line"/>
      <point x="1087" y="209" type="line"/>
      <point x="375" y="209" type="line"/>
      <point x="375" y="655" type="line"/>
      <point x="693" y="885" type="line"/>
      <point x="693" y="1069" type="line"/>
      <point x="375" y="840" type="line"/>
      <point x="375" y="1458" type="line"/>
      <point x="154" y="1458" type="line"/>
      <point x="154" y="684" type="line"/>
      <point x="4" y="571" type="line"/>
      <point x="4" y="387" type="line"/>
      <point x="154" y="500" type="line"/>
    </contour>
  </outline>
</glyph>
<glyph name="lslash" format="1">
  <advance width="624"/>
  <unicode hex="0142"/>
  <outline>
    <contour>
      <point x="500" y="-7" type="curve" smooth="yes"/>
      <point x="587" y="-7" type="line"/>
      <point x="587" y="185" type="line"/>
      <point x="443" y="185"/>
      <point x="378" y="183"/>
      <point x="378" y="320" type="curve" smooth="yes"/>
      <point x="378" y="829" type="line"/>
      <point x="549" y="945" type="line"/>
      <point x="549" y="1097" type="line"/>
      <point x="378" y="981" type="line"/>
      <point x="376" y="1521" type="line"/>
      <point x="122" y="1521" type="line"/>
      <point x="122" y="807" type="line"/>
      <point x="0" y="724" type="line"/>
      <point x="0" y="572" type="line"/>
      <point x="123" y="655" type="line"/>
      <point x="123" y="370" type="line"/>
      <point x="123" y="209"/>
      <point x="83" y="-7"/>
    </contour>
  </outline>
</glyph>
<glyph name="OE" format="1">
  <advance width="2115"/>
  <unicode hex="0152"/>
  <outline>
    <contour>
      <point x="740" y="0" type="curve" smooth="yes"/>
      <point x="1921" y="0" type="line"/>
      <point x="1921" y="190" type="line"/>
      <point x="1267" y="190" type="line"/>
      <point x="1267" y="738" type="line"/>
      <point x="1834" y="738" type="line"/>
      <point x="1834" y="930" type="line"/>
      <point x="1267" y="930" type="line"/>
      <point x="1267" y="1382" type="line"/>
      <point x="1920" y="1382" type="line"/>
      <point x="1920" y="1575" type="line"/>
      <point x="711" y="1575" type="line" smooth="yes"/>
      <point x="267" y="1575"/>
      <point x="65" y="1226"/>
      <point x="65" y="801" type="curve" smooth="yes"/>
      <point x="65" y="403"/>
      <point x="194" y="0"/>
    </contour>
    <contour>
      <point x="735" y="190" type="curve" smooth="yes"/>
      <point x="410" y="190"/>
      <point x="321" y="463"/>
      <point x="321" y="799" type="curve" smooth="yes"/>
      <point x="321" y="1144"/>
      <point x="426" y="1382"/>
      <point x="739" y="1382" type="curve" smooth="yes"/>
      <point x="1011" y="1382" type="line"/>
      <point x="1011" y="190" type="line"/>
      <point x="1012" y="190"/>
      <point x="804" y="190"/>
    </contour>
    <contour>
      <point x="1058" y="1575" type="move" name="top"/>
    </contour>
  </outline>
</glyph>
<glyph name="OE" format="1">
  <advance width="2115"/>
  <unicode hex="0152"/>
  <outline>
    <contour>
      <point x="2031" y="0" type="line"/>
      <point x="1052" y="0" type="line"/>
      <point x="1058" y="14"/>
      <point x="1065" y="28"/>
      <point x="1071" y="42" type="curve"/>
      <point x="954" y="13"/>
      <point x="808" y="-9"/>
      <point x="703" y="-3" type="curve"/>
      <point x="391" y="19"/>
      <point x="236" y="169"/>
      <point x="148" y="327" type="curve" smooth="yes"/>
      <point x="93" y="427"/>
      <point x="67" y="523"/>
      <point x="67" y="741" type="curve" smooth="yes"/>
      <point x="67" y="981"/>
      <point x="118" y="1108"/>
      <point x="205" y="1224" type="curve"/>
      <point x="299" y="1353"/>
      <point x="438" y="1445"/>
      <point x="629" y="1467" type="curve" smooth="yes"/>
      <point x="724" y="1477"/>
      <point x="834" y="1470"/>
      <point x="948" y="1438" type="curve"/>
      <point x="948" y="1479" type="line"/>
      <point x="2030" y="1479" type="line"/>
      <point x="2030" y="1193" type="line"/>
      <point x="1380" y="1193" type="line"/>
      <point x="1380" y="917" type="line"/>
      <point x="1944" y="917" type="line"/>
      <point x="1944" y="635" type="line"/>
      <point x="1380" y="635" type="line"/>
      <point x="1380" y="286" type="line"/>
      <point x="2031" y="286" type="line"/>
    </contour>
    <contour>
      <point x="971" y="319" type="curve"/>
      <point x="991" y="423"/>
      <point x="998" y="516"/>
      <point x="998" y="702" type="curve" smooth="yes"/>
      <point x="998" y="913"/>
      <point x="991" y="1030"/>
      <point x="971" y="1160" type="curve"/>
      <point x="963" y="1162"/>
      <point x="956" y="1165"/>
      <point x="947" y="1169" type="curve"/>
      <point x="891" y="1181"/>
      <point x="833" y="1197"/>
      <point x="769" y="1193" type="curve"/>
      <point x="660" y="1182"/>
      <point x="581" y="1134"/>
      <point x="532" y="1069" type="curve"/>
      <point x="480" y="998"/>
      <point x="459" y="921"/>
      <point x="459" y="739" type="curve" smooth="yes"/>
      <point x="459" y="563"/>
      <point x="482" y="483"/>
      <point x="538" y="406" type="curve" smooth="yes"/>
      <point x="589" y="336"/>
      <point x="672" y="284"/>
      <point x="785" y="281" type="curve"/>
      <point x="847" y="281"/>
      <point x="900" y="297"/>
      <point x="949" y="318" type="curve"/>
      <point x="955" y="318"/>
      <point x="962" y="318"/>
    </contour>
  </outline>
</glyph>
<glyph name="oe" format="1">
  <advance width="1981"/>
  <unicode hex="0153"/>
  <outline>
    <contour>
      <point x="591" y="-29" type="curve" smooth="yes"/>
      <point x="796.971268058" y="-29.0"/>
      <point x="937" y="66"/>
      <point x="1016" y="183" type="curve"/>
      <point x="1092" y="64"/>
      <point x="1280" y="-25"/>
      <point x="1465" y="-25" type="curve" smooth="yes"/>
      <point x="1698" y="-25"/>
      <point x="1810" y="45"/>
      <point x="1896" y="104" type="curve"/>
      <point x="1847" y="259" type="line"/>
      <point x="1847" y="259"/>
      <point x="1795" y="259"/>
      <point x="1795" y="259" type="curve"/>
      <point x="1761" y="227"/>
      <point x="1662" y="158"/>
      <point x="1493" y="158" type="curve" smooth="yes"/>
      <point x="1252" y="158"/>
      <point x="1141" y="312"/>
      <point x="1139" y="490" type="curve"/>
      <point x="1907" y="490" type="line"/>
      <point x="1907" y="560" type="line" smooth="yes"/>
      <point x="1907" y="886"/>
      <point x="1741" y="1121"/>
      <point x="1410" y="1121" type="curve" smooth="yes"/>
      <point x="1216" y="1121"/>
      <point x="1081" y="1001"/>
      <point x="1012" y="905" type="curve"/>
      <point x="951" y="1027"/>
      <point x="801" y="1126"/>
      <point x="595" y="1126" type="curve" smooth="yes"/>
      <point x="425" y="1126"/>
      <point x="51" y="1033"/>
      <point x="51" y="549" type="curve" smooth="yes"/>
      <point x="51" y="71"/>
      <point x="416" y="-29"/>
    </contour>
    <contour>
      <point x="594" y="157" type="curve" smooth="yes"/>
      <point x="451" y="157"/>
      <point x="292" y="244"/>
      <point x="292" y="547" type="curve" smooth="yes"/>
      <point x="292" y="867"/>
      <point x="478" y="943"/>
      <point x="588" y="943" type="curve" smooth="yes"/>
      <point x="764.893188111" y="943.0"/>
      <point x="891.0" y="861.708443211"/>
      <point x="891" y="546" type="curve" smooth="yes"/>
      <point x="891.0" y="256.087848629"/>
      <point x="741.109977315" y="157.0"/>
    </contour>
    <contour>
      <point x="1143" y="651" type="line"/>
      <point x="1157" y="773"/>
      <point x="1222" y="944"/>
      <point x="1428" y="944" type="curve" smooth="yes"/>
      <point x="1606" y="944"/>
      <point x="1672" y="789"/>
      <point x="1678" y="651" type="curve"/>
    </contour>
  </outline>
</glyph>
<glyph name="florin" format="1">
  <advance width="1247"/>
  <unicode hex="0192"/>
  <outline>
    <contour>
      <point x="231" y="-256" type="curve" smooth="yes"/>
      <point x="480" y="-256"/>
      <point x="674" y="-141"/>
      <point x="724" y="183" type="curve" smooth="yes"/>
      <point x="801" y="674" type="line"/>
      <point x="1060" y="674" type="line"/>
      <point x="1069" y="887" type="line"/>
      <point x="836" y="887" type="line"/>
      <point x="855" y="1038" type="line"/>
      <point x="868" y="1133"/>
      <point x="888" y="1229"/>
      <point x="1026" y="1229" type="curve" smooth="yes"/>
      <point x="1084" y="1229"/>
      <point x="1152" y="1214"/>
      <point x="1173" y="1212" type="curve"/>
      <point x="1185" y="1488" type="line"/>
      <point x="1127" y="1499"/>
      <point x="1058" y="1504"/>
      <point x="1006" y="1504" type="curve" smooth="yes"/>
      <point x="779" y="1504"/>
      <point x="558" y="1441"/>
      <point x="502" y="1082" type="curve" smooth="yes"/>
      <point x="472" y="887" type="line"/>
      <point x="293" y="887" type="line"/>
      <point x="284" y="674" type="line"/>
      <point x="441" y="674" type="line"/>
      <point x="391" y="342" type="line"/>
      <point x="381" y="208"/>
      <point x="336" y="18"/>
      <point x="204" y="18" type="curve" smooth="yes"/>
      <point x="136" y="18"/>
      <point x="81" y="38"/>
      <point x="50" y="38" type="curve"/>
      <point x="37" y="-237" type="line"/>
      <point x="82" y="-247"/>
      <point x="177" y="-256"/>
    </contour>
  </outline>
</glyph>
<glyph name="circumflex" format="1">
  <advance width="894"/>
  <unicode hex="02C6"/>
  <outline>
    <contour>
      <point x="56" y="1241" type="line"/>
      <point x="270" y="1241" type="line"/>
      <point x="446" y="1460" type="line"/>
      <point x="632" y="1241" type="line"/>
      <point x="840" y="1241" type="line"/>
      <point x="533" y="1605" type="line"/>
      <point x="362" y="1605" type="line"/>
    </contour>
    <contour>
      <point x="448" y="1098" type="move" name="_top"/>
    </contour>
  </outline>
</glyph>
<glyph name="caron" format="1">
  <advance width="894"/>
  <unicode hex="02c7"/>
  <outline>
    <contour>
      <point x="897" y="1605" type="line" smooth="no"/>
      <point x="565" y="1245" type="line" smooth="no"/>
      <point x="327" y="1245" type="line" smooth="no"/>
      <point x="-6" y="1605" type="line" smooth="no"/>
      <point x="270" y="1605" type="line" smooth="no"/>
      <point x="447" y="1410" type="line" smooth="no"/>
      <point x="623" y="1605" type="line" smooth="no"/>
    </contour>
  </outline>
</glyph>
<glyph name="breve" format="1">
  <advance width="894"/>
  <unicode hex="02D8"/>
  <outline>
    <contour>
      <point x="821" y="1568" type="line"/>
      <point x="817" y="1341"/>
      <point x="674" y="1220"/>
      <point x="451" y="1220" type="curve" smooth="yes"/>
      <point x="209" y="1220"/>
      <point x="86" y="1341"/>
      <point x="82" y="1568" type="curve"/>
      <point x="273" y="1568" type="line"/>
      <point x="282" y="1469"/>
      <point x="320" y="1394"/>
      <point x="451" y="1394" type="curve" smooth="yes"/>
      <point x="569" y="1394"/>
      <point x="620" y="1464"/>
      <point x="628" y="1568" type="curve"/>
    </contour>
  </outline>
</glyph>
<glyph name="dotaccent" format="1">
  <advance width="899"/>
  <unicode hex="02d9"/>
  <outline>
    <contour>
      <point x="634" y="1246" type="curve" smooth="no"/>
      <point x="563" y="1248"/>
      <point x="495" y="1250"/>
      <point x="426" y="1250" type="curve" smooth="yes"/>
      <point x="372" y="1250"/>
      <point x="322" y="1249"/>
      <point x="266" y="1246" type="curve" smooth="no"/>
      <point x="266" y="1527" type="line" smooth="no"/>
      <point x="336" y="1525"/>
      <point x="405" y="1524"/>
      <point x="472" y="1524" type="curve" smooth="yes"/>
      <point x="522" y="1524" type="line" smooth="yes"/>
      <point x="560" y="1524"/>
      <point x="597" y="1524"/>
      <point x="635" y="1525" type="curve" smooth="no"/>
      <point x="634" y="1432"/>
      <point x="634" y="1339"/>
    </contour>
  </outline>
</glyph>
<glyph name="ring" format="1">
  <advance width="898"/>
  <unicode hex="02da"/>
  <outline>
    <contour>
      <point x="601" y="1340" type="curve" smooth="yes"/>
      <point x="601" y="1424"/>
      <point x="537" y="1497"/>
      <point x="450" y="1497" type="curve" smooth="yes"/>
      <point x="366" y="1497"/>
      <point x="299" y="1428"/>
      <point x="299" y="1340" type="curve" smooth="yes"/>
      <point x="299" y="1252"/>
      <point x="363" y="1185"/>
      <point x="450" y="1185" type="curve" smooth="yes"/>
      <point x="537" y="1185"/>
      <point x="601" y="1255"/>
    </contour>
    <contour>
      <point x="693" y="1341" type="curve" smooth="yes"/>
      <point x="693" y="1210"/>
      <point x="585" y="1111"/>
      <point x="450" y="1111" type="curve" smooth="yes"/>
      <point x="314" y="1111"/>
      <point x="206" y="1212"/>
      <point x="206" y="1342" type="curve" smooth="yes"/>
      <point x="206" y="1471"/>
      <point x="316" y="1571"/>
      <point x="450" y="1571" type="curve" smooth="yes"/>
      <point x="585" y="1571"/>
      <point x="693" y="1472"/>
    </contour>
  </outline>
</glyph>
<glyph name="ogonek" format="1">
  <advance width="898"/>
  <unicode hex="02DB"/>
  <outline>
    <contour>
      <point x="542" y="-432" type="curve" smooth="yes"/>
      <point x="596" y="-429"/>
      <point x="653" y="-419"/>
      <point x="709" y="-399" type="curve"/>
      <point x="698" y="-260" type="line"/>
      <point x="674" y="-269"/>
      <point x="631" y="-289"/>
      <point x="572" y="-289" type="curve" smooth="yes"/>
      <point x="490" y="-289"/>
      <point x="443" y="-237"/>
      <point x="446" y="-148" type="curve"/>
      <point x="451" y="-98"/>
      <point x="475" y="-42"/>
      <point x="513" y="6" type="curve"/>
      <point x="361" y="6" type="line"/>
      <point x="323" y="-38"/>
      <point x="286" y="-91"/>
      <point x="274" y="-161" type="curve"/>
      <point x="268" y="-189"/>
      <point x="267" y="-218"/>
      <point x="270" y="-249" type="curve"/>
      <point x="287" y="-356"/>
      <point x="379" y="-431"/>
      <point x="504" y="-431" type="curve"/>
      <point x="516" y="-432"/>
      <point x="530" y="-432"/>
    </contour>
    <contour>
      <point x="709" y="10" type="move" name="_ogonek"/>
    </contour>
  </outline>
</glyph>
<glyph name="tilde" format="1">
  <advance width="894"/>
  <unicode hex="02DC"/>
  <outline>
    <contour>
      <point x="630" y="1406" type="curve" smooth="yes"/>
      <point x="533" y="1406"/>
      <point x="378" y="1513"/>
      <point x="268" y="1513" type="curve" smooth="yes"/>
      <point x="116" y="1513"/>
      <point x="39" y="1420"/>
      <point x="39" y="1247" type="curve"/>
      <point x="205" y="1247" type="line"/>
      <point x="208" y="1313"/>
      <point x="211" y="1348"/>
      <point x="271" y="1348" type="curve" smooth="yes"/>
      <point x="377" y="1348"/>
      <point x="502" y="1246"/>
      <point x="620" y="1246" type="curve" smooth="yes"/>
      <point x="778" y="1246"/>
      <point x="857" y="1322"/>
      <point x="857" y="1512" type="curve"/>
      <point x="691" y="1512" type="line"/>
      <point x="686" y="1444"/>
      <point x="674" y="1406"/>
    </contour>
    <contour>
      <point x="448" y="1098" type="move" name="_top"/>
    </contour>
  </outline>
</glyph>
<glyph name="hungarumlaut" format="1">
  <advance width="897"/>
  <unicode hex="02DD"/>
  <outline>
    <contour>
      <point x="383" y="1209" type="line"/>
      <point x="547" y="1209" type="line"/>
      <point x="858" y="1575" type="line"/>
      <point x="597" y="1575" type="line"/>
    </contour>
    <contour>
      <point x="57" y="1209" type="line"/>
      <point x="221" y="1209" type="line"/>
      <point x="502" y="1575" type="line"/>
      <point x="261" y="1575" type="line"/>
    </contour>
  </outline>
</glyph>
<glyph name="Delta" format="1">
  <advance width="1164"/>
  <unicode hex="0394"/>
  <outline>
    <contour>
      <point x="254" y="168" type="line"/>
      <point x="254" y="168"/>
      <point x="562.0" y="1122.0"/>
      <point x="579" y="1204" type="curve"/>
      <point x="585" y="1204" type="line"/>
      <point x="603.0" y="1110.0"/>
      <point x="903" y="168"/>
      <point x="903" y="168" type="curve"/>
    </contour>
    <contour>
      <point x="53" y="0" type="line"/>
      <point x="1110" y="0" type="line"/>
      <point x="1110" y="131" type="line"/>
      <point x="703" y="1460" type="line"/>
      <point x="472" y="1460" type="line"/>
      <point x="53" y="127" type="line"/>
    </contour>
  </outline>
</glyph>
<glyph name="Omega" format="1">
  <advance width="1514"/>
  <unicode hex="03A9"/>
  <outline>
    <contour>
      <point x="82" y="0" type="line"/>
      <point x="651" y="0" type="line"/>
      <point x="651" y="211" type="line"/>
      <point x="476" y="358"/>
      <point x="396" y="535"/>
      <point x="396" y="765" type="curve" smooth="yes"/>
      <point x="396" y="1037"/>
      <point x="548" y="1214"/>
      <point x="762" y="1214" type="curve" smooth="yes"/>
      <point x="977" y="1214"/>
      <point x="1117" y="1018"/>
      <point x="1117" y="775" type="curve" smooth="yes"/>
      <point x="1117" y="529"/>
      <point x="1020" y="340"/>
      <point x="861" y="211" type="curve"/>
      <point x="861" y="0" type="line"/>
      <point x="1429" y="0" type="line"/>
      <point x="1429" y="229" type="line"/>
      <point x="1183" y="229" type="line"/>
      <point x="1105" y="231" type="line"/>
      <point x="1302" y="357"/>
      <point x="1422" y="560"/>
      <point x="1422" y="823" type="curve" smooth="yes"/>
      <point x="1422" y="1173"/>
      <point x="1164" y="1456"/>
      <point x="758" y="1456" type="curve" smooth="yes"/>
      <point x="369" y="1456"/>
      <point x="92" y="1193"/>
      <point x="92" y="814" type="curve" smooth="yes"/>
      <point x="92" y="553"/>
      <point x="214" y="332"/>
      <point x="401" y="229" type="curve"/>
      <point x="82" y="229" type="line"/>
    </contour>
    <contour>
      <point x="20" y="1575" type="move" name="topleft"/>
    </contour>
  </outline>
</glyph>
<glyph name="uni03A9" format="1">
  <advance width="1242"/>
  <unicode hex="03a9"/>
  <outline>
    <contour>
      <point x="317" y="170" type="line" smooth="no"/>
      <point x="317" y="176" type="line" smooth="no"/>
      <point x="203" y="307"/>
      <point x="96" y="518"/>
      <point x="96" y="786" type="curve" smooth="yes"/>
      <point x="96" y="1165"/>
      <point x="316" y="1452"/>
      <point x="628" y="1452" type="curve" smooth="yes"/>
      <point x="962" y="1452"/>
      <point x="1142" y="1120"/>
      <point x="1142" y="801" type="curve" smooth="yes"/>
      <point x="1142" y="526"/>
      <point x="1029" y="299"/>
      <point x="919" y="176" type="curve" smooth="no"/>
      <point x="919" y="170" type="line" smooth="no"/>
      <point x="1166" y="170" type="line" smooth="no"/>
      <point x="1166" y="0" type="line" smooth="no"/>
      <point x="720" y="0" type="line" smooth="no"/>
      <point x="720" y="125" type="line" smooth="no"/>
      <point x="832" y="215"/>
      <point x="939" y="430"/>
      <point x="939" y="754" type="curve" smooth="yes"/>
      <point x="939" y="1012"/>
      <point x="837" y="1274"/>
      <point x="624" y="1274" type="curve" smooth="yes"/>
      <point x="423" y="1274"/>
      <point x="299" y="1049"/>
      <point x="299" y="745" type="curve" smooth="yes"/>
      <point x="299" y="446"/>
      <point x="409" y="213"/>
      <point x="519" y="125" type="curve" smooth="no"/>
      <point x="519" y="0" type="line" smooth="no"/>
      <point x="72" y="0" type="line" smooth="no"/>
      <point x="72" y="170" type="line" smooth="no"/>
    </contour>
  </outline>
</glyph>
<glyph name="mu" format="1">
  <advance width="1196"/>
  <unicode hex="03BC"/>
  <outline>
    <contour>
      <point x="105" y="-357" type="line"/>
      <point x="361" y="-357" type="line"/>
      <point x="361" y="-9" type="line"/>
      <point x="394" y="-19"/>
      <point x="429" y="-24"/>
      <point x="463" y="-24" type="curve" smooth="yes"/>
      <point x="616" y="-24"/>
      <point x="746" y="45"/>
      <point x="818" y="154" type="curve"/>
      <point x="818" y="0" type="line"/>
      <point x="1074" y="0" type="line"/>
      <point x="1074" y="1103" type="line"/>
      <point x="818" y="1103" type="line"/>
      <point x="818" y="293" type="line" smooth="yes"/>
      <point x="818" y="245"/>
      <point x="704" y="178"/>
      <point x="577" y="178" type="curve" smooth="yes"/>
      <point x="454" y="178"/>
      <point x="361" y="230"/>
      <point x="361" y="411" type="curve" smooth="yes"/>
      <point x="361" y="1103" type="line"/>
      <point x="105" y="1103" type="line"/>
    </contour>
  </outline>
</glyph>
<glyph name="uni03BC" format="1">
  <advance width="1196"/>
  <unicode hex="03BC"/>
  <outline>
    <contour>
      <point x="105.0" y="-357.0" type="line"/>
      <point x="361.0" y="-357.0" type="line"/>
      <point x="361.0" y="-9.0" type="line"/>
      <point x="394.0" y="-19.0"/>
      <point x="429.0" y="-24.0"/>
      <point x="463.0" y="-24.0" type="curve" smooth="yes"/>
      <point x="616.0" y="-24.0"/>
      <point x="746.0" y="45.0"/>
      <point x="818.0" y="154.0" type="curve"/>
      <point x="818.0" y="0.0" type="line"/>
      <point x="1074.0" y="0.0" type="line"/>
      <point x="1074.0" y="1103.0" type="line"/>
      <point x="818.0" y="1103.0" type="line"/>
      <point x="818.0" y="293.0" type="line" smooth="yes"/>
      <point x="818.0" y="245.0"/>
      <point x="704.0" y="178.0"/>
      <point x="577.0" y="178.0" type="curve" smooth="yes"/>
      <point x="454.0" y="178.0"/>
      <point x="361.0" y="230.0"/>
      <point x="361.0" y="411.0" type="curve" smooth="yes"/>
      <point x="361.0" y="1103.0" type="line"/>
      <point x="105.0" y="1103.0" type="line"/>
    </contour>
  </outline>
</glyph>
<glyph name="pi" format="1">
  <advance width="1288"/>
  <unicode hex="03C0"/>
  <outline>
    <contour>
      <point x="166" y="0" type="curve"/>
      <point x="441" y="0" type="line"/>
      <point x="469" y="78"/>
      <point x="487" y="196"/>
      <point x="494" y="339" type="curve" smooth="yes"/>
      <point x="503" y="507"/>
      <point x="509" y="680"/>
      <point x="511" y="829" type="curve"/>
      <point x="768" y="829" type="line"/>
      <point x="768" y="346" type="line" smooth="yes"/>
      <point x="768" y="149"/>
      <point x="836" y="34"/>
      <point x="977" y="10" type="curve"/>
      <point x="1019" y="1"/>
      <point x="1058" y="1"/>
      <point x="1096" y="9" type="curve"/>
      <point x="1165" y="163" type="line"/>
      <point x="1139" y="175"/>
      <point x="1115" y="199"/>
      <point x="1096" y="254" type="curve"/>
      <point x="1059" y="266"/>
      <point x="1041" y="309"/>
      <point x="1041" y="382" type="curve" smooth="yes"/>
      <point x="1041" y="829" type="line"/>
      <point x="1230" y="829" type="line"/>
      <point x="1235" y="1043" type="line"/>
      <point x="349" y="1043" type="line" smooth="yes"/>
      <point x="187" y="1043"/>
      <point x="82" y="1032"/>
      <point x="11" y="981" type="curve"/>
      <point x="21" y="768" type="line"/>
      <point x="86" y="808"/>
      <point x="154" y="829"/>
      <point x="240" y="829" type="curve"/>
      <point x="239" y="682"/>
      <point x="233" y="515"/>
      <point x="224" y="352" type="curve" smooth="yes"/>
      <point x="216" y="211"/>
      <point x="197" y="90"/>
    </contour>
  </outline>
</glyph>
<glyph name="endash" format="1">
  <advance width="1265"/>
  <unicode hex="2013"/>
  <outline>
    <contour>
      <point x="-47" y="497" type="line"/>
      <point x="1312" y="497" type="line"/>
      <point x="1312" y="759" type="line"/>
      <point x="-47" y="759" type="line"/>
    </contour>
  </outline>
</glyph>
<glyph name="emdash" format="1">
  <advance width="1952"/>
  <unicode hex="2014"/>
  <outline>
    <contour>
      <point x="2000" y="497" type="line"/>
      <point x="-47" y="497" type="line"/>
      <point x="-47" y="759" type="line"/>
      <point x="2000" y="759" type="line"/>
    </contour>
  </outline>
</glyph>
<glyph name="quoteleft" format="1">
  <advance width="564"/>
  <unicode hex="2018"/>
  <outline>
    <contour>
      <point x="445" y="1057" type="line" smooth="no"/>
      <point x="282" y="1057" type="line" smooth="no"/>
      <point x="97" y="1575" type="line" smooth="no"/>
      <point x="340" y="1575" type="line" smooth="no"/>
    </contour>
  </outline>
</glyph>
<glyph name="quoteright" format="1">
  <advance width="564"/>
  <unicode hex="2019"/>
  <outline>
    <contour>
      <point x="97" y="1057" type="line"/>
      <point x="260" y="1057" type="line"/>
      <point x="445" y="1575" type="line"/>
      <point x="202" y="1575" type="line"/>
    </contour>
  </outline>
</glyph>
<glyph name="quotesinglbase" format="1">
  <advance width="564"/>
  <unicode hex="201A"/>
  <outline>
    <contour>
      <point x="534" y="258" type="line"/>
      <point x="502" y="168"/>
      <point x="471" y="79"/>
      <point x="440" y="-11" type="curve"/>
      <point x="290" y="-245" type="line"/>
      <point x="96" y="-259" type="line"/>
      <point x="201" y="258" type="line"/>
    </contour>
  </outline>
</glyph>
<glyph name="quotedblleft" format="1">
  <advance width="944"/>
  <unicode hex="201c"/>
  <outline>
    <contour>
      <point x="810" y="1057" type="line" smooth="no"/>
      <point x="647" y="1057" type="line" smooth="no"/>
      <point x="462" y="1575" type="line" smooth="no"/>
      <point x="705" y="1575" type="line" smooth="no"/>
    </contour>
    <contour>
      <point x="445" y="1057" type="line" smooth="no"/>
      <point x="282" y="1057" type="line" smooth="no"/>
      <point x="97" y="1575" type="line" smooth="no"/>
      <point x="340" y="1575" type="line" smooth="no"/>
    </contour>
  </outline>
</glyph>
<glyph name="quotedblright" format="1">
  <advance width="944"/>
  <unicode hex="201d"/>
  <outline>
    <contour>
      <point x="940" y="1523" type="line" smooth="no"/>
      <point x="754" y="1060" type="line" smooth="no"/>
      <point x="500" y="1005" type="line" smooth="no"/>
      <point x="605" y="1523" type="line" smooth="no"/>
    </contour>
    <contour>
      <point x="517" y="1523" type="line" smooth="no"/>
      <point x="331" y="1060" type="line" smooth="no"/>
      <point x="77" y="1005" type="line" smooth="no"/>
      <point x="182" y="1523" type="line" smooth="no"/>
    </contour>
  </outline>
</glyph>
<glyph name="quotedblbase" format="1">
  <advance width="945"/>
  <unicode hex="201E"/>
  <outline>
    <contour>
      <point x="481" y="-259" type="line"/>
      <point x="655" y="-259" type="line"/>
      <point x="899" y="258" type="line"/>
      <point x="586" y="258" type="line"/>
    </contour>
    <contour>
      <point x="75" y="-259" type="line"/>
      <point x="249" y="-259" type="line"/>
      <point x="493" y="258" type="line"/>
      <point x="180" y="258" type="line"/>
    </contour>
  </outline>
</glyph>
<glyph name="bullet" format="1">
  <advance width="1318"/>
  <unicode hex="2022"/>
  <outline>
    <contour>
      <point x="1159" y="695" type="curve" smooth="yes"/>
      <point x="1159" y="433"/>
      <point x="930" y="217"/>
      <point x="658" y="217" type="curve" smooth="yes"/>
      <point x="386" y="217"/>
      <point x="158" y="434"/>
      <point x="158" y="695" type="curve" smooth="yes"/>
      <point x="158" y="955"/>
      <point x="388" y="1171"/>
      <point x="658" y="1171" type="curve" smooth="yes"/>
      <point x="932" y="1171"/>
      <point x="1159" y="955"/>
    </contour>
  </outline>
</glyph>
<glyph name="perthousand" format="1">
  <advance width="2754"/>
  <unicode hex="2030"/>
  <outline>
    <contour>
      <point x="697" y="0" type="line"/>
      <point x="439" y="0" type="line"/>
      <point x="1216" y="1479" type="line"/>
      <point x="1473" y="1479" type="line"/>
    </contour>
    <contour>
      <point x="440" y="728" type="curve" smooth="yes"/>
      <point x="223" y="728"/>
      <point x="96" y="840"/>
      <point x="96" y="1080" type="curve" smooth="yes"/>
      <point x="96" y="1359"/>
      <point x="209" y="1483"/>
      <point x="440" y="1483" type="curve" smooth="yes"/>
      <point x="657" y="1483"/>
      <point x="780" y="1369"/>
      <point x="780" y="1133" type="curve" smooth="yes"/>
      <point x="780" y="855"/>
      <point x="674" y="728"/>
    </contour>
    <contour>
      <point x="440" y="907" type="curve" smooth="yes"/>
      <point x="525" y="907"/>
      <point x="542" y="969"/>
      <point x="544" y="1114" type="curve"/>
      <point x="544" y="1232"/>
      <point x="531" y="1307"/>
      <point x="440" y="1307" type="curve" smooth="yes"/>
      <point x="345" y="1307"/>
      <point x="337" y="1229"/>
      <point x="337" y="1100" type="curve" smooth="yes"/>
      <point x="337" y="989"/>
      <point x="343" y="907"/>
    </contour>
    <contour>
      <point x="1488" y="-4" type="curve" smooth="yes"/>
      <point x="1271" y="-4"/>
      <point x="1144" y="108"/>
      <point x="1144" y="348" type="curve" smooth="yes"/>
      <point x="1144" y="627"/>
      <point x="1257" y="751"/>
      <point x="1488" y="751" type="curve" smooth="yes"/>
      <point x="1705" y="751"/>
      <point x="1828" y="637"/>
      <point x="1828" y="401" type="curve" smooth="yes"/>
      <point x="1828" y="122"/>
      <point x="1723" y="-4"/>
    </contour>
    <contour>
      <point x="1488" y="175" type="curve" smooth="yes"/>
      <point x="1573" y="175"/>
      <point x="1591" y="237"/>
      <point x="1592" y="382" type="curve" smooth="yes"/>
      <point x="1592" y="500"/>
      <point x="1580" y="575"/>
      <point x="1488" y="575" type="curve" smooth="yes"/>
      <point x="1394" y="575"/>
      <point x="1385" y="497"/>
      <point x="1385" y="368" type="curve" smooth="yes"/>
      <point x="1385" y="256"/>
      <point x="1391" y="175"/>
    </contour>
    <contour>
      <point x="2310" y="-4" type="curve" smooth="yes"/>
      <point x="2093" y="-4"/>
      <point x="1966" y="108"/>
      <point x="1966" y="348" type="curve" smooth="yes"/>
      <point x="1966" y="627"/>
      <point x="2079" y="751"/>
      <point x="2310" y="751" type="curve" smooth="yes"/>
      <point x="2527" y="751"/>
      <point x="2649" y="637"/>
      <point x="2649" y="401" type="curve" smooth="yes"/>
      <point x="2649" y="122"/>
      <point x="2545" y="-4"/>
    </contour>
    <contour>
      <point x="2310" y="175" type="curve" smooth="yes"/>
      <point x="2395" y="175"/>
      <point x="2411" y="237"/>
      <point x="2413" y="382" type="curve"/>
      <point x="2413" y="500"/>
      <point x="2402" y="575"/>
      <point x="2310" y="575" type="curve" smooth="yes"/>
      <point x="2215" y="575"/>
      <point x="2207" y="497"/>
      <point x="2207" y="368" type="curve" smooth="yes"/>
      <point x="2207" y="257"/>
      <point x="2213" y="175"/>
    </contour>
  </outline>
</glyph>
<glyph name="guilsinglleft" format="1">
  <advance width="797"/>
  <unicode hex="2039"/>
  <outline>
    <contour>
      <point x="640" y="142" type="curve"/>
      <point x="640" y="241"/>
      <point x="641" y="339"/>
      <point x="643" y="437" type="curve"/>
      <point x="610" y="462"/>
      <point x="578" y="490"/>
      <point x="544" y="516" type="curve" smooth="yes"/>
      <point x="401" y="630" type="line"/>
      <point x="645" y="822" type="line"/>
      <point x="647" y="1118" type="line"/>
      <point x="116" y="692" type="line"/>
      <point x="125" y="698" type="line"/>
      <point x="106" y="584" type="line"/>
      <point x="285" y="437"/>
      <point x="464" y="291"/>
    </contour>
  </outline>
</glyph>
<glyph name="guilsinglright" format="1">
  <advance width="797"/>
  <unicode hex="203A"/>
  <outline>
    <contour>
      <point x="157" y="142" type="line"/>
      <point x="360" y="314" type="line"/>
      <point x="470" y="403"/>
      <point x="580" y="492"/>
      <point x="690" y="582" type="curve"/>
      <point x="678" y="690" type="line"/>
      <point x="569" y="771"/>
      <point x="464" y="861"/>
      <point x="360" y="945" type="curve"/>
      <point x="157" y="1116" type="line"/>
      <point x="154" y="822" type="line"/>
      <point x="235" y="757"/>
      <point x="315" y="692"/>
      <point x="397" y="629" type="curve"/>
      <point x="157" y="437" type="line"/>
    </contour>
  </outline>
</glyph>
<glyph name="fraction" format="1">
  <advance width="771"/>
  <unicode hex="2044"/>
  <outline>
    <contour>
      <point x="-183" y="-13" type="line"/>
      <point x="94" y="-13" type="line"/>
      <point x="942" y="1492" type="line"/>
      <point x="666" y="1492" type="line"/>
    </contour>
  </outline>
</glyph>
<glyph name="Euro" format="1">
  <advance width="1246"/>
  <unicode hex="20AC"/>
  <outline>
    <contour>
      <point x="800" y="-24" type="curve" smooth="yes"/>
      <point x="918.333333333" y="-24.0"/>
      <point x="1094.52941176" y="4.76470588235"/>
      <point x="1224" y="105" type="curve"/>
      <point x="1224" y="380" type="line"/>
      <point x="1134" y="380" type="line"/>
      <point x="1087.73768628" y="171.255413718"/>
      <point x="859.121247018" y="168.0"/>
      <point x="780" y="168" type="curve" smooth="yes"/>
      <point x="480" y="168"/>
      <point x="368" y="365"/>
      <point x="339" y="567" type="curve"/>
      <point x="970" y="567" type="line"/>
      <point x="1003" y="703" type="line"/>
      <point x="322" y="703" type="line"/>
      <point x="320" y="719"/>
      <point x="318" y="744"/>
      <point x="318" y="768" type="curve" smooth="yes"/>
      <point x="320" y="871" type="line"/>
      <point x="1021" y="871" type="line"/>
      <point x="1053" y="1001" type="line"/>
      <point x="334" y="1001" type="line"/>
      <point x="395" y="1334"/>
      <point x="604" y="1407"/>
      <point x="783" y="1407" type="curve" smooth="yes"/>
      <point x="943" y="1407"/>
      <point x="1080" y="1347"/>
      <point x="1141" y="1195" type="curve"/>
      <point x="1141" y="1195"/>
      <point x="1224" y="1195"/>
      <point x="1224" y="1195" type="curve"/>
      <point x="1224" y="1467" type="line"/>
      <point x="1096" y="1563"/>
      <point x="939" y="1599"/>
      <point x="787" y="1599" type="curve" smooth="yes"/>
      <point x="412" y="1599"/>
      <point x="145" y="1420"/>
      <point x="78" y="1001" type="curve"/>
      <point x="-60" y="1001" type="line"/>
      <point x="-85" y="871" type="line"/>
      <point x="66" y="871" type="line"/>
      <point x="64" y="768" type="line"/>
      <point x="64" y="744"/>
      <point x="66" y="719"/>
      <point x="68" y="703" type="curve"/>
      <point x="-50" y="703" type="line"/>
      <point x="-85" y="567" type="line"/>
      <point x="83" y="567" type="line"/>
      <point x="169" y="156"/>
      <point x="404" y="-24"/>
    </contour>
  </outline>
</glyph>
<glyph name="Euro" format="1">
  <advance width="1246"/>
  <unicode hex="20AC"/>
  <outline>
    <contour>
      <point x="783" y="-24" type="curve"/>
      <point x="935" y="-14"/>
      <point x="1065" y="12"/>
      <point x="1177" y="60" type="curve"/>
      <point x="1177" y="381" type="line"/>
      <point x="1150" y="367"/>
      <point x="1115" y="356"/>
      <point x="1064" y="356" type="curve"/>
      <point x="960" y="287"/>
      <point x="870" y="252"/>
      <point x="813" y="254" type="curve"/>
      <point x="672" y="263"/>
      <point x="585" y="329"/>
      <point x="531" y="468" type="curve"/>
      <point x="938" y="468" type="line"/>
      <point x="980" y="665" type="line"/>
      <point x="483" y="665" type="line"/>
      <point x="480" y="690"/>
      <point x="480" y="714"/>
      <point x="480" y="740" type="curve" smooth="yes"/>
      <point x="480" y="789" type="line"/>
      <point x="1005" y="789" type="line"/>
      <point x="1046" y="985" type="line"/>
      <point x="521" y="985" type="line"/>
      <point x="573" y="1147"/>
      <point x="668" y="1225"/>
      <point x="836" y="1225" type="curve" smooth="yes"/>
      <point x="897" y="1225"/>
      <point x="970" y="1192"/>
      <point x="1064" y="1122" type="curve"/>
      <point x="1115" y="1122"/>
      <point x="1151" y="1110"/>
      <point x="1177" y="1096" type="curve"/>
      <point x="1177" y="1415" type="line"/>
      <point x="1053" y="1465"/>
      <point x="909" y="1502"/>
      <point x="766" y="1502" type="curve" smooth="yes"/>
      <point x="414" y="1502"/>
      <point x="187" y="1312"/>
      <point x="116" y="985" type="curve"/>
      <point x="18" y="985" type="line"/>
      <point x="-25" y="789" type="line"/>
      <point x="89" y="789" type="line"/>
      <point x="89" y="740" type="line" smooth="yes"/>
      <point x="89" y="715"/>
      <point x="89" y="689"/>
      <point x="92" y="665" type="curve"/>
      <point x="18" y="665" type="line"/>
      <point x="-25" y="468" type="line"/>
      <point x="123" y="468" type="line"/>
      <point x="206" y="127"/>
      <point x="432" y="-24"/>
    </contour>
  </outline>
</glyph>
<glyph name="afii61289" format="1">
  <advance width="899"/>
  <unicode hex="2113"/>
  <outline>
    <contour>
      <point x="515" y="-4" type="curve" smooth="yes"/>
      <point x="656" y="-4"/>
      <point x="781" y="72"/>
      <point x="867" y="252" type="curve"/>
      <point x="785" y="336" type="line"/>
      <point x="736" y="250"/>
      <point x="658" y="158"/>
      <point x="558" y="158" type="curve" smooth="yes"/>
      <point x="462" y="158"/>
      <point x="387" y="240"/>
      <point x="385" y="432" type="curve"/>
      <point x="385" y="528" type="line"/>
      <point x="598" y="762"/>
      <point x="738" y="1001"/>
      <point x="738" y="1243" type="curve" smooth="yes"/>
      <point x="738" y="1440"/>
      <point x="663" y="1585"/>
      <point x="503" y="1585" type="curve" smooth="yes"/>
      <point x="343" y="1585"/>
      <point x="193" y="1446"/>
      <point x="193" y="1094" type="curve" smooth="yes"/>
      <point x="193" y="551" type="line"/>
      <point x="150" y="502"/>
      <point x="100" y="461"/>
      <point x="45" y="410" type="curve"/>
      <point x="96" y="297" type="line"/>
      <point x="129" y="326"/>
      <point x="164" y="358"/>
      <point x="195" y="383" type="curve"/>
      <point x="195" y="358" type="line"/>
      <point x="203" y="164"/>
      <point x="288" y="-4"/>
    </contour>
    <contour>
      <point x="385" y="725" type="curve"/>
      <point x="385" y="1081" type="line" smooth="yes"/>
      <point x="385" y="1352"/>
      <point x="450" y="1434"/>
      <point x="511" y="1434" type="curve" smooth="yes"/>
      <point x="589" y="1434"/>
      <point x="617" y="1366"/>
      <point x="617" y="1251" type="curve" smooth="yes"/>
      <point x="617" y="1083"/>
      <point x="518" y="897"/>
    </contour>
  </outline>
</glyph>
<glyph name="trademark" format="1">
  <advance width="1871"/>
  <unicode hex="2122"/>
  <outline>
    <contour>
      <point x="824" y="723" type="line"/>
      <point x="1014" y="723" type="line"/>
      <point x="1014" y="1308" type="line"/>
      <point x="1033" y="1308" type="line"/>
      <point x="1234" y="830" type="line"/>
      <point x="1369" y="830" type="line"/>
      <point x="1568" y="1303" type="line"/>
      <point x="1583" y="1303" type="line"/>
      <point x="1583" y="723" type="line"/>
      <point x="1773" y="723" type="line"/>
      <point x="1773" y="1479" type="line"/>
      <point x="1475" y="1479" type="line"/>
      <point x="1303" y="1046" type="line"/>
      <point x="1136" y="1479" type="line"/>
      <point x="824" y="1479" type="line"/>
    </contour>
    <contour>
      <point x="285" y="723" type="line"/>
      <point x="487" y="723" type="line"/>
      <point x="487" y="1314" type="line"/>
      <point x="707" y="1314" type="line"/>
      <point x="707" y="1479" type="line"/>
      <point x="65" y="1479" type="line"/>
      <point x="65" y="1314" type="line"/>
      <point x="285" y="1314" type="line"/>
    </contour>
  </outline>
</glyph>
<glyph name="Omega" format="1">
  <advance width="1514"/>
  <unicode hex="2126"/>
  <outline>
    <contour>
      <point x="92" y="814" type="curve" smooth="yes"/>
      <point x="92" y="1193"/>
      <point x="369" y="1456"/>
      <point x="758" y="1456" type="curve" smooth="yes"/>
      <point x="1164" y="1456"/>
      <point x="1422" y="1173"/>
      <point x="1422" y="823" type="curve" smooth="yes"/>
      <point x="1422" y="560"/>
      <point x="1302" y="357"/>
      <point x="1105" y="231" type="curve"/>
      <point x="1183" y="229" type="line"/>
      <point x="1429" y="229" type="line"/>
      <point x="1429" y="0" type="line"/>
      <point x="861" y="0" type="line"/>
      <point x="861" y="211" type="line"/>
      <point x="1020" y="340"/>
      <point x="1117" y="529"/>
      <point x="1117" y="775" type="curve" smooth="yes"/>
      <point x="1117" y="1018"/>
      <point x="977" y="1214"/>
      <point x="762" y="1214" type="curve" smooth="yes"/>
      <point x="548" y="1214"/>
      <point x="396" y="1037"/>
      <point x="396" y="765" type="curve" smooth="yes"/>
      <point x="396" y="535"/>
      <point x="476" y="358"/>
      <point x="651" y="211" type="curve"/>
      <point x="651" y="0" type="line"/>
      <point x="82" y="0" type="line"/>
      <point x="82" y="229" type="line"/>
      <point x="401" y="229" type="line"/>
      <point x="214" y="332"/>
      <point x="92" y="553"/>
    </contour>
  </outline>
</glyph>
<glyph name="estimated" format="1">
  <advance width="1789"/>
  <unicode hex="212E"/>
  <outline>
    <contour>
      <point x="892" y="-10" type="curve" smooth="yes"/>
      <point x="1158" y="-10"/>
      <point x="1399" y="102"/>
      <point x="1544" y="276" type="curve"/>
      <point x="1427" y="276" type="line"/>
      <point x="1296" y="127"/>
      <point x="1107" y="31"/>
      <point x="894" y="31" type="curve" smooth="yes"/>
      <point x="697" y="31"/>
      <point x="518" y="117"/>
      <point x="389" y="250" type="curve"/>
      <point x="379" y="262"/>
      <point x="373" y="279"/>
      <point x="373" y="297" type="curve" smooth="yes"/>
      <point x="373" y="700" type="line" smooth="yes"/>
      <point x="373" y="707"/>
      <point x="377" y="709"/>
      <point x="383" y="709" type="curve" smooth="yes"/>
      <point x="1718" y="709" type="line"/>
      <point x="1718" y="727" type="line" smooth="yes"/>
      <point x="1718" y="1139"/>
      <point x="1350" y="1470"/>
      <point x="892" y="1470" type="curve" smooth="yes"/>
      <point x="438" y="1470"/>
      <point x="70" y="1139"/>
      <point x="70" y="727" type="curve" smooth="yes"/>
      <point x="70" y="319"/>
      <point x="438" y="-10"/>
    </contour>
    <contour>
      <point x="383" y="748" type="line" smooth="yes"/>
      <point x="377" y="748"/>
      <point x="373" y="756"/>
      <point x="373" y="762" type="curve" smooth="yes"/>
      <point x="373" y="1157" type="line" smooth="yes"/>
      <point x="373" y="1178"/>
      <point x="379" y="1196"/>
      <point x="391" y="1208" type="curve" smooth="yes"/>
      <point x="520" y="1339"/>
      <point x="699" y="1425"/>
      <point x="894" y="1425" type="curve" smooth="yes"/>
      <point x="1091" y="1425"/>
      <point x="1266" y="1341"/>
      <point x="1397" y="1214" type="curve" smooth="yes"/>
      <point x="1409" y="1202"/>
      <point x="1415" y="1184"/>
      <point x="1415" y="1167" type="curve" smooth="yes"/>
      <point x="1415" y="762" type="line" smooth="yes"/>
      <point x="1415" y="756"/>
      <point x="1413" y="748"/>
      <point x="1407" y="748" type="curve" smooth="yes"/>
    </contour>
  </outline>
</glyph>
<glyph name="partialdiff" format="1">
  <advance width="1171"/>
  <unicode hex="2202"/>
  <outline>
    <contour>
      <point x="820" y="871" type="curve" smooth="no"/>
      <point x="824" y="871" type="line" smooth="no"/>
      <point x="825" y="890"/>
      <point x="826" y="912"/>
      <point x="826" y="922" type="curve" smooth="yes"/>
      <point x="826" y="1148"/>
      <point x="741" y="1294"/>
      <point x="586" y="1319" type="curve" smooth="no"/>
      <point x="461" y="1342"/>
      <point x="361" y="1299"/>
      <point x="281" y="1250" type="curve" smooth="no"/>
      <point x="304" y="1466" type="line" smooth="no"/>
      <point x="388" y="1514"/>
      <point x="499" y="1551"/>
      <point x="643" y="1542" type="curve" smooth="yes"/>
      <point x="930" y="1525"/>
      <point x="1097" y="1338"/>
      <point x="1112" y="964" type="curve" smooth="yes"/>
      <point x="1115" y="897"/>
      <point x="1112" y="828"/>
      <point x="1103" y="756" type="curve" smooth="no"/>
      <point x="1055" y="284"/>
      <point x="842" y="-17"/>
      <point x="480" y="-17" type="curve" smooth="yes"/>
      <point x="213" y="-17"/>
      <point x="58" y="171"/>
      <point x="58" y="423" type="curve" smooth="yes"/>
      <point x="58" y="758"/>
      <point x="270" y="1016"/>
      <point x="552" y="1016" type="curve" smooth="yes"/>
      <point x="681" y="1016"/>
      <point x="772" y="949"/>
    </contour>
    <contour>
      <point x="793" y="652" type="curve" smooth="no"/>
      <point x="768" y="744"/>
      <point x="705" y="813"/>
      <point x="609" y="813" type="curve" smooth="yes"/>
      <point x="461" y="813"/>
      <point x="347" y="623"/>
      <point x="347" y="429" type="curve" smooth="yes"/>
      <point x="347" y="287"/>
      <point x="406" y="201"/>
      <point x="512" y="201" type="curve" smooth="yes"/>
      <point x="657" y="201"/>
      <point x="765" y="406"/>
    </contour>
  </outline>
</glyph>
<glyph name="Delta" format="1">
  <advance width="1164"/>
  <unicode hex="2206"/>
  <outline>
    <contour>
      <point x="254" y="168" type="line"/>
      <point x="903" y="168" type="line"/>
      <point x="691" y="831" type="line"/>
      <point x="663" y="946"/>
      <point x="603" y="1110"/>
      <point x="585" y="1204" type="curve"/>
      <point x="579" y="1204" type="line"/>
      <point x="562" y="1122"/>
      <point x="509" y="975"/>
      <point x="480" y="858" type="curve"/>
    </contour>
    <contour>
      <point x="53" y="0" type="line"/>
      <point x="53" y="127" type="line"/>
      <point x="472" y="1460" type="line"/>
      <point x="703" y="1460" type="line"/>
      <point x="1110" y="131" type="line"/>
      <point x="1110" y="0" type="line"/>
    </contour>
  </outline>
</glyph>
<glyph name="product" format="1">
  <advance width="1566"/>
  <unicode hex="220F"/>
  <outline>
    <contour>
      <point x="195" y="-372" type="line"/>
      <point x="486" y="-372" type="line"/>
      <point x="486" y="1185" type="line"/>
      <point x="1091" y="1185" type="line"/>
      <point x="1091" y="-372" type="line"/>
      <point x="1382" y="-372" type="line"/>
      <point x="1382" y="920" type="line"/>
      <point x="1448" y="1363" type="line"/>
      <point x="1448" y="1433" type="line"/>
      <point x="129" y="1433" type="line"/>
      <point x="129" y="1161" type="line"/>
      <point x="151" y="1081"/>
      <point x="173" y="1001"/>
      <point x="195" y="920" type="curve"/>
    </contour>
  </outline>
</glyph>
<glyph name="summation" format="1">
  <advance width="1256"/>
  <unicode hex="2211"/>
  <outline>
    <contour>
      <point x="94" y="0" type="line"/>
      <point x="1181" y="0" type="line"/>
      <point x="1181" y="208" type="line"/>
      <point x="1181" y="208"/>
      <point x="392" y="208"/>
      <point x="392" y="208" type="curve"/>
      <point x="931" y="847" type="line"/>
      <point x="931" y="847"/>
      <point x="427" y="1385"/>
      <point x="427" y="1385" type="curve"/>
      <point x="1148" y="1385" type="line"/>
      <point x="1148" y="1575" type="line"/>
      <point x="117" y="1575" type="line"/>
      <point x="117" y="1401" type="line"/>
      <point x="637" y="841" type="line"/>
      <point x="94" y="203" type="line"/>
    </contour>
  </outline>
</glyph>
<glyph name="minus" format="1">
  <advance width="1230"/>
  <unicode hex="2212"/>
  <outline>
    <contour>
      <point x="96" y="438" type="line" smooth="no"/>
      <point x="96" y="598" type="line" smooth="no"/>
      <point x="1135" y="598" type="line" smooth="no"/>
      <point x="1135" y="438" type="line" smooth="no"/>
    </contour>
  </outline>
</glyph>
<glyph name="radical" format="1">
  <advance width="1292"/>
  <unicode hex="221A"/>
  <outline>
    <contour>
      <point x="585" y="-106" type="line"/>
      <point x="778" y="-106" type="line"/>
      <point x="1200" y="1588" type="line"/>
      <point x="1016" y="1588" type="line"/>
      <point x="919" y="1189"/>
      <point x="818" y="790"/>
      <point x="721" y="392" type="curve"/>
      <point x="676" y="198" type="line"/>
      <point x="653" y="243"/>
      <point x="629" y="324"/>
      <point x="608" y="383" type="curve" smooth="yes"/>
      <point x="428" y="867" type="line"/>
      <point x="84" y="824" type="line"/>
      <point x="96" y="673" type="line"/>
      <point x="268" y="692" type="line"/>
    </contour>
  </outline>
</glyph>
